solid OpenSCAD_Model
  facet normal -1 0 0
    outer loop
      vertex -250 20 300
      vertex -250 50 400
      vertex -250 50 300
    endloop
  endfacet
  facet normal -1 0 0
    outer loop
      vertex -250 20 300
      vertex -250 -329.469 400
      vertex -250 50 400
    endloop
  endfacet
  facet normal -1 0 0
    outer loop
      vertex -250 -29.7242 18
      vertex -250 -329.469 400
      vertex -250 20 300
    endloop
  endfacet
  facet normal -1 0 0
    outer loop
      vertex -250 -482 18
      vertex -250 -329.469 400
      vertex -250 -29.7242 18
    endloop
  endfacet
  facet normal -1 0 0
    outer loop
      vertex -250 -482 800
      vertex -250 -329.469 400
      vertex -250 -482 18
    endloop
  endfacet
  facet normal -1 0 0
    outer loop
      vertex -250 -329.469 400
      vertex -250 -482 800
      vertex -250 -400 800
    endloop
  endfacet
  facet normal 1 0 0
    outer loop
      vertex 250 50 400
      vertex 250 20 300
      vertex 250 50 300
    endloop
  endfacet
  facet normal 1 -0 0
    outer loop
      vertex 250 -329.469 400
      vertex 250 20 300
      vertex 250 50 400
    endloop
  endfacet
  facet normal 1 0 0
    outer loop
      vertex 250 -329.469 400
      vertex 250 -29.7242 18
      vertex 250 20 300
    endloop
  endfacet
  facet normal 1 -0 0
    outer loop
      vertex 250 -482 800
      vertex 250 -329.469 400
      vertex 250 -400 800
    endloop
  endfacet
  facet normal 1 0 0
    outer loop
      vertex 250 -329.469 400
      vertex 250 -482 18
      vertex 250 -29.7242 18
    endloop
  endfacet
  facet normal 1 0 0
    outer loop
      vertex 250 -482 18
      vertex 250 -329.469 400
      vertex 250 -482 800
    endloop
  endfacet
  facet normal 0 0 -1
    outer loop
      vertex -250 20 300
      vertex 250 50 300
      vertex 250 20 300
    endloop
  endfacet
  facet normal -0 0 -1
    outer loop
      vertex 250 50 300
      vertex -250 20 300
      vertex -250 50 300
    endloop
  endfacet
  facet normal 0 1 -0
    outer loop
      vertex 250 50 300
      vertex -250 50 400
      vertex 250 50 400
    endloop
  endfacet
  facet normal 0 1 0
    outer loop
      vertex -250 50 400
      vertex 250 50 300
      vertex -250 50 300
    endloop
  endfacet
  facet normal -0 0 1
    outer loop
      vertex -250 50 400
      vertex 250 -329.469 400
      vertex 250 50 400
    endloop
  endfacet
  facet normal 0 0 1
    outer loop
      vertex 250 -329.469 400
      vertex -250 50 400
      vertex -250 -329.469 400
    endloop
  endfacet
  facet normal 0 0.984808 0.173648
    outer loop
      vertex 250 -329.469 400
      vertex -250 -400 800
      vertex 250 -400 800
    endloop
  endfacet
  facet normal 0 0.984808 0.173648
    outer loop
      vertex -250 -400 800
      vertex 250 -329.469 400
      vertex -250 -329.469 400
    endloop
  endfacet
  facet normal -0 0 1
    outer loop
      vertex -250 -400 800
      vertex 250 -482 800
      vertex 250 -400 800
    endloop
  endfacet
  facet normal 0 0 1
    outer loop
      vertex 250 -482 800
      vertex -250 -400 800
      vertex -250 -482 800
    endloop
  endfacet
  facet normal 0 -1 0
    outer loop
      vertex -250 -500 800
      vertex -232 -500 782
      vertex 250 -500 800
    endloop
  endfacet
  facet normal 0 -1 0
    outer loop
      vertex -250 -500 0
      vertex -232 -500 782
      vertex -250 -500 800
    endloop
  endfacet
  facet normal 0 -1 -0
    outer loop
      vertex -232 -500 782
      vertex -250 -500 0
      vertex -232 -500 3.9968e-15
    endloop
  endfacet
  facet normal 0 -1 0
    outer loop
      vertex 232 -500 782
      vertex 250 -500 800
      vertex -232 -500 782
    endloop
  endfacet
  facet normal 0 -1 0
    outer loop
      vertex 232 -500 782
      vertex 250 -500 1.11022e-13
      vertex 250 -500 800
    endloop
  endfacet
  facet normal -0 -1 0
    outer loop
      vertex 250 -500 1.11022e-13
      vertex 232 -500 782
      vertex 232 -500 1.07025e-13
    endloop
  endfacet
  facet normal 2.22045e-16 0 -1
    outer loop
      vertex -232 -500 3.9968e-15
      vertex -241 -500 1.9984e-15
      vertex -232 -51.1758 3.9968e-15
    endloop
  endfacet
  facet normal 2.22045e-16 0 -1
    outer loop
      vertex 232 -51.1758 1.07025e-13
      vertex 241 -500 1.09024e-13
      vertex 232 -500 1.07025e-13
    endloop
  endfacet
  facet normal 2.22045e-16 0 -1
    outer loop
      vertex 241 -500 1.09024e-13
      vertex 232 -51.1758 1.07025e-13
      vertex 241 -41.8981 1.09024e-13
    endloop
  endfacet
  facet normal 2.22045e-16 0 -1
    outer loop
      vertex -232 -51.1758 3.9968e-15
      vertex 241 -41.8981 1.09024e-13
      vertex 232 -51.1758 1.07025e-13
    endloop
  endfacet
  facet normal 2.22045e-16 0 -1
    outer loop
      vertex -232 -51.1758 3.9968e-15
      vertex -241 -41.8981 1.9984e-15
      vertex 241 -41.8981 1.09024e-13
    endloop
  endfacet
  facet normal 2.22045e-16 0 -1
    outer loop
      vertex -241 -41.8981 1.9984e-15
      vertex -232 -51.1758 3.9968e-15
      vertex -241 -500 1.9984e-15
    endloop
  endfacet
  facet normal 0 0 0
    outer loop
      vertex 232 -500 1.07025e-13
      vertex 241 -500 1.09024e-13
      vertex 250 -500 1.11022e-13
    endloop
  endfacet
  facet normal 0 0 0
    outer loop
      vertex -250 -500 0
      vertex -241 -500 1.9984e-15
      vertex -232 -500 3.9968e-15
    endloop
  endfacet
  facet normal 0 0.984808 -0.173648
    outer loop
      vertex 250 -29.7242 18
      vertex -250 20 300
      vertex 250 20 300
    endloop
  endfacet
  facet normal 0 0.984808 -0.173648
    outer loop
      vertex -250 20 300
      vertex 250 -29.7242 18
      vertex -250 -29.7242 18
    endloop
  endfacet
  facet normal 1 0 0
    outer loop
      vertex -232 32 382
      vertex -232 1.72232 318
      vertex -232 32 318
    endloop
  endfacet
  facet normal 1 -0 0
    outer loop
      vertex -232 -347.747 382
      vertex -232 1.72232 318
      vertex -232 32 382
    endloop
  endfacet
  facet normal 1 0 0
    outer loop
      vertex -232 -347.747 382
      vertex -232 -51.1758 3.9968e-15
      vertex -232 1.72232 318
    endloop
  endfacet
  facet normal 1 -0 0
    outer loop
      vertex -232 -500 782
      vertex -232 -347.747 382
      vertex -232 -418.278 782
    endloop
  endfacet
  facet normal 1 0 0
    outer loop
      vertex -232 -347.747 382
      vertex -232 -500 3.9968e-15
      vertex -232 -51.1758 3.9968e-15
    endloop
  endfacet
  facet normal 1 0 0
    outer loop
      vertex -232 -500 3.9968e-15
      vertex -232 -347.747 382
      vertex -232 -500 782
    endloop
  endfacet
  facet normal -1 0 0
    outer loop
      vertex 232 1.72232 318
      vertex 232 32 382
      vertex 232 32 318
    endloop
  endfacet
  facet normal -1 0 0
    outer loop
      vertex 232 1.72232 318
      vertex 232 -347.747 382
      vertex 232 32 382
    endloop
  endfacet
  facet normal -1 0 0
    outer loop
      vertex 232 -51.1758 1.07025e-13
      vertex 232 -347.747 382
      vertex 232 1.72232 318
    endloop
  endfacet
  facet normal -1 0 0
    outer loop
      vertex 232 -500 1.07025e-13
      vertex 232 -347.747 382
      vertex 232 -51.1758 1.07025e-13
    endloop
  endfacet
  facet normal -1 0 0
    outer loop
      vertex 232 -500 782
      vertex 232 -347.747 382
      vertex 232 -500 1.07025e-13
    endloop
  endfacet
  facet normal -1 0 0
    outer loop
      vertex 232 -347.747 382
      vertex 232 -500 782
      vertex 232 -418.278 782
    endloop
  endfacet
  facet normal 0 -0.986445 0.164091
    outer loop
      vertex -232 1.72232 318
      vertex 232 -51.1758 1.07025e-13
      vertex 232 1.72232 318
    endloop
  endfacet
  facet normal -3.64356e-17 -0.986445 0.164091
    outer loop
      vertex 232 -51.1758 1.07025e-13
      vertex -232 1.72232 318
      vertex -232 -51.1758 3.9968e-15
    endloop
  endfacet
  facet normal -0 0 1
    outer loop
      vertex -232 32 318
      vertex 232 1.72232 318
      vertex 232 32 318
    endloop
  endfacet
  facet normal 0 0 1
    outer loop
      vertex 232 1.72232 318
      vertex -232 32 318
      vertex -232 1.72232 318
    endloop
  endfacet
  facet normal 0 -1 0
    outer loop
      vertex -232 32 318
      vertex 232 32 382
      vertex -232 32 382
    endloop
  endfacet
  facet normal 0 -1 -0
    outer loop
      vertex 232 32 382
      vertex -232 32 318
      vertex 232 32 318
    endloop
  endfacet
  facet normal 0 0 -1
    outer loop
      vertex -232 -347.747 382
      vertex 232 32 382
      vertex 232 -347.747 382
    endloop
  endfacet
  facet normal -0 0 -1
    outer loop
      vertex 232 32 382
      vertex -232 -347.747 382
      vertex -232 32 382
    endloop
  endfacet
  facet normal 0 -0.984808 -0.173648
    outer loop
      vertex -232 -347.747 382
      vertex 232 -418.278 782
      vertex -232 -418.278 782
    endloop
  endfacet
  facet normal 0 -0.984808 -0.173648
    outer loop
      vertex 232 -418.278 782
      vertex -232 -347.747 382
      vertex 232 -347.747 382
    endloop
  endfacet
  facet normal 0 0 -1
    outer loop
      vertex -232 -500 782
      vertex 232 -418.278 782
      vertex 232 -500 782
    endloop
  endfacet
  facet normal -0 0 -1
    outer loop
      vertex 232 -418.278 782
      vertex -232 -500 782
      vertex -232 -418.278 782
    endloop
  endfacet
  facet normal -1 0 0
    outer loop
      vertex -350 304.823 1250
      vertex -350 500 0
      vertex -350 304.823 50
    endloop
  endfacet
  facet normal -1 0 0
    outer loop
      vertex -350 500 0
      vertex -350 302.25 47.75
      vertex -350 304.823 50
    endloop
  endfacet
  facet normal -1 0 0
    outer loop
      vertex -350 500 0
      vertex -350 -302.25 47.75
      vertex -350 302.25 47.75
    endloop
  endfacet
  facet normal -1 -0 0
    outer loop
      vertex -350 -302.25 47.75
      vertex -350 -500 0
      vertex -350 -302.25 1252.25
    endloop
  endfacet
  facet normal -1 0 0
    outer loop
      vertex -350 -500 0
      vertex -350 -302.25 47.75
      vertex -350 500 0
    endloop
  endfacet
  facet normal -1 0 0
    outer loop
      vertex -350 500 0
      vertex -350 304.823 1250
      vertex -350 500 1600
    endloop
  endfacet
  facet normal -1 0 0
    outer loop
      vertex -350 302.25 1252.25
      vertex -350 304.823 1250
      vertex -350 302.25 1250
    endloop
  endfacet
  facet normal -1 0 0
    outer loop
      vertex -350 304.823 1250
      vertex -350 302.25 1252.25
      vertex -350 500 1600
    endloop
  endfacet
  facet normal -1 0 0
    outer loop
      vertex -350 -302.25 1252.25
      vertex -350 500 1600
      vertex -350 302.25 1252.25
    endloop
  endfacet
  facet normal -1 0 0
    outer loop
      vertex -350 -302.25 1252.25
      vertex -350 -500 1600
      vertex -350 500 1600
    endloop
  endfacet
  facet normal -1 0 0
    outer loop
      vertex -350 -500 1600
      vertex -350 -302.25 1252.25
      vertex -350 -500 0
    endloop
  endfacet
  facet normal -1 -0 0
    outer loop
      vertex -350 304.823 50
      vertex -350 302.25 47.75
      vertex -350 302.25 50
    endloop
  endfacet
  facet normal 0 0 1
    outer loop
      vertex -250 500 1600
      vertex -350 500 1600
      vertex -250 225 1600
    endloop
  endfacet
  facet normal 0 0 1
    outer loop
      vertex 250 225 1600
      vertex 350 500 1600
      vertex 250 500 1600
    endloop
  endfacet
  facet normal 0 0 1
    outer loop
      vertex 350 500 1600
      vertex 250 225 1600
      vertex 350 -500 1600
    endloop
  endfacet
  facet normal -0 0 1
    outer loop
      vertex -250 225 1600
      vertex 350 -500 1600
      vertex 250 225 1600
    endloop
  endfacet
  facet normal 0 0 1
    outer loop
      vertex -250 225 1600
      vertex -350 -500 1600
      vertex 350 -500 1600
    endloop
  endfacet
  facet normal 0 0 1
    outer loop
      vertex -350 -500 1600
      vertex -250 225 1600
      vertex -350 500 1600
    endloop
  endfacet
  facet normal 1 -0 0
    outer loop
      vertex 350 -500 1600
      vertex 350 500 0
      vertex 350 500 1600
    endloop
  endfacet
  facet normal 1 0 0
    outer loop
      vertex 350 500 0
      vertex 350 -500 1600
      vertex 350 -500 0
    endloop
  endfacet
  facet normal 0 1 0
    outer loop
      vertex 350 500 1600
      vertex 250 500 1407
      vertex 250 500 1600
    endloop
  endfacet
  facet normal 0 1 0
    outer loop
      vertex 350 500 1600
      vertex 250 500 925
      vertex 250 500 1407
    endloop
  endfacet
  facet normal 0 1 0
    outer loop
      vertex 350 500 0
      vertex 241 500 925
      vertex 250 500 925
    endloop
  endfacet
  facet normal 0 1 0
    outer loop
      vertex 241 500 925
      vertex 350 500 0
      vertex -241 500 925
    endloop
  endfacet
  facet normal 0 1 0
    outer loop
      vertex -350 500 0
      vertex -241 500 925
      vertex 350 500 0
    endloop
  endfacet
  facet normal 0 1 -0
    outer loop
      vertex 350 500 0
      vertex 250 500 925
      vertex 350 500 1600
    endloop
  endfacet
  facet normal 0 1 -0
    outer loop
      vertex -250 500 1425
      vertex -350 500 1600
      vertex -250 500 1600
    endloop
  endfacet
  facet normal 0 1 -0
    outer loop
      vertex -250 500 925
      vertex -350 500 1600
      vertex -250 500 1425
    endloop
  endfacet
  facet normal 0 1 0
    outer loop
      vertex -250 500 925
      vertex -350 500 0
      vertex -350 500 1600
    endloop
  endfacet
  facet normal 0 1 0
    outer loop
      vertex -241 500 925
      vertex -350 500 0
      vertex -250 500 925
    endloop
  endfacet
  facet normal 0 0 -1
    outer loop
      vertex -241 -500 0
      vertex -250 -500 0
      vertex -241 -41.8981 0
    endloop
  endfacet
  facet normal 0 0 -1
    outer loop
      vertex 241 -41.8981 0
      vertex 350 -500 0
      vertex 241 -500 0
    endloop
  endfacet
  facet normal 0 0 -1
    outer loop
      vertex 350 -500 0
      vertex 241 -41.8981 0
      vertex 350 500 0
    endloop
  endfacet
  facet normal 0 0 -1
    outer loop
      vertex -241 -41.8981 0
      vertex 350 500 0
      vertex 241 -41.8981 0
    endloop
  endfacet
  facet normal 0 0 -1
    outer loop
      vertex -350 -500 0
      vertex -241 -41.8981 0
      vertex -250 -500 0
    endloop
  endfacet
  facet normal 0 0 -1
    outer loop
      vertex -241 -41.8981 0
      vertex -350 500 0
      vertex 350 500 0
    endloop
  endfacet
  facet normal 0 0 -1
    outer loop
      vertex -350 500 0
      vertex -241 -41.8981 0
      vertex -350 -500 0
    endloop
  endfacet
  facet normal 0 -1 0
    outer loop
      vertex -350 -500 1600
      vertex -250 -500 800
      vertex 350 -500 1600
    endloop
  endfacet
  facet normal 0 -1 0
    outer loop
      vertex -350 -500 0
      vertex -250 -500 800
      vertex -350 -500 1600
    endloop
  endfacet
  facet normal 0 -1 -0
    outer loop
      vertex -250 -500 800
      vertex -350 -500 0
      vertex -250 -500 0
    endloop
  endfacet
  facet normal 0 -1 0
    outer loop
      vertex 250 -500 800
      vertex 350 -500 1600
      vertex -250 -500 800
    endloop
  endfacet
  facet normal 0 -1 0
    outer loop
      vertex 350 -500 0
      vertex 250 -500 800
      vertex 250 -500 1.11022e-13
    endloop
  endfacet
  facet normal 0 -1 0
    outer loop
      vertex 241 -500 0
      vertex 250 -500 1.11022e-13
      vertex 241 -500 1.09024e-13
    endloop
  endfacet
  facet normal 0 -1 0
    outer loop
      vertex 250 -500 800
      vertex 350 -500 0
      vertex 350 -500 1600
    endloop
  endfacet
  facet normal 0 -1 0
    outer loop
      vertex 350 -500 0
      vertex 250 -500 1.11022e-13
      vertex 241 -500 0
    endloop
  endfacet
  facet normal 0 -1 -0
    outer loop
      vertex -241 -500 1.9984e-15
      vertex -250 -500 0
      vertex -241 -500 0
    endloop
  endfacet
  facet normal 1 0 0
    outer loop
      vertex -332 482 1582
      vertex -332 302.25 1252.25
      vertex -332 482 18
    endloop
  endfacet
  facet normal 1 0 0
    outer loop
      vertex -332 482 1582
      vertex -332 -302.25 1252.25
      vertex -332 302.25 1252.25
    endloop
  endfacet
  facet normal 1 0 0
    outer loop
      vertex -332 -482 18
      vertex -332 -302.25 1252.25
      vertex -332 -482 1582
    endloop
  endfacet
  facet normal 1 -0 0
    outer loop
      vertex -332 -482 1582
      vertex -332 -302.25 1252.25
      vertex -332 482 1582
    endloop
  endfacet
  facet normal 1 -0 0
    outer loop
      vertex -332 302.25 47.75
      vertex -332 482 18
      vertex -332 302.25 1252.25
    endloop
  endfacet
  facet normal 1 -0 0
    outer loop
      vertex -332 -302.25 47.75
      vertex -332 482 18
      vertex -332 302.25 47.75
    endloop
  endfacet
  facet normal 1 0 0
    outer loop
      vertex -332 -302.25 47.75
      vertex -332 -482 18
      vertex -332 482 18
    endloop
  endfacet
  facet normal 1 0 0
    outer loop
      vertex -332 -302.25 1252.25
      vertex -332 -482 18
      vertex -332 -302.25 47.75
    endloop
  endfacet
  facet normal 0 0 -1
    outer loop
      vertex 332 -482 1582
      vertex 250 225 1582
      vertex 332 482 1582
    endloop
  endfacet
  facet normal 0 0 -1
    outer loop
      vertex 332 -482 1582
      vertex -250 225 1582
      vertex 250 225 1582
    endloop
  endfacet
  facet normal 0 0 -1
    outer loop
      vertex -332 -482 1582
      vertex -250 225 1582
      vertex 332 -482 1582
    endloop
  endfacet
  facet normal 0 0 -1
    outer loop
      vertex -332 482 1582
      vertex -250 225 1582
      vertex -332 -482 1582
    endloop
  endfacet
  facet normal 0 0 -1
    outer loop
      vertex -250 225 1582
      vertex -332 482 1582
      vertex -250 482 1582
    endloop
  endfacet
  facet normal -0 0 -1
    outer loop
      vertex 332 482 1582
      vertex 250 225 1582
      vertex 250 482 1582
    endloop
  endfacet
  facet normal -1 0 0
    outer loop
      vertex 332 -482 18
      vertex 332 482 1582
      vertex 332 482 18
    endloop
  endfacet
  facet normal -1 -0 0
    outer loop
      vertex 332 482 1582
      vertex 332 -482 18
      vertex 332 -482 1582
    endloop
  endfacet
  facet normal 0 -1 0
    outer loop
      vertex -332 482 1582
      vertex -250 482 1425
      vertex -250 482 1582
    endloop
  endfacet
  facet normal 0 -1 0
    outer loop
      vertex -332 482 1582
      vertex -250 482 907
      vertex -250 482 1425
    endloop
  endfacet
  facet normal 0 -1 -0
    outer loop
      vertex -250 482 907
      vertex -332 482 18
      vertex 250 482 907
    endloop
  endfacet
  facet normal 0 -1 0
    outer loop
      vertex -332 482 18
      vertex -250 482 907
      vertex -332 482 1582
    endloop
  endfacet
  facet normal 0 -1 0
    outer loop
      vertex 250 482 1407
      vertex 332 482 1582
      vertex 250 482 1582
    endloop
  endfacet
  facet normal 0 -1 0
    outer loop
      vertex 250 482 907
      vertex 332 482 1582
      vertex 250 482 1407
    endloop
  endfacet
  facet normal 0 -1 0
    outer loop
      vertex 250 482 907
      vertex 332 482 18
      vertex 332 482 1582
    endloop
  endfacet
  facet normal 0 -1 0
    outer loop
      vertex 332 482 18
      vertex 250 482 907
      vertex -332 482 18
    endloop
  endfacet
  facet normal 0 0 1
    outer loop
      vertex 332 482 18
      vertex 250 -29.7242 18
      vertex 332 -482 18
    endloop
  endfacet
  facet normal 0 0 1
    outer loop
      vertex 332 482 18
      vertex -250 -29.7242 18
      vertex 250 -29.7242 18
    endloop
  endfacet
  facet normal -0 0 1
    outer loop
      vertex -332 482 18
      vertex -250 -29.7242 18
      vertex 332 482 18
    endloop
  endfacet
  facet normal 0 0 1
    outer loop
      vertex -332 -482 18
      vertex -250 -29.7242 18
      vertex -332 482 18
    endloop
  endfacet
  facet normal 0 0 1
    outer loop
      vertex -250 -29.7242 18
      vertex -332 -482 18
      vertex -250 -482 18
    endloop
  endfacet
  facet normal 0 0 1
    outer loop
      vertex 332 -482 18
      vertex 250 -29.7242 18
      vertex 250 -482 18
    endloop
  endfacet
  facet normal 0 1 0
    outer loop
      vertex 332 -482 1582
      vertex 250 -482 800
      vertex -332 -482 1582
    endloop
  endfacet
  facet normal 0 1 -0
    outer loop
      vertex 332 -482 18
      vertex 250 -482 800
      vertex 332 -482 1582
    endloop
  endfacet
  facet normal 0 1 0
    outer loop
      vertex 250 -482 800
      vertex 332 -482 18
      vertex 250 -482 18
    endloop
  endfacet
  facet normal 0 1 -0
    outer loop
      vertex -250 -482 800
      vertex -332 -482 1582
      vertex 250 -482 800
    endloop
  endfacet
  facet normal 0 1 0
    outer loop
      vertex -332 -482 18
      vertex -250 -482 800
      vertex -250 -482 18
    endloop
  endfacet
  facet normal 0 1 0
    outer loop
      vertex -250 -482 800
      vertex -332 -482 18
      vertex -332 -482 1582
    endloop
  endfacet
  facet normal -1 0 0
    outer loop
      vertex -250 145 650
      vertex -250 225 1150
      vertex -250 225 650
    endloop
  endfacet
  facet normal -1 -0 0
    outer loop
      vertex -250 225 1150
      vertex -250 145 650
      vertex -250 145 1150
    endloop
  endfacet
  facet normal -1 0 0
    outer loop
      vertex -250 225 1150
      vertex -250 482 907
      vertex -250 225 650
    endloop
  endfacet
  facet normal -1 0 0
    outer loop
      vertex -250 482 907
      vertex -250 225 1150
      vertex -250 482 1425
    endloop
  endfacet
  facet normal -1 -0 0
    outer loop
      vertex -250 482 1425
      vertex -250 225 1150
      vertex -250 225 1425
    endloop
  endfacet
  facet normal -1 0 0
    outer loop
      vertex -250 500 1425
      vertex -250 725 1150
      vertex -250 500 925
    endloop
  endfacet
  facet normal -1 0 0
    outer loop
      vertex -250 725 1150
      vertex -250 500 1425
      vertex -250 725 1425
    endloop
  endfacet
  facet normal 1 0 0
    outer loop
      vertex 250 225 1150
      vertex 250 482 1407
      vertex 250 225 1407
    endloop
  endfacet
  facet normal 1 0 0
    outer loop
      vertex 250 482 1407
      vertex 250 225 1150
      vertex 250 482 907
    endloop
  endfacet
  facet normal 1 0 0
    outer loop
      vertex 250 225 1150
      vertex 250 225 650
      vertex 250 482 907
    endloop
  endfacet
  facet normal 1 -0 0
    outer loop
      vertex 250 145 1150
      vertex 250 225 650
      vertex 250 225 1150
    endloop
  endfacet
  facet normal 1 0 0
    outer loop
      vertex 250 225 650
      vertex 250 145 1150
      vertex 250 145 650
    endloop
  endfacet
  facet normal 0 0 0
    outer loop
      vertex 250 225 1407
      vertex 250 225 1425
      vertex 250 225 1150
    endloop
  endfacet
  facet normal 1 -0 0
    outer loop
      vertex 250 500 1407
      vertex 250 725 1150
      vertex 250 725 1407
    endloop
  endfacet
  facet normal 1 0 0
    outer loop
      vertex 250 725 1150
      vertex 250 500 1407
      vertex 250 500 925
    endloop
  endfacet
  facet normal 0 1 0
    outer loop
      vertex 250 725 1407
      vertex 250 725 1150
      vertex 3.9968e-15 725 1407
    endloop
  endfacet
  facet normal 0 1 0
    outer loop
      vertex 3.9968e-15 725 1407
      vertex -250 725 1425
      vertex -1.10218e-15 725 1425
    endloop
  endfacet
  facet normal 0 1 0
    outer loop
      vertex -250 725 1150
      vertex 3.9968e-15 725 1407
      vertex 250 725 1150
    endloop
  endfacet
  facet normal 0 1 0
    outer loop
      vertex 3.9968e-15 725 1407
      vertex -250 725 1150
      vertex -250 725 1425
    endloop
  endfacet
  facet normal 0 -1 0
    outer loop
      vertex -250 225 1407
      vertex -250 225 1150
      vertex 3.9968e-15 225 1407
    endloop
  endfacet
  facet normal 0 -1 0
    outer loop
      vertex 3.9968e-15 225 1407
      vertex 250 225 1425
      vertex -1.10218e-15 225 1425
    endloop
  endfacet
  facet normal 0 -1 0
    outer loop
      vertex 250 225 1150
      vertex 3.9968e-15 225 1407
      vertex -250 225 1150
    endloop
  endfacet
  facet normal 0 -1 0
    outer loop
      vertex 3.9968e-15 225 1407
      vertex 250 225 1150
      vertex 250 225 1425
    endloop
  endfacet
  facet normal 0 0 0
    outer loop
      vertex -250 225 1407
      vertex -250 225 1425
      vertex -250 225 1150
    endloop
  endfacet
  facet normal -0 0 1
    outer loop
      vertex -250 225 1150
      vertex 250 145 1150
      vertex 250 225 1150
    endloop
  endfacet
  facet normal 0 0 1
    outer loop
      vertex 250 145 1150
      vertex -250 225 1150
      vertex -250 145 1150
    endloop
  endfacet
  facet normal 0 -1 0
    outer loop
      vertex -250 145 1150
      vertex -232 145 1132
      vertex 250 145 1150
    endloop
  endfacet
  facet normal 0 -1 0
    outer loop
      vertex -250 145 1150
      vertex -232 145 668
      vertex -232 145 1132
    endloop
  endfacet
  facet normal 0 -1 -0
    outer loop
      vertex -232 145 668
      vertex -250 145 650
      vertex 232 145 668
    endloop
  endfacet
  facet normal 0 -1 0
    outer loop
      vertex -250 145 650
      vertex -232 145 668
      vertex -250 145 1150
    endloop
  endfacet
  facet normal 0 -1 0
    outer loop
      vertex 232 145 1132
      vertex 250 145 1150
      vertex -232 145 1132
    endloop
  endfacet
  facet normal 0 -1 0
    outer loop
      vertex 232 145 668
      vertex 250 145 1150
      vertex 232 145 1132
    endloop
  endfacet
  facet normal 0 -1 0
    outer loop
      vertex 232 145 668
      vertex 250 145 650
      vertex 250 145 1150
    endloop
  endfacet
  facet normal 0 -1 0
    outer loop
      vertex 250 145 650
      vertex 232 145 668
      vertex -250 145 650
    endloop
  endfacet
  facet normal 0 0 -1
    outer loop
      vertex -250 145 650
      vertex 250 225 650
      vertex 250 145 650
    endloop
  endfacet
  facet normal -0 0 -1
    outer loop
      vertex 250 225 650
      vertex -250 145 650
      vertex -250 225 650
    endloop
  endfacet
  facet normal 0 0.707107 -0.707107
    outer loop
      vertex 241 500 925
      vertex 250 725 1150
      vertex 250 500 925
    endloop
  endfacet
  facet normal 0 0.707107 -0.707107
    outer loop
      vertex 250 725 1150
      vertex 241 500 925
      vertex -250 725 1150
    endloop
  endfacet
  facet normal 0 0.707107 -0.707107
    outer loop
      vertex -241 500 925
      vertex -250 725 1150
      vertex 241 500 925
    endloop
  endfacet
  facet normal 0 0.707107 -0.707107
    outer loop
      vertex -250 725 1150
      vertex -241 500 925
      vertex -250 500 925
    endloop
  endfacet
  facet normal 0 0.707107 -0.707107
    outer loop
      vertex 250 225 650
      vertex -250 482 907
      vertex 250 482 907
    endloop
  endfacet
  facet normal 0 0.707107 -0.707107
    outer loop
      vertex -250 482 907
      vertex 250 225 650
      vertex -250 225 650
    endloop
  endfacet
  facet normal 1 -0 0
    outer loop
      vertex -232 243 1407
      vertex -232 707 1150
      vertex -232 707 1407
    endloop
  endfacet
  facet normal 1 0 0
    outer loop
      vertex -232 243 1132
      vertex -232 707 1150
      vertex -232 243 1407
    endloop
  endfacet
  facet normal 1 -0 0
    outer loop
      vertex -232 243 1132
      vertex -232 225 668
      vertex -232 707 1150
    endloop
  endfacet
  facet normal 1 -0 0
    outer loop
      vertex -232 145 1132
      vertex -232 225 668
      vertex -232 243 1132
    endloop
  endfacet
  facet normal 1 0 0
    outer loop
      vertex -232 225 668
      vertex -232 145 1132
      vertex -232 145 668
    endloop
  endfacet
  facet normal -1 0 0
    outer loop
      vertex 232 243 1407
      vertex 232 707 1150
      vertex 232 243 1132
    endloop
  endfacet
  facet normal -1 0 0
    outer loop
      vertex 232 225 668
      vertex 232 243 1132
      vertex 232 707 1150
    endloop
  endfacet
  facet normal -1 0 0
    outer loop
      vertex 232 145 1132
      vertex 232 225 668
      vertex 232 145 668
    endloop
  endfacet
  facet normal -1 0 0
    outer loop
      vertex 232 225 668
      vertex 232 145 1132
      vertex 232 243 1132
    endloop
  endfacet
  facet normal -1 0 0
    outer loop
      vertex 232 707 1150
      vertex 232 243 1407
      vertex 232 707 1425
    endloop
  endfacet
  facet normal -1 -0 0
    outer loop
      vertex 232 707 1425
      vertex 232 243 1407
      vertex 232 243 1425
    endloop
  endfacet
  facet normal 0 -1 0
    outer loop
      vertex 3.9968e-15 707 1407
      vertex 232 707 1425
      vertex -1.10218e-15 707 1425
    endloop
  endfacet
  facet normal 0 -1 0
    outer loop
      vertex 232 707 1150
      vertex 3.9968e-15 707 1407
      vertex -232 707 1150
    endloop
  endfacet
  facet normal 0 -1 0
    outer loop
      vertex 3.9968e-15 707 1407
      vertex 232 707 1150
      vertex 232 707 1425
    endloop
  endfacet
  facet normal 0 -1 0
    outer loop
      vertex -232 707 1407
      vertex -232 707 1150
      vertex 3.9968e-15 707 1407
    endloop
  endfacet
  facet normal 0 1 -0
    outer loop
      vertex 232 243 1132
      vertex 3.9968e-15 243 1407
      vertex 232 243 1407
    endloop
  endfacet
  facet normal 0 1 0
    outer loop
      vertex -232 243 1132
      vertex 3.9968e-15 243 1407
      vertex 232 243 1132
    endloop
  endfacet
  facet normal 0 1 0
    outer loop
      vertex 3.9968e-15 243 1407
      vertex -232 243 1132
      vertex -232 243 1407
    endloop
  endfacet
  facet normal 0 1 0
    outer loop
      vertex 3.9968e-15 243 1407
      vertex -232 243 1425
      vertex -1.10218e-15 243 1425
    endloop
  endfacet
  facet normal 0 1 0
    outer loop
      vertex -232 243 1425
      vertex 3.9968e-15 243 1407
      vertex -232 243 1407
    endloop
  endfacet
  facet normal 0 0 -1
    outer loop
      vertex -232 145 1132
      vertex 232 243 1132
      vertex 232 145 1132
    endloop
  endfacet
  facet normal -0 0 -1
    outer loop
      vertex 232 243 1132
      vertex -232 145 1132
      vertex -232 243 1132
    endloop
  endfacet
  facet normal -0 0 1
    outer loop
      vertex -232 225 668
      vertex 232 145 668
      vertex 232 225 668
    endloop
  endfacet
  facet normal 0 0 1
    outer loop
      vertex 232 145 668
      vertex -232 225 668
      vertex -232 145 668
    endloop
  endfacet
  facet normal 0 -0.707107 0.707107
    outer loop
      vertex -232 225 668
      vertex 232 707 1150
      vertex -232 707 1150
    endloop
  endfacet
  facet normal 0 -0.707107 0.707107
    outer loop
      vertex 232 707 1150
      vertex -232 225 668
      vertex 232 225 668
    endloop
  endfacet
  facet normal 1 -0 0
    outer loop
      vertex 250 225 1582
      vertex 250 482 1407
      vertex 250 482 1582
    endloop
  endfacet
  facet normal 1 0 0
    outer loop
      vertex 250 482 1407
      vertex 250 225 1582
      vertex 250 225 1407
    endloop
  endfacet
  facet normal 1 -0 0
    outer loop
      vertex 250 163 2200
      vertex 250 225 1700
      vertex 250 225 2200
    endloop
  endfacet
  facet normal 1 0 0
    outer loop
      vertex 250 225 1700
      vertex 250 163 2200
      vertex 250 163 1700
    endloop
  endfacet
  facet normal 1 0 0
    outer loop
      vertex 250 725 1700
      vertex 250 500 1600
      vertex 250 725 1407
    endloop
  endfacet
  facet normal 1 0 0
    outer loop
      vertex 250 225 2200
      vertex 250 500 1600
      vertex 250 725 1700
    endloop
  endfacet
  facet normal 1 -0 0
    outer loop
      vertex 250 225 1700
      vertex 250 500 1600
      vertex 250 225 2200
    endloop
  endfacet
  facet normal 1 0 0
    outer loop
      vertex 250 500 1600
      vertex 250 225 1700
      vertex 250 225 1600
    endloop
  endfacet
  facet normal 1 0 0
    outer loop
      vertex 250 725 1407
      vertex 250 500 1600
      vertex 250 500 1407
    endloop
  endfacet
  facet normal -1 0 0
    outer loop
      vertex -250 500 1600
      vertex -250 725 1425
      vertex -250 500 1425
    endloop
  endfacet
  facet normal -1 0 0
    outer loop
      vertex -250 725 1425
      vertex -250 500 1600
      vertex -250 725 1700
    endloop
  endfacet
  facet normal -1 0 0
    outer loop
      vertex -250 225 1700
      vertex -250 500 1600
      vertex -250 225 1600
    endloop
  endfacet
  facet normal -1 0 0
    outer loop
      vertex -250 225 2200
      vertex -250 500 1600
      vertex -250 225 1700
    endloop
  endfacet
  facet normal -1 0 0
    outer loop
      vertex -250 500 1600
      vertex -250 225 2200
      vertex -250 725 1700
    endloop
  endfacet
  facet normal -1 0 0
    outer loop
      vertex -250 163 1700
      vertex -250 225 2200
      vertex -250 225 1700
    endloop
  endfacet
  facet normal -1 -0 0
    outer loop
      vertex -250 225 2200
      vertex -250 163 1700
      vertex -250 163 2200
    endloop
  endfacet
  facet normal -1 0 0
    outer loop
      vertex -250 225 1425
      vertex -250 482 1582
      vertex -250 482 1425
    endloop
  endfacet
  facet normal -1 -0 0
    outer loop
      vertex -250 482 1582
      vertex -250 225 1425
      vertex -250 225 1582
    endloop
  endfacet
  facet normal 0 0 0
    outer loop
      vertex -250 225 1425
      vertex -250 225 1407
      vertex -250 225 1582
    endloop
  endfacet
  facet normal 0 1 0
    outer loop
      vertex 250 725 1700
      vertex -1.10218e-15 725 1425
      vertex -250 725 1700
    endloop
  endfacet
  facet normal 0 1 -0
    outer loop
      vertex 250 725 1407
      vertex -1.10218e-15 725 1425
      vertex 250 725 1700
    endloop
  endfacet
  facet normal 0 1 0
    outer loop
      vertex -1.10218e-15 725 1425
      vertex 250 725 1407
      vertex 3.9968e-15 725 1407
    endloop
  endfacet
  facet normal 0 1 0
    outer loop
      vertex -250 725 1700
      vertex -1.10218e-15 725 1425
      vertex -250 725 1425
    endloop
  endfacet
  facet normal 0 -1 0
    outer loop
      vertex -250 225 1582
      vertex -1.10218e-15 225 1425
      vertex 250 225 1582
    endloop
  endfacet
  facet normal 0 -1 0
    outer loop
      vertex -250 225 1407
      vertex -1.10218e-15 225 1425
      vertex -250 225 1582
    endloop
  endfacet
  facet normal 0 -1 -0
    outer loop
      vertex -1.10218e-15 225 1425
      vertex -250 225 1407
      vertex 3.9968e-15 225 1407
    endloop
  endfacet
  facet normal 0 -1 -0
    outer loop
      vertex 250 225 1582
      vertex -1.10218e-15 225 1425
      vertex 250 225 1425
    endloop
  endfacet
  facet normal 0 0 0
    outer loop
      vertex 250 225 1425
      vertex 250 225 1407
      vertex 250 225 1582
    endloop
  endfacet
  facet normal 0 -1 0
    outer loop
      vertex -250 225 1600
      vertex 250 225 1700
      vertex -250 225 1700
    endloop
  endfacet
  facet normal 0 -1 -0
    outer loop
      vertex 250 225 1700
      vertex -250 225 1600
      vertex 250 225 1600
    endloop
  endfacet
  facet normal 0 0 -1
    outer loop
      vertex -250 163 1700
      vertex 250 225 1700
      vertex 250 163 1700
    endloop
  endfacet
  facet normal -0 0 -1
    outer loop
      vertex 250 225 1700
      vertex -250 163 1700
      vertex -250 225 1700
    endloop
  endfacet
  facet normal 0 -1 0
    outer loop
      vertex -300 145 2250
      vertex -232 145 2182
      vertex 300 145 2250
    endloop
  endfacet
  facet normal 0 -1 0
    outer loop
      vertex -300 145 2250
      vertex -232 145 1718
      vertex -232 145 2182
    endloop
  endfacet
  facet normal 0 -1 -0
    outer loop
      vertex -232 145 1718
      vertex -300 145 1650
      vertex 232 145 1718
    endloop
  endfacet
  facet normal 0 -1 0
    outer loop
      vertex -300 145 1650
      vertex -232 145 1718
      vertex -300 145 2250
    endloop
  endfacet
  facet normal 0 -1 0
    outer loop
      vertex 232 145 2182
      vertex 300 145 2250
      vertex -232 145 2182
    endloop
  endfacet
  facet normal 0 -1 0
    outer loop
      vertex 232 145 1718
      vertex 300 145 2250
      vertex 232 145 2182
    endloop
  endfacet
  facet normal 0 -1 0
    outer loop
      vertex 232 145 1718
      vertex 300 145 1650
      vertex 300 145 2250
    endloop
  endfacet
  facet normal 0 -1 0
    outer loop
      vertex 300 145 1650
      vertex 232 145 1718
      vertex -300 145 1650
    endloop
  endfacet
  facet normal -0 0 1
    outer loop
      vertex -250 225 2200
      vertex 250 163 2200
      vertex 250 225 2200
    endloop
  endfacet
  facet normal 0 0 1
    outer loop
      vertex 250 163 2200
      vertex -250 225 2200
      vertex -250 163 2200
    endloop
  endfacet
  facet normal 0 0.707107 0.707107
    outer loop
      vertex 250 725 1700
      vertex -250 225 2200
      vertex 250 225 2200
    endloop
  endfacet
  facet normal 0 0.707107 0.707107
    outer loop
      vertex -250 225 2200
      vertex 250 725 1700
      vertex -250 725 1700
    endloop
  endfacet
  facet normal -1 0 0
    outer loop
      vertex -300 145 1650
      vertex -300 163 2250
      vertex -300 163 1650
    endloop
  endfacet
  facet normal -1 -0 0
    outer loop
      vertex -300 163 2250
      vertex -300 145 1650
      vertex -300 145 2250
    endloop
  endfacet
  facet normal 0 1 0
    outer loop
      vertex 300 163 2250
      vertex 250 163 2200
      vertex -300 163 2250
    endloop
  endfacet
  facet normal 0 1 0
    outer loop
      vertex 300 163 2250
      vertex 250 163 1700
      vertex 250 163 2200
    endloop
  endfacet
  facet normal 0 1 0
    outer loop
      vertex 250 163 1700
      vertex 300 163 1650
      vertex -250 163 1700
    endloop
  endfacet
  facet normal 0 1 -0
    outer loop
      vertex 300 163 1650
      vertex 250 163 1700
      vertex 300 163 2250
    endloop
  endfacet
  facet normal 0 1 -0
    outer loop
      vertex -250 163 2200
      vertex -300 163 2250
      vertex 250 163 2200
    endloop
  endfacet
  facet normal 0 1 -0
    outer loop
      vertex -250 163 1700
      vertex -300 163 2250
      vertex -250 163 2200
    endloop
  endfacet
  facet normal 0 1 0
    outer loop
      vertex -250 163 1700
      vertex -300 163 1650
      vertex -300 163 2250
    endloop
  endfacet
  facet normal 0 1 0
    outer loop
      vertex -300 163 1650
      vertex -250 163 1700
      vertex 300 163 1650
    endloop
  endfacet
  facet normal 0 0 -1
    outer loop
      vertex -300 145 1650
      vertex 300 163 1650
      vertex 300 145 1650
    endloop
  endfacet
  facet normal -0 0 -1
    outer loop
      vertex 300 163 1650
      vertex -300 145 1650
      vertex -300 163 1650
    endloop
  endfacet
  facet normal 1 -0 0
    outer loop
      vertex 300 145 2250
      vertex 300 163 1650
      vertex 300 163 2250
    endloop
  endfacet
  facet normal 1 0 0
    outer loop
      vertex 300 163 1650
      vertex 300 145 2250
      vertex 300 145 1650
    endloop
  endfacet
  facet normal -0 0 1
    outer loop
      vertex -300 163 2250
      vertex 300 145 2250
      vertex 300 163 2250
    endloop
  endfacet
  facet normal 0 0 1
    outer loop
      vertex 300 145 2250
      vertex -300 163 2250
      vertex -300 145 2250
    endloop
  endfacet
  facet normal -1 0 0
    outer loop
      vertex 232 243 1425
      vertex 232 707 1700
      vertex 232 707 1425
    endloop
  endfacet
  facet normal -1 0 0
    outer loop
      vertex 232 243 1718
      vertex 232 707 1700
      vertex 232 243 1425
    endloop
  endfacet
  facet normal -1 0 0
    outer loop
      vertex 232 243 1718
      vertex 232 225 2182
      vertex 232 707 1700
    endloop
  endfacet
  facet normal -1 0 0
    outer loop
      vertex 232 145 1718
      vertex 232 225 2182
      vertex 232 243 1718
    endloop
  endfacet
  facet normal -1 -0 0
    outer loop
      vertex 232 225 2182
      vertex 232 145 1718
      vertex 232 145 2182
    endloop
  endfacet
  facet normal 1 0 0
    outer loop
      vertex -232 243 1425
      vertex -232 707 1700
      vertex -232 243 1718
    endloop
  endfacet
  facet normal 1 0 0
    outer loop
      vertex -232 225 2182
      vertex -232 243 1718
      vertex -232 707 1700
    endloop
  endfacet
  facet normal 1 0 0
    outer loop
      vertex -232 145 1718
      vertex -232 225 2182
      vertex -232 145 2182
    endloop
  endfacet
  facet normal 1 0 0
    outer loop
      vertex -232 225 2182
      vertex -232 145 1718
      vertex -232 243 1718
    endloop
  endfacet
  facet normal 1 0 0
    outer loop
      vertex -232 707 1700
      vertex -232 243 1425
      vertex -232 707 1407
    endloop
  endfacet
  facet normal 1 0 0
    outer loop
      vertex -232 707 1407
      vertex -232 243 1425
      vertex -232 243 1407
    endloop
  endfacet
  facet normal 0 -1 0
    outer loop
      vertex -232 707 1700
      vertex -1.10218e-15 707 1425
      vertex 232 707 1700
    endloop
  endfacet
  facet normal 0 -1 0
    outer loop
      vertex -232 707 1407
      vertex -1.10218e-15 707 1425
      vertex -232 707 1700
    endloop
  endfacet
  facet normal 0 -1 -0
    outer loop
      vertex -1.10218e-15 707 1425
      vertex -232 707 1407
      vertex 3.9968e-15 707 1407
    endloop
  endfacet
  facet normal 0 -1 -0
    outer loop
      vertex 232 707 1700
      vertex -1.10218e-15 707 1425
      vertex 232 707 1425
    endloop
  endfacet
  facet normal 0 1 -0
    outer loop
      vertex 232 243 1407
      vertex -1.10218e-15 243 1425
      vertex 232 243 1425
    endloop
  endfacet
  facet normal 0 1 0
    outer loop
      vertex -1.10218e-15 243 1425
      vertex 232 243 1407
      vertex 3.9968e-15 243 1407
    endloop
  endfacet
  facet normal 0 1 0
    outer loop
      vertex -1.10218e-15 243 1425
      vertex 232 243 1718
      vertex 232 243 1425
    endloop
  endfacet
  facet normal 0 1 0
    outer loop
      vertex 232 243 1718
      vertex -1.10218e-15 243 1425
      vertex -232 243 1718
    endloop
  endfacet
  facet normal 0 1 0
    outer loop
      vertex -232 243 1718
      vertex -1.10218e-15 243 1425
      vertex -232 243 1425
    endloop
  endfacet
  facet normal -0 0 1
    outer loop
      vertex -232 243 1718
      vertex 232 145 1718
      vertex 232 243 1718
    endloop
  endfacet
  facet normal 0 0 1
    outer loop
      vertex 232 145 1718
      vertex -232 243 1718
      vertex -232 145 1718
    endloop
  endfacet
  facet normal 0 0 -1
    outer loop
      vertex -232 145 2182
      vertex 232 225 2182
      vertex 232 145 2182
    endloop
  endfacet
  facet normal -0 0 -1
    outer loop
      vertex 232 225 2182
      vertex -232 145 2182
      vertex -232 225 2182
    endloop
  endfacet
  facet normal 0 -0.707107 -0.707107
    outer loop
      vertex -232 707 1700
      vertex 232 225 2182
      vertex -232 225 2182
    endloop
  endfacet
  facet normal 0 -0.707107 -0.707107
    outer loop
      vertex 232 225 2182
      vertex -232 707 1700
      vertex 232 707 1700
    endloop
  endfacet
  facet normal 1 -0 0
    outer loop
      vertex -241 -500 1.9984e-15
      vertex -241 -41.8981 0
      vertex -241 -41.8981 1.9984e-15
    endloop
  endfacet
  facet normal 1 0 0
    outer loop
      vertex -241 -41.8981 0
      vertex -241 -500 1.9984e-15
      vertex -241 -500 0
    endloop
  endfacet
  facet normal -1 0 0
    outer loop
      vertex 241 -500 0
      vertex 241 -41.8981 1.09024e-13
      vertex 241 -41.8981 0
    endloop
  endfacet
  facet normal -1 -0 0
    outer loop
      vertex 241 -41.8981 1.09024e-13
      vertex 241 -500 0
      vertex 241 -500 1.09024e-13
    endloop
  endfacet
  facet normal 0 -1 0
    outer loop
      vertex -241 -41.8981 0
      vertex 241 -41.8981 1.09024e-13
      vertex -241 -41.8981 1.9984e-15
    endloop
  endfacet
  facet normal 0 -1 -0
    outer loop
      vertex 241 -41.8981 1.09024e-13
      vertex -241 -41.8981 0
      vertex 241 -41.8981 0
    endloop
  endfacet
  facet normal 0 0 -1
    outer loop
      vertex -350 -302.25 1252.25
      vertex -332 302.25 1252.25
      vertex -332 -302.25 1252.25
    endloop
  endfacet
  facet normal -0 0 -1
    outer loop
      vertex -332 302.25 1252.25
      vertex -350 -302.25 1252.25
      vertex -350 302.25 1252.25
    endloop
  endfacet
  facet normal 0 -1 0
    outer loop
      vertex -350 302.25 50
      vertex -350 302.25 47.75
      vertex -335.897 302.25 50
    endloop
  endfacet
  facet normal 0 -1 0
    outer loop
      vertex -335.897 302.25 1250
      vertex -350 302.25 1252.25
      vertex -350 302.25 1250
    endloop
  endfacet
  facet normal 0 -1 0
    outer loop
      vertex -350 302.25 1252.25
      vertex -335.897 302.25 1250
      vertex -332 302.25 1252.25
    endloop
  endfacet
  facet normal 0 -1 0
    outer loop
      vertex -335.897 302.25 50
      vertex -332 302.25 1252.25
      vertex -335.897 302.25 1250
    endloop
  endfacet
  facet normal 0 -1 0
    outer loop
      vertex -335.897 302.25 50
      vertex -332 302.25 47.75
      vertex -332 302.25 1252.25
    endloop
  endfacet
  facet normal 0 -1 0
    outer loop
      vertex -332 302.25 47.75
      vertex -335.897 302.25 50
      vertex -350 302.25 47.75
    endloop
  endfacet
  facet normal -0 0 1
    outer loop
      vertex -350 302.25 47.75
      vertex -332 -302.25 47.75
      vertex -332 302.25 47.75
    endloop
  endfacet
  facet normal 0 0 1
    outer loop
      vertex -332 -302.25 47.75
      vertex -350 302.25 47.75
      vertex -350 -302.25 47.75
    endloop
  endfacet
  facet normal 0 1 -0
    outer loop
      vertex -332 -302.25 47.75
      vertex -350 -302.25 1252.25
      vertex -332 -302.25 1252.25
    endloop
  endfacet
  facet normal 0 1 0
    outer loop
      vertex -350 -302.25 1252.25
      vertex -332 -302.25 47.75
      vertex -350 -302.25 47.75
    endloop
  endfacet
  facet normal 0 0 1
    outer loop
      vertex -647.588 -210.615 1250
      vertex -350 302.25 1250
      vertex -350 304.823 1250
    endloop
  endfacet
  facet normal 0 0 1
    outer loop
      vertex -350 302.25 1250
      vertex -647.588 -210.615 1250
      vertex -632 -219.615 1250
    endloop
  endfacet
  facet normal -0 0 1
    outer loop
      vertex -350 302.25 1250
      vertex -332 300 1250
      vertex -335.897 302.25 1250
    endloop
  endfacet
  facet normal 0 0 1
    outer loop
      vertex -332 300 1250
      vertex -350 302.25 1250
      vertex -632 -219.615 1250
    endloop
  endfacet
  facet normal -0.866025 0.5 0
    outer loop
      vertex -647.588 -210.615 50
      vertex -350 304.823 1250
      vertex -350 304.823 50
    endloop
  endfacet
  facet normal -0.866025 0.5 0
    outer loop
      vertex -350 304.823 1250
      vertex -647.588 -210.615 50
      vertex -647.588 -210.615 1250
    endloop
  endfacet
  facet normal 0.866025 -0.5 0
    outer loop
      vertex -632 -219.615 1250
      vertex -332 300 50
      vertex -332 300 1250
    endloop
  endfacet
  facet normal 0.866025 -0.5 0
    outer loop
      vertex -332 300 50
      vertex -632 -219.615 1250
      vertex -632 -219.615 50
    endloop
  endfacet
  facet normal 0.499999 0.866026 -0
    outer loop
      vertex -332 300 50
      vertex -335.897 302.25 1250
      vertex -332 300 1250
    endloop
  endfacet
  facet normal 0.499999 0.866026 0
    outer loop
      vertex -335.897 302.25 1250
      vertex -332 300 50
      vertex -335.897 302.25 50
    endloop
  endfacet
  facet normal 0 0 -1
    outer loop
      vertex -332 300 50
      vertex -350 302.25 50
      vertex -335.897 302.25 50
    endloop
  endfacet
  facet normal 0 0 -1
    outer loop
      vertex -632 -219.615 50
      vertex -350 302.25 50
      vertex -332 300 50
    endloop
  endfacet
  facet normal 0 0 -1
    outer loop
      vertex -647.588 -210.615 50
      vertex -350 302.25 50
      vertex -632 -219.615 50
    endloop
  endfacet
  facet normal -0 0 -1
    outer loop
      vertex -350 302.25 50
      vertex -647.588 -210.615 50
      vertex -350 304.823 50
    endloop
  endfacet
  facet normal -0.5 -0.866025 0
    outer loop
      vertex -647.588 -210.615 50
      vertex -632 -219.615 1250
      vertex -647.588 -210.615 1250
    endloop
  endfacet
  facet normal -0.5 -0.866025 -0
    outer loop
      vertex -632 -219.615 1250
      vertex -647.588 -210.615 50
      vertex -632 -219.615 50
    endloop
  endfacet
endsolid OpenSCAD_Model
