solid OpenSCAD_Model
  facet normal -1 0 0
    outer loop
      vertex -62.5 32.5 82
      vertex -62.5 62.5 -100
      vertex -62.5 32.5 -98
    endloop
  endfacet
  facet normal -1 0 0
    outer loop
      vertex -62.5 62.5 -100
      vertex -62.5 -32.5 -98
      vertex -62.5 32.5 -98
    endloop
  endfacet
  facet normal -1 -0 0
    outer loop
      vertex -62.5 -32.5 -98
      vertex -62.5 -62.5 -100
      vertex -62.5 -32.5 82
    endloop
  endfacet
  facet normal -1 0 0
    outer loop
      vertex -62.5 -62.5 -100
      vertex -62.5 -32.5 -98
      vertex -62.5 62.5 -100
    endloop
  endfacet
  facet normal -1 0 0
    outer loop
      vertex -62.5 62.5 -100
      vertex -62.5 32.5 82
      vertex -62.5 62.5 100
    endloop
  endfacet
  facet normal -1 0 0
    outer loop
      vertex -62.5 -32.5 82
      vertex -62.5 62.5 100
      vertex -62.5 32.5 82
    endloop
  endfacet
  facet normal -1 0 0
    outer loop
      vertex -62.5 -32.5 82
      vertex -62.5 -62.5 100
      vertex -62.5 62.5 100
    endloop
  endfacet
  facet normal -1 0 0
    outer loop
      vertex -62.5 -62.5 100
      vertex -62.5 -32.5 82
      vertex -62.5 -62.5 -100
    endloop
  endfacet
  facet normal 0 0 -1
    outer loop
      vertex -60.5 -60.5 100
      vertex 60.5 60.5 100
      vertex 60.5 -60.5 100
    endloop
  endfacet
  facet normal -0 0 -1
    outer loop
      vertex 60.5 60.5 100
      vertex -60.5 -60.5 100
      vertex -60.5 60.5 100
    endloop
  endfacet
  facet normal 0 0 -1
    outer loop
      vertex 67.5 -67.5 100
      vertex 62.5 -62.5 100
      vertex 67.5 67.5 100
    endloop
  endfacet
  facet normal 0 0 -1
    outer loop
      vertex 67.5 -67.5 100
      vertex -62.5 -62.5 100
      vertex 62.5 -62.5 100
    endloop
  endfacet
  facet normal -0 0 -1
    outer loop
      vertex -62.5 -62.5 100
      vertex -67.5 -67.5 100
      vertex -62.5 62.5 100
    endloop
  endfacet
  facet normal 0 0 -1
    outer loop
      vertex -67.5 -67.5 100
      vertex -62.5 -62.5 100
      vertex 67.5 -67.5 100
    endloop
  endfacet
  facet normal 0 0 -1
    outer loop
      vertex 62.5 62.5 100
      vertex 67.5 67.5 100
      vertex 62.5 -62.5 100
    endloop
  endfacet
  facet normal 0 0 -1
    outer loop
      vertex -62.5 62.5 100
      vertex 67.5 67.5 100
      vertex 62.5 62.5 100
    endloop
  endfacet
  facet normal 0 0 -1
    outer loop
      vertex -62.5 62.5 100
      vertex -67.5 67.5 100
      vertex 67.5 67.5 100
    endloop
  endfacet
  facet normal 0 0 -1
    outer loop
      vertex -67.5 67.5 100
      vertex -62.5 62.5 100
      vertex -67.5 -67.5 100
    endloop
  endfacet
  facet normal 1 -0 0
    outer loop
      vertex 62.5 -62.5 100
      vertex 62.5 62.5 -100
      vertex 62.5 62.5 100
    endloop
  endfacet
  facet normal 1 0 0
    outer loop
      vertex 62.5 62.5 -100
      vertex 62.5 -62.5 100
      vertex 62.5 -62.5 -100
    endloop
  endfacet
  facet normal -0 0 -1
    outer loop
      vertex 53.5 -57.5 -100
      vertex -53.5 -58.5 -100
      vertex -53.5 -57.5 -100
    endloop
  endfacet
  facet normal 0 0 -1
    outer loop
      vertex 53.5 57.5 -100
      vertex -53.5 57.5 -100
      vertex 53.5 58.5 -100
    endloop
  endfacet
  facet normal 0 0 -1
    outer loop
      vertex 57.5 -53.5 -100
      vertex 58.5 53.5 -100
      vertex 58.5 -53.5 -100
    endloop
  endfacet
  facet normal -0 0 -1
    outer loop
      vertex 58.5 53.5 -100
      vertex 57.5 -53.5 -100
      vertex 57.5 53.5 -100
    endloop
  endfacet
  facet normal 0 0 -1
    outer loop
      vertex 58.5 -53.5 -100
      vertex 62.5 -62.5 -100
      vertex 58.5 -58.5 -100
    endloop
  endfacet
  facet normal 0 0 -1
    outer loop
      vertex 62.5 -62.5 -100
      vertex 53.5 -58.5 -100
      vertex 58.5 -58.5 -100
    endloop
  endfacet
  facet normal 0 0 -1
    outer loop
      vertex 53.5 -58.5 -100
      vertex -53.5 -58.5 -100
      vertex 53.5 -57.5 -100
    endloop
  endfacet
  facet normal 0 0 -1
    outer loop
      vertex 62.5 -62.5 -100
      vertex -53.5 -58.5 -100
      vertex 53.5 -58.5 -100
    endloop
  endfacet
  facet normal 0 0 -1
    outer loop
      vertex -62.5 -62.5 -100
      vertex -53.5 -58.5 -100
      vertex 62.5 -62.5 -100
    endloop
  endfacet
  facet normal 0 0 -1
    outer loop
      vertex -62.5 -62.5 -100
      vertex -58.5 -53.5 -100
      vertex -58.5 -58.5 -100
    endloop
  endfacet
  facet normal -0 0 -1
    outer loop
      vertex -58.5 -53.5 -100
      vertex -62.5 -62.5 -100
      vertex -58.5 53.5 -100
    endloop
  endfacet
  facet normal 0 0 -1
    outer loop
      vertex -62.5 62.5 -100
      vertex -58.5 53.5 -100
      vertex -62.5 -62.5 -100
    endloop
  endfacet
  facet normal -0 0 -1
    outer loop
      vertex -53.5 -58.5 -100
      vertex -62.5 -62.5 -100
      vertex -58.5 -58.5 -100
    endloop
  endfacet
  facet normal 0 0 -1
    outer loop
      vertex 62.5 -62.5 -100
      vertex 58.5 -53.5 -100
      vertex 62.5 62.5 -100
    endloop
  endfacet
  facet normal 0 0 -1
    outer loop
      vertex 58.5 53.5 -100
      vertex 62.5 62.5 -100
      vertex 58.5 -53.5 -100
    endloop
  endfacet
  facet normal 0 0 -1
    outer loop
      vertex 58.5 58.5 -100
      vertex 62.5 62.5 -100
      vertex 58.5 53.5 -100
    endloop
  endfacet
  facet normal 0 0 -1
    outer loop
      vertex 53.5 58.5 -100
      vertex 62.5 62.5 -100
      vertex 58.5 58.5 -100
    endloop
  endfacet
  facet normal 0 0 -1
    outer loop
      vertex -53.5 58.5 -100
      vertex 53.5 58.5 -100
      vertex -53.5 57.5 -100
    endloop
  endfacet
  facet normal 0 0 -1
    outer loop
      vertex 53.5 58.5 -100
      vertex -53.5 58.5 -100
      vertex 62.5 62.5 -100
    endloop
  endfacet
  facet normal 0 0 -1
    outer loop
      vertex -62.5 62.5 -100
      vertex -53.5 58.5 -100
      vertex -58.5 58.5 -100
    endloop
  endfacet
  facet normal 0 0 -1
    outer loop
      vertex -53.5 58.5 -100
      vertex -62.5 62.5 -100
      vertex 62.5 62.5 -100
    endloop
  endfacet
  facet normal 0 0 -1
    outer loop
      vertex -58.5 53.5 -100
      vertex -62.5 62.5 -100
      vertex -58.5 58.5 -100
    endloop
  endfacet
  facet normal 0 0 -1
    outer loop
      vertex -58.5 -53.5 -100
      vertex -57.5 53.5 -100
      vertex -57.5 -53.5 -100
    endloop
  endfacet
  facet normal -0 0 -1
    outer loop
      vertex -57.5 53.5 -100
      vertex -58.5 -53.5 -100
      vertex -58.5 53.5 -100
    endloop
  endfacet
  facet normal 0 0 -1
    outer loop
      vertex -56.5 -53.5 -100
      vertex -53.5 53.5 -100
      vertex -53.5 -53.5 -100
    endloop
  endfacet
  facet normal -0 0 -1
    outer loop
      vertex -53.5 53.5 -100
      vertex -56.5 -53.5 -100
      vertex -56.5 53.5 -100
    endloop
  endfacet
  facet normal 0 0 -1
    outer loop
      vertex -53.5 -53.5 -100
      vertex 53.5 -53.5 -100
      vertex 53.5 -56.5 -100
    endloop
  endfacet
  facet normal 0 0 -1
    outer loop
      vertex 53.5 -53.5 -100
      vertex -53.5 -53.5 -100
      vertex 53.5 53.5 -100
    endloop
  endfacet
  facet normal 0 0 -1
    outer loop
      vertex -53.5 -53.5 -100
      vertex 53.5 -56.5 -100
      vertex -53.5 -56.5 -100
    endloop
  endfacet
  facet normal 0 0 -1
    outer loop
      vertex -53.5 53.5 -100
      vertex 53.5 53.5 -100
      vertex -53.5 -53.5 -100
    endloop
  endfacet
  facet normal 0 0 -1
    outer loop
      vertex 53.5 53.5 -100
      vertex -53.5 53.5 -100
      vertex 53.5 56.5 -100
    endloop
  endfacet
  facet normal -0 0 -1
    outer loop
      vertex 53.5 56.5 -100
      vertex -53.5 53.5 -100
      vertex -53.5 56.5 -100
    endloop
  endfacet
  facet normal 0 0 -1
    outer loop
      vertex 53.5 -53.5 -100
      vertex 56.5 53.5 -100
      vertex 56.5 -53.5 -100
    endloop
  endfacet
  facet normal -0 0 -1
    outer loop
      vertex 56.5 53.5 -100
      vertex 53.5 -53.5 -100
      vertex 53.5 53.5 -100
    endloop
  endfacet
  facet normal 0 -1 0
    outer loop
      vertex -62.5 -62.5 -100
      vertex 62.5 -62.5 100
      vertex -62.5 -62.5 100
    endloop
  endfacet
  facet normal 0 -1 -0
    outer loop
      vertex 62.5 -62.5 100
      vertex -62.5 -62.5 -100
      vertex 62.5 -62.5 -100
    endloop
  endfacet
  facet normal 0 1 -0
    outer loop
      vertex 62.5 62.5 -100
      vertex -62.5 62.5 100
      vertex 62.5 62.5 100
    endloop
  endfacet
  facet normal 0 1 0
    outer loop
      vertex -62.5 62.5 100
      vertex 62.5 62.5 -100
      vertex -62.5 62.5 -100
    endloop
  endfacet
  facet normal 1 0 0
    outer loop
      vertex -60.5 60.5 100
      vertex -60.5 32.5 82
      vertex -60.5 60.5 -98
    endloop
  endfacet
  facet normal 1 0 0
    outer loop
      vertex -60.5 60.5 100
      vertex -60.5 -32.5 82
      vertex -60.5 32.5 82
    endloop
  endfacet
  facet normal 1 -0 0
    outer loop
      vertex -60.5 -60.5 100
      vertex -60.5 -32.5 82
      vertex -60.5 60.5 100
    endloop
  endfacet
  facet normal 1 0 0
    outer loop
      vertex -60.5 -60.5 -98
      vertex -60.5 -32.5 82
      vertex -60.5 -60.5 100
    endloop
  endfacet
  facet normal 1 0 0
    outer loop
      vertex -60.5 -32.5 82
      vertex -60.5 -60.5 -98
      vertex -60.5 -32.5 -98
    endloop
  endfacet
  facet normal 1 0 0
    outer loop
      vertex -60.5 60.5 -98
      vertex -60.5 32.5 82
      vertex -60.5 32.5 -98
    endloop
  endfacet
  facet normal -1 0 0
    outer loop
      vertex 60.5 -60.5 -98
      vertex 60.5 60.5 100
      vertex 60.5 60.5 -98
    endloop
  endfacet
  facet normal -1 -0 0
    outer loop
      vertex 60.5 60.5 100
      vertex 60.5 -60.5 -98
      vertex 60.5 -60.5 100
    endloop
  endfacet
  facet normal 0 -1 0
    outer loop
      vertex -60.5 60.5 -98
      vertex 60.5 60.5 100
      vertex -60.5 60.5 100
    endloop
  endfacet
  facet normal 0 -1 -0
    outer loop
      vertex 60.5 60.5 100
      vertex -60.5 60.5 -98
      vertex 60.5 60.5 -98
    endloop
  endfacet
  facet normal -0 0 1
    outer loop
      vertex -62.5 32.5 -98
      vertex -60.5 -32.5 -98
      vertex -60.5 32.5 -98
    endloop
  endfacet
  facet normal 0 0 1
    outer loop
      vertex -60.5 -32.5 -98
      vertex -62.5 32.5 -98
      vertex -62.5 -32.5 -98
    endloop
  endfacet
  facet normal 0 0 1
    outer loop
      vertex -60.5 32.5 -98
      vertex 60.5 60.5 -98
      vertex -60.5 60.5 -98
    endloop
  endfacet
  facet normal 0 0 1
    outer loop
      vertex 60.5 60.5 -98
      vertex -60.5 32.5 -98
      vertex 60.5 -60.5 -98
    endloop
  endfacet
  facet normal -0 0 1
    outer loop
      vertex -60.5 -32.5 -98
      vertex 60.5 -60.5 -98
      vertex -60.5 32.5 -98
    endloop
  endfacet
  facet normal 0 0 1
    outer loop
      vertex 60.5 -60.5 -98
      vertex -60.5 -32.5 -98
      vertex -60.5 -60.5 -98
    endloop
  endfacet
  facet normal 0 1 -0
    outer loop
      vertex 60.5 -60.5 -98
      vertex -60.5 -60.5 100
      vertex 60.5 -60.5 100
    endloop
  endfacet
  facet normal 0 1 0
    outer loop
      vertex -60.5 -60.5 100
      vertex 60.5 -60.5 -98
      vertex -60.5 -60.5 -98
    endloop
  endfacet
  facet normal 0 0 -1
    outer loop
      vertex -62.5 -32.5 82
      vertex -60.5 32.5 82
      vertex -60.5 -32.5 82
    endloop
  endfacet
  facet normal -0 0 -1
    outer loop
      vertex -60.5 32.5 82
      vertex -62.5 -32.5 82
      vertex -62.5 32.5 82
    endloop
  endfacet
  facet normal 0 -1 0
    outer loop
      vertex -62.5 32.5 -98
      vertex -60.5 32.5 82
      vertex -62.5 32.5 82
    endloop
  endfacet
  facet normal 0 -1 -0
    outer loop
      vertex -60.5 32.5 82
      vertex -62.5 32.5 -98
      vertex -60.5 32.5 -98
    endloop
  endfacet
  facet normal 0 1 -0
    outer loop
      vertex -60.5 -32.5 -98
      vertex -62.5 -32.5 82
      vertex -60.5 -32.5 82
    endloop
  endfacet
  facet normal 0 1 0
    outer loop
      vertex -62.5 -32.5 82
      vertex -60.5 -32.5 -98
      vertex -62.5 -32.5 -98
    endloop
  endfacet
  facet normal -1 0 0
    outer loop
      vertex -57.5 -53.5 -107.75
      vertex -57.5 53.5 -100
      vertex -57.5 53.5 -107.75
    endloop
  endfacet
  facet normal -1 -0 0
    outer loop
      vertex -57.5 53.5 -100
      vertex -57.5 -53.5 -107.75
      vertex -57.5 -53.5 -100
    endloop
  endfacet
  facet normal 1 -0 0
    outer loop
      vertex 57.5 -53.5 -100
      vertex 57.5 53.5 -107.75
      vertex 57.5 53.5 -100
    endloop
  endfacet
  facet normal 1 0 0
    outer loop
      vertex 57.5 53.5 -107.75
      vertex 57.5 -53.5 -100
      vertex 57.5 -53.5 -107.75
    endloop
  endfacet
  facet normal 0 0 -1
    outer loop
      vertex -53.5 56.5 -107.75
      vertex 53.5 57.5 -107.75
      vertex 53.5 56.5 -107.75
    endloop
  endfacet
  facet normal -0 0 -1
    outer loop
      vertex 53.5 57.5 -107.75
      vertex -53.5 56.5 -107.75
      vertex -53.5 57.5 -107.75
    endloop
  endfacet
  facet normal 0 0 -1
    outer loop
      vertex 56.5 -53.5 -107.75
      vertex 57.5 53.5 -107.75
      vertex 57.5 -53.5 -107.75
    endloop
  endfacet
  facet normal -0 0 -1
    outer loop
      vertex 57.5 53.5 -107.75
      vertex 56.5 -53.5 -107.75
      vertex 56.5 53.5 -107.75
    endloop
  endfacet
  facet normal 0 0 -1
    outer loop
      vertex -57.5 -53.5 -107.75
      vertex -56.5 53.5 -107.75
      vertex -56.5 -53.5 -107.75
    endloop
  endfacet
  facet normal -0 0 -1
    outer loop
      vertex -56.5 53.5 -107.75
      vertex -57.5 -53.5 -107.75
      vertex -57.5 53.5 -107.75
    endloop
  endfacet
  facet normal 0 0 -1
    outer loop
      vertex -53.5 -57.5 -107.75
      vertex 53.5 -56.5 -107.75
      vertex 53.5 -57.5 -107.75
    endloop
  endfacet
  facet normal -0 0 -1
    outer loop
      vertex 53.5 -56.5 -107.75
      vertex -53.5 -57.5 -107.75
      vertex -53.5 -56.5 -107.75
    endloop
  endfacet
  facet normal 0 -1 0
    outer loop
      vertex -53.5 -57.5 -107.75
      vertex 53.5 -57.5 -100
      vertex -53.5 -57.5 -100
    endloop
  endfacet
  facet normal 0 -1 -0
    outer loop
      vertex 53.5 -57.5 -100
      vertex -53.5 -57.5 -107.75
      vertex 53.5 -57.5 -107.75
    endloop
  endfacet
  facet normal 0 1 -0
    outer loop
      vertex 53.5 57.5 -107.75
      vertex -53.5 57.5 -100
      vertex 53.5 57.5 -100
    endloop
  endfacet
  facet normal 0 1 0
    outer loop
      vertex -53.5 57.5 -100
      vertex 53.5 57.5 -107.75
      vertex -53.5 57.5 -107.75
    endloop
  endfacet
  facet normal 1 -0 0
    outer loop
      vertex -56.5 -53.5 -100
      vertex -56.5 53.5 -107.75
      vertex -56.5 53.5 -100
    endloop
  endfacet
  facet normal 1 0 0
    outer loop
      vertex -56.5 53.5 -107.75
      vertex -56.5 -53.5 -100
      vertex -56.5 -53.5 -107.75
    endloop
  endfacet
  facet normal -1 0 0
    outer loop
      vertex 56.5 -53.5 -107.75
      vertex 56.5 53.5 -100
      vertex 56.5 53.5 -107.75
    endloop
  endfacet
  facet normal -1 -0 0
    outer loop
      vertex 56.5 53.5 -100
      vertex 56.5 -53.5 -107.75
      vertex 56.5 -53.5 -100
    endloop
  endfacet
  facet normal 0 1 -0
    outer loop
      vertex 53.5 -56.5 -107.75
      vertex -53.5 -56.5 -100
      vertex 53.5 -56.5 -100
    endloop
  endfacet
  facet normal 0 1 0
    outer loop
      vertex -53.5 -56.5 -100
      vertex 53.5 -56.5 -107.75
      vertex -53.5 -56.5 -107.75
    endloop
  endfacet
  facet normal 0 -1 0
    outer loop
      vertex -53.5 56.5 -107.75
      vertex 53.5 56.5 -100
      vertex -53.5 56.5 -100
    endloop
  endfacet
  facet normal 0 -1 -0
    outer loop
      vertex 53.5 56.5 -100
      vertex -53.5 56.5 -107.75
      vertex 53.5 56.5 -107.75
    endloop
  endfacet
  facet normal -1 0 0
    outer loop
      vertex 53.5 58.5 -114.75
      vertex 53.5 57.5 -107.75
      vertex 53.5 58.5 -100
    endloop
  endfacet
  facet normal -1 0 0
    outer loop
      vertex 53.5 58.5 -114.75
      vertex 53.5 56.5 -107.75
      vertex 53.5 57.5 -107.75
    endloop
  endfacet
  facet normal -1 0 0
    outer loop
      vertex 53.5 53.5 -114.75
      vertex 53.5 56.5 -107.75
      vertex 53.5 58.5 -114.75
    endloop
  endfacet
  facet normal -1 0 0
    outer loop
      vertex 53.5 53.5 -100
      vertex 53.5 56.5 -107.75
      vertex 53.5 53.5 -114.75
    endloop
  endfacet
  facet normal -1 0 0
    outer loop
      vertex 53.5 56.5 -107.75
      vertex 53.5 53.5 -100
      vertex 53.5 56.5 -100
    endloop
  endfacet
  facet normal -1 -0 0
    outer loop
      vertex 53.5 58.5 -100
      vertex 53.5 57.5 -107.75
      vertex 53.5 57.5 -100
    endloop
  endfacet
  facet normal 1 -0 0
    outer loop
      vertex 58.5 53.5 -100
      vertex 58.5 58.5 -114.75
      vertex 58.5 58.5 -100
    endloop
  endfacet
  facet normal 1 0 0
    outer loop
      vertex 58.5 58.5 -114.75
      vertex 58.5 53.5 -100
      vertex 58.5 53.5 -114.75
    endloop
  endfacet
  facet normal 0 0 -1
    outer loop
      vertex 53.5 53.5 -114.75
      vertex 58.5 58.5 -114.75
      vertex 58.5 53.5 -114.75
    endloop
  endfacet
  facet normal -0 0 -1
    outer loop
      vertex 58.5 58.5 -114.75
      vertex 53.5 53.5 -114.75
      vertex 53.5 58.5 -114.75
    endloop
  endfacet
  facet normal 0 -1 0
    outer loop
      vertex 53.5 53.5 -100
      vertex 56.5 53.5 -107.75
      vertex 56.5 53.5 -100
    endloop
  endfacet
  facet normal 0 -1 0
    outer loop
      vertex 58.5 53.5 -114.75
      vertex 56.5 53.5 -107.75
      vertex 53.5 53.5 -114.75
    endloop
  endfacet
  facet normal 0 -1 0
    outer loop
      vertex 53.5 53.5 -114.75
      vertex 56.5 53.5 -107.75
      vertex 53.5 53.5 -100
    endloop
  endfacet
  facet normal 0 -1 0
    outer loop
      vertex 57.5 53.5 -107.75
      vertex 58.5 53.5 -100
      vertex 57.5 53.5 -100
    endloop
  endfacet
  facet normal 0 -1 0
    outer loop
      vertex 57.5 53.5 -107.75
      vertex 58.5 53.5 -114.75
      vertex 58.5 53.5 -100
    endloop
  endfacet
  facet normal 0 -1 0
    outer loop
      vertex 56.5 53.5 -107.75
      vertex 58.5 53.5 -114.75
      vertex 57.5 53.5 -107.75
    endloop
  endfacet
  facet normal 0 1 -0
    outer loop
      vertex 58.5 58.5 -114.75
      vertex 53.5 58.5 -100
      vertex 58.5 58.5 -100
    endloop
  endfacet
  facet normal 0 1 0
    outer loop
      vertex 53.5 58.5 -100
      vertex 58.5 58.5 -114.75
      vertex 53.5 58.5 -114.75
    endloop
  endfacet
  facet normal -1 0 0
    outer loop
      vertex -58.5 53.5 -114.75
      vertex -58.5 58.5 -100
      vertex -58.5 58.5 -114.75
    endloop
  endfacet
  facet normal -1 -0 0
    outer loop
      vertex -58.5 58.5 -100
      vertex -58.5 53.5 -114.75
      vertex -58.5 53.5 -100
    endloop
  endfacet
  facet normal 1 0 0
    outer loop
      vertex -53.5 56.5 -100
      vertex -53.5 53.5 -100
      vertex -53.5 56.5 -107.75
    endloop
  endfacet
  facet normal 1 0 0
    outer loop
      vertex -53.5 57.5 -107.75
      vertex -53.5 58.5 -100
      vertex -53.5 57.5 -100
    endloop
  endfacet
  facet normal 1 0 0
    outer loop
      vertex -53.5 58.5 -100
      vertex -53.5 57.5 -107.75
      vertex -53.5 58.5 -114.75
    endloop
  endfacet
  facet normal 1 -0 0
    outer loop
      vertex -53.5 56.5 -107.75
      vertex -53.5 58.5 -114.75
      vertex -53.5 57.5 -107.75
    endloop
  endfacet
  facet normal 1 0 0
    outer loop
      vertex -53.5 53.5 -114.75
      vertex -53.5 56.5 -107.75
      vertex -53.5 53.5 -100
    endloop
  endfacet
  facet normal 1 0 0
    outer loop
      vertex -53.5 56.5 -107.75
      vertex -53.5 53.5 -114.75
      vertex -53.5 58.5 -114.75
    endloop
  endfacet
  facet normal 0 1 -0
    outer loop
      vertex -53.5 58.5 -114.75
      vertex -58.5 58.5 -100
      vertex -53.5 58.5 -100
    endloop
  endfacet
  facet normal 0 1 0
    outer loop
      vertex -58.5 58.5 -100
      vertex -53.5 58.5 -114.75
      vertex -58.5 58.5 -114.75
    endloop
  endfacet
  facet normal 0 0 -1
    outer loop
      vertex -58.5 53.5 -114.75
      vertex -53.5 58.5 -114.75
      vertex -53.5 53.5 -114.75
    endloop
  endfacet
  facet normal -0 0 -1
    outer loop
      vertex -53.5 58.5 -114.75
      vertex -58.5 53.5 -114.75
      vertex -58.5 58.5 -114.75
    endloop
  endfacet
  facet normal 0 -1 0
    outer loop
      vertex -58.5 53.5 -100
      vertex -57.5 53.5 -107.75
      vertex -57.5 53.5 -100
    endloop
  endfacet
  facet normal 0 -1 -0
    outer loop
      vertex -57.5 53.5 -107.75
      vertex -58.5 53.5 -114.75
      vertex -56.5 53.5 -107.75
    endloop
  endfacet
  facet normal 0 -1 0
    outer loop
      vertex -58.5 53.5 -114.75
      vertex -57.5 53.5 -107.75
      vertex -58.5 53.5 -100
    endloop
  endfacet
  facet normal 0 -1 0
    outer loop
      vertex -56.5 53.5 -107.75
      vertex -53.5 53.5 -100
      vertex -56.5 53.5 -100
    endloop
  endfacet
  facet normal 0 -1 0
    outer loop
      vertex -53.5 53.5 -114.75
      vertex -56.5 53.5 -107.75
      vertex -58.5 53.5 -114.75
    endloop
  endfacet
  facet normal 0 -1 0
    outer loop
      vertex -56.5 53.5 -107.75
      vertex -53.5 53.5 -114.75
      vertex -53.5 53.5 -100
    endloop
  endfacet
  facet normal -1 0 0
    outer loop
      vertex -58.5 -58.5 -114.75
      vertex -58.5 -53.5 -100
      vertex -58.5 -53.5 -114.75
    endloop
  endfacet
  facet normal -1 -0 0
    outer loop
      vertex -58.5 -53.5 -100
      vertex -58.5 -58.5 -114.75
      vertex -58.5 -58.5 -100
    endloop
  endfacet
  facet normal 1 0 0
    outer loop
      vertex -53.5 -57.5 -100
      vertex -53.5 -58.5 -100
      vertex -53.5 -57.5 -107.75
    endloop
  endfacet
  facet normal 1 0 0
    outer loop
      vertex -53.5 -56.5 -107.75
      vertex -53.5 -53.5 -100
      vertex -53.5 -56.5 -100
    endloop
  endfacet
  facet normal 1 0 0
    outer loop
      vertex -53.5 -53.5 -100
      vertex -53.5 -56.5 -107.75
      vertex -53.5 -53.5 -114.75
    endloop
  endfacet
  facet normal 1 0 0
    outer loop
      vertex -53.5 -58.5 -114.75
      vertex -53.5 -56.5 -107.75
      vertex -53.5 -57.5 -107.75
    endloop
  endfacet
  facet normal 1 0 0
    outer loop
      vertex -53.5 -56.5 -107.75
      vertex -53.5 -58.5 -114.75
      vertex -53.5 -53.5 -114.75
    endloop
  endfacet
  facet normal 1 0 0
    outer loop
      vertex -53.5 -58.5 -114.75
      vertex -53.5 -57.5 -107.75
      vertex -53.5 -58.5 -100
    endloop
  endfacet
  facet normal 0 1 0
    outer loop
      vertex -53.5 -53.5 -100
      vertex -56.5 -53.5 -107.75
      vertex -56.5 -53.5 -100
    endloop
  endfacet
  facet normal 0 1 0
    outer loop
      vertex -58.5 -53.5 -114.75
      vertex -56.5 -53.5 -107.75
      vertex -53.5 -53.5 -114.75
    endloop
  endfacet
  facet normal 0 1 -0
    outer loop
      vertex -53.5 -53.5 -114.75
      vertex -56.5 -53.5 -107.75
      vertex -53.5 -53.5 -100
    endloop
  endfacet
  facet normal 0 1 -0
    outer loop
      vertex -57.5 -53.5 -107.75
      vertex -58.5 -53.5 -100
      vertex -57.5 -53.5 -100
    endloop
  endfacet
  facet normal 0 1 0
    outer loop
      vertex -57.5 -53.5 -107.75
      vertex -58.5 -53.5 -114.75
      vertex -58.5 -53.5 -100
    endloop
  endfacet
  facet normal 0 1 0
    outer loop
      vertex -56.5 -53.5 -107.75
      vertex -58.5 -53.5 -114.75
      vertex -57.5 -53.5 -107.75
    endloop
  endfacet
  facet normal 0 0 -1
    outer loop
      vertex -58.5 -58.5 -114.75
      vertex -53.5 -53.5 -114.75
      vertex -53.5 -58.5 -114.75
    endloop
  endfacet
  facet normal -0 0 -1
    outer loop
      vertex -53.5 -53.5 -114.75
      vertex -58.5 -58.5 -114.75
      vertex -58.5 -53.5 -114.75
    endloop
  endfacet
  facet normal 0 -1 0
    outer loop
      vertex -58.5 -58.5 -114.75
      vertex -53.5 -58.5 -100
      vertex -58.5 -58.5 -100
    endloop
  endfacet
  facet normal 0 -1 -0
    outer loop
      vertex -53.5 -58.5 -100
      vertex -58.5 -58.5 -114.75
      vertex -53.5 -58.5 -114.75
    endloop
  endfacet
  facet normal -1 0 0
    outer loop
      vertex 53.5 -53.5 -114.75
      vertex 53.5 -56.5 -107.75
      vertex 53.5 -53.5 -100
    endloop
  endfacet
  facet normal -1 0 0
    outer loop
      vertex 53.5 -58.5 -114.75
      vertex 53.5 -56.5 -107.75
      vertex 53.5 -53.5 -114.75
    endloop
  endfacet
  facet normal -1 -0 0
    outer loop
      vertex 53.5 -56.5 -107.75
      vertex 53.5 -58.5 -114.75
      vertex 53.5 -57.5 -107.75
    endloop
  endfacet
  facet normal -1 0 0
    outer loop
      vertex 53.5 -58.5 -100
      vertex 53.5 -57.5 -107.75
      vertex 53.5 -58.5 -114.75
    endloop
  endfacet
  facet normal -1 0 0
    outer loop
      vertex 53.5 -57.5 -107.75
      vertex 53.5 -58.5 -100
      vertex 53.5 -57.5 -100
    endloop
  endfacet
  facet normal -1 -0 0
    outer loop
      vertex 53.5 -53.5 -100
      vertex 53.5 -56.5 -107.75
      vertex 53.5 -56.5 -100
    endloop
  endfacet
  facet normal 1 -0 0
    outer loop
      vertex 58.5 -58.5 -100
      vertex 58.5 -53.5 -114.75
      vertex 58.5 -53.5 -100
    endloop
  endfacet
  facet normal 1 0 0
    outer loop
      vertex 58.5 -53.5 -114.75
      vertex 58.5 -58.5 -100
      vertex 58.5 -58.5 -114.75
    endloop
  endfacet
  facet normal 0 1 0
    outer loop
      vertex 58.5 -53.5 -100
      vertex 57.5 -53.5 -107.75
      vertex 57.5 -53.5 -100
    endloop
  endfacet
  facet normal 0 1 0
    outer loop
      vertex 57.5 -53.5 -107.75
      vertex 58.5 -53.5 -114.75
      vertex 56.5 -53.5 -107.75
    endloop
  endfacet
  facet normal 0 1 -0
    outer loop
      vertex 58.5 -53.5 -114.75
      vertex 57.5 -53.5 -107.75
      vertex 58.5 -53.5 -100
    endloop
  endfacet
  facet normal 0 1 -0
    outer loop
      vertex 56.5 -53.5 -107.75
      vertex 53.5 -53.5 -100
      vertex 56.5 -53.5 -100
    endloop
  endfacet
  facet normal 0 1 0
    outer loop
      vertex 53.5 -53.5 -114.75
      vertex 56.5 -53.5 -107.75
      vertex 58.5 -53.5 -114.75
    endloop
  endfacet
  facet normal 0 1 0
    outer loop
      vertex 56.5 -53.5 -107.75
      vertex 53.5 -53.5 -114.75
      vertex 53.5 -53.5 -100
    endloop
  endfacet
  facet normal 0 0 -1
    outer loop
      vertex 53.5 -58.5 -114.75
      vertex 58.5 -53.5 -114.75
      vertex 58.5 -58.5 -114.75
    endloop
  endfacet
  facet normal -0 0 -1
    outer loop
      vertex 58.5 -53.5 -114.75
      vertex 53.5 -58.5 -114.75
      vertex 53.5 -53.5 -114.75
    endloop
  endfacet
  facet normal 0 -1 0
    outer loop
      vertex 53.5 -58.5 -114.75
      vertex 58.5 -58.5 -100
      vertex 53.5 -58.5 -100
    endloop
  endfacet
  facet normal 0 -1 -0
    outer loop
      vertex 58.5 -58.5 -100
      vertex 53.5 -58.5 -114.75
      vertex 58.5 -58.5 -114.75
    endloop
  endfacet
  facet normal -1 0 0
    outer loop
      vertex -67.5 -67.5 100
      vertex -67.5 67.5 104
      vertex -67.5 67.5 100
    endloop
  endfacet
  facet normal -1 -0 0
    outer loop
      vertex -67.5 67.5 104
      vertex -67.5 -67.5 100
      vertex -67.5 -67.5 104
    endloop
  endfacet
  facet normal -0 0 1
    outer loop
      vertex -67.5 67.5 104
      vertex 67.5 -67.5 104
      vertex 67.5 67.5 104
    endloop
  endfacet
  facet normal 0 0 1
    outer loop
      vertex 67.5 -67.5 104
      vertex -67.5 67.5 104
      vertex -67.5 -67.5 104
    endloop
  endfacet
  facet normal 1 -0 0
    outer loop
      vertex 67.5 -67.5 104
      vertex 67.5 67.5 100
      vertex 67.5 67.5 104
    endloop
  endfacet
  facet normal 1 0 0
    outer loop
      vertex 67.5 67.5 100
      vertex 67.5 -67.5 104
      vertex 67.5 -67.5 100
    endloop
  endfacet
  facet normal 0 -1 0
    outer loop
      vertex -67.5 -67.5 100
      vertex 67.5 -67.5 104
      vertex -67.5 -67.5 104
    endloop
  endfacet
  facet normal 0 -1 -0
    outer loop
      vertex 67.5 -67.5 104
      vertex -67.5 -67.5 100
      vertex 67.5 -67.5 100
    endloop
  endfacet
  facet normal 0 1 -0
    outer loop
      vertex 67.5 67.5 100
      vertex -67.5 67.5 104
      vertex 67.5 67.5 104
    endloop
  endfacet
  facet normal 0 1 0
    outer loop
      vertex -67.5 67.5 104
      vertex 67.5 67.5 100
      vertex -67.5 67.5 100
    endloop
  endfacet
endsolid OpenSCAD_Model
