solid OpenSCAD_Model
  facet normal -1 0 0
    outer loop
      vertex -675 -675 1000
      vertex -675 675 1040
      vertex -675 675 1000
    endloop
  endfacet
  facet normal -1 -0 0
    outer loop
      vertex -675 675 1040
      vertex -675 -675 1000
      vertex -675 -675 1040
    endloop
  endfacet
  facet normal -0 0 1
    outer loop
      vertex -353.553 190.919 1040
      vertex -190.919 -353.553 1040
      vertex -190.919 353.553 1040
    endloop
  endfacet
  facet normal 0 0 1
    outer loop
      vertex -353.553 190.919 1040
      vertex -353.553 -190.919 1040
      vertex -190.919 -353.553 1040
    endloop
  endfacet
  facet normal 0 0 1
    outer loop
      vertex -516.188 353.553 1040
      vertex -353.553 -190.919 1040
      vertex -353.553 190.919 1040
    endloop
  endfacet
  facet normal 0 0 1
    outer loop
      vertex -353.553 -190.919 1040
      vertex -516.188 353.553 1040
      vertex -516.188 -353.553 1040
    endloop
  endfacet
  facet normal -0 0 1
    outer loop
      vertex 353.553 190.919 1040
      vertex 516.188 -353.553 1040
      vertex 516.188 353.553 1040
    endloop
  endfacet
  facet normal 0 0 1
    outer loop
      vertex 353.553 190.919 1040
      vertex 353.553 -190.919 1040
      vertex 516.188 -353.553 1040
    endloop
  endfacet
  facet normal 0 0 1
    outer loop
      vertex 190.919 353.553 1040
      vertex 353.553 -190.919 1040
      vertex 353.553 190.919 1040
    endloop
  endfacet
  facet normal 0 0 1
    outer loop
      vertex 353.553 -190.919 1040
      vertex 190.919 353.553 1040
      vertex 190.919 -353.553 1040
    endloop
  endfacet
  facet normal 0 0 1
    outer loop
      vertex 675 675 1040
      vertex 516.188 353.553 1040
      vertex 675 -675 1040
    endloop
  endfacet
  facet normal 0 0 1
    outer loop
      vertex 675 675 1040
      vertex 353.553 516.188 1040
      vertex 516.188 353.553 1040
    endloop
  endfacet
  facet normal 0 0 1
    outer loop
      vertex 190.919 353.553 1040
      vertex -190.919 353.553 1040
      vertex 190.919 -353.553 1040
    endloop
  endfacet
  facet normal 0 0 1
    outer loop
      vertex 353.553 516.188 1040
      vertex -190.919 353.553 1040
      vertex 190.919 353.553 1040
    endloop
  endfacet
  facet normal 0 0 1
    outer loop
      vertex -353.553 516.188 1040
      vertex 353.553 516.188 1040
      vertex 675 675 1040
    endloop
  endfacet
  facet normal 0 0 1
    outer loop
      vertex 353.553 516.188 1040
      vertex -353.553 516.188 1040
      vertex -190.919 353.553 1040
    endloop
  endfacet
  facet normal 0 0 1
    outer loop
      vertex -516.188 353.553 1040
      vertex -675 675 1040
      vertex -516.188 -353.553 1040
    endloop
  endfacet
  facet normal 0 0 1
    outer loop
      vertex -353.553 516.188 1040
      vertex -675 675 1040
      vertex -516.188 353.553 1040
    endloop
  endfacet
  facet normal -0 0 1
    outer loop
      vertex -675 675 1040
      vertex -353.553 516.188 1040
      vertex 675 675 1040
    endloop
  endfacet
  facet normal -0 0 1
    outer loop
      vertex 516.188 -353.553 1040
      vertex 675 -675 1040
      vertex 516.188 353.553 1040
    endloop
  endfacet
  facet normal -0 0 1
    outer loop
      vertex 353.553 -516.188 1040
      vertex 675 -675 1040
      vertex 516.188 -353.553 1040
    endloop
  endfacet
  facet normal 0 0 1
    outer loop
      vertex -190.919 -353.553 1040
      vertex 190.919 -353.553 1040
      vertex -190.919 353.553 1040
    endloop
  endfacet
  facet normal -0 0 1
    outer loop
      vertex -190.919 -353.553 1040
      vertex 353.553 -516.188 1040
      vertex 190.919 -353.553 1040
    endloop
  endfacet
  facet normal 0 0 1
    outer loop
      vertex -353.553 -516.188 1040
      vertex 353.553 -516.188 1040
      vertex -190.919 -353.553 1040
    endloop
  endfacet
  facet normal 0 0 1
    outer loop
      vertex 353.553 -516.188 1040
      vertex -353.553 -516.188 1040
      vertex 675 -675 1040
    endloop
  endfacet
  facet normal 0 0 1
    outer loop
      vertex -353.553 -516.188 1040
      vertex -675 -675 1040
      vertex 675 -675 1040
    endloop
  endfacet
  facet normal 0 0 1
    outer loop
      vertex -516.188 -353.553 1040
      vertex -675 -675 1040
      vertex -353.553 -516.188 1040
    endloop
  endfacet
  facet normal 0 0 1
    outer loop
      vertex -675 -675 1040
      vertex -516.188 -353.553 1040
      vertex -675 675 1040
    endloop
  endfacet
  facet normal 1 -0 0
    outer loop
      vertex 675 -675 1040
      vertex 675 675 1000
      vertex 675 675 1040
    endloop
  endfacet
  facet normal 1 0 0
    outer loop
      vertex 675 675 1000
      vertex 675 -675 1040
      vertex 675 -675 1000
    endloop
  endfacet
  facet normal 0 1 -0
    outer loop
      vertex 675 675 1000
      vertex -675 675 1040
      vertex 675 675 1040
    endloop
  endfacet
  facet normal 0 1 0
    outer loop
      vertex -675 675 1040
      vertex 675 675 1000
      vertex -675 675 1000
    endloop
  endfacet
  facet normal 0 0 -1
    outer loop
      vertex -353.553 -176.777 1000
      vertex -176.777 353.553 1000
      vertex -176.777 -353.553 1000
    endloop
  endfacet
  facet normal 0 0 -1
    outer loop
      vertex -353.553 -176.777 1000
      vertex -353.553 176.777 1000
      vertex -176.777 353.553 1000
    endloop
  endfacet
  facet normal 0 0 -1
    outer loop
      vertex -530.33 -353.553 1000
      vertex -353.553 176.777 1000
      vertex -353.553 -176.777 1000
    endloop
  endfacet
  facet normal -0 0 -1
    outer loop
      vertex -353.553 176.777 1000
      vertex -530.33 -353.553 1000
      vertex -530.33 353.553 1000
    endloop
  endfacet
  facet normal 0 0 -1
    outer loop
      vertex 353.553 -176.777 1000
      vertex 530.33 353.553 1000
      vertex 530.33 -353.553 1000
    endloop
  endfacet
  facet normal 0 0 -1
    outer loop
      vertex 353.553 -176.777 1000
      vertex 353.553 176.777 1000
      vertex 530.33 353.553 1000
    endloop
  endfacet
  facet normal 0 0 -1
    outer loop
      vertex 176.777 -353.553 1000
      vertex 353.553 176.777 1000
      vertex 353.553 -176.777 1000
    endloop
  endfacet
  facet normal -0 0 -1
    outer loop
      vertex 353.553 176.777 1000
      vertex 176.777 -353.553 1000
      vertex 176.777 353.553 1000
    endloop
  endfacet
  facet normal 0 0 -1
    outer loop
      vertex 605 -605 1000
      vertex 530.33 -353.553 1000
      vertex 605 605 1000
    endloop
  endfacet
  facet normal 0 0 -1
    outer loop
      vertex 605 -605 1000
      vertex 353.553 -530.33 1000
      vertex 530.33 -353.553 1000
    endloop
  endfacet
  facet normal 0 0 -1
    outer loop
      vertex 176.777 -353.553 1000
      vertex -176.777 -353.553 1000
      vertex 176.777 353.553 1000
    endloop
  endfacet
  facet normal 0 0 -1
    outer loop
      vertex 353.553 -530.33 1000
      vertex -176.777 -353.553 1000
      vertex 176.777 -353.553 1000
    endloop
  endfacet
  facet normal 0 0 -1
    outer loop
      vertex 353.553 -530.33 1000
      vertex -353.553 -530.33 1000
      vertex -176.777 -353.553 1000
    endloop
  endfacet
  facet normal 0 0 -1
    outer loop
      vertex 605 -605 1000
      vertex -353.553 -530.33 1000
      vertex 353.553 -530.33 1000
    endloop
  endfacet
  facet normal -0 0 -1
    outer loop
      vertex -530.33 -353.553 1000
      vertex -605 -605 1000
      vertex -530.33 353.553 1000
    endloop
  endfacet
  facet normal -0 0 -1
    outer loop
      vertex -353.553 -530.33 1000
      vertex -605 -605 1000
      vertex -530.33 -353.553 1000
    endloop
  endfacet
  facet normal 0 0 -1
    outer loop
      vertex -605 -605 1000
      vertex -353.553 -530.33 1000
      vertex 605 -605 1000
    endloop
  endfacet
  facet normal 0 0 -1
    outer loop
      vertex 530.33 353.553 1000
      vertex 605 605 1000
      vertex 530.33 -353.553 1000
    endloop
  endfacet
  facet normal 0 0 -1
    outer loop
      vertex 353.553 530.33 1000
      vertex 605 605 1000
      vertex 530.33 353.553 1000
    endloop
  endfacet
  facet normal 0 0 -1
    outer loop
      vertex -176.777 353.553 1000
      vertex 176.777 353.553 1000
      vertex -176.777 -353.553 1000
    endloop
  endfacet
  facet normal 0 0 -1
    outer loop
      vertex -176.777 353.553 1000
      vertex 353.553 530.33 1000
      vertex 176.777 353.553 1000
    endloop
  endfacet
  facet normal 0 0 -1
    outer loop
      vertex -353.553 530.33 1000
      vertex 353.553 530.33 1000
      vertex -176.777 353.553 1000
    endloop
  endfacet
  facet normal 0 0 -1
    outer loop
      vertex -353.553 530.33 1000
      vertex 605 605 1000
      vertex 353.553 530.33 1000
    endloop
  endfacet
  facet normal 0 0 -1
    outer loop
      vertex -353.553 530.33 1000
      vertex -605 605 1000
      vertex 605 605 1000
    endloop
  endfacet
  facet normal 0 0 -1
    outer loop
      vertex -530.33 353.553 1000
      vertex -605 605 1000
      vertex -353.553 530.33 1000
    endloop
  endfacet
  facet normal 0 0 -1
    outer loop
      vertex -605 605 1000
      vertex -530.33 353.553 1000
      vertex -605 -605 1000
    endloop
  endfacet
  facet normal 0 0 -1
    outer loop
      vertex 675 -675 1000
      vertex 625 -625 1000
      vertex 675 675 1000
    endloop
  endfacet
  facet normal 0 0 -1
    outer loop
      vertex 675 -675 1000
      vertex -625 -625 1000
      vertex 625 -625 1000
    endloop
  endfacet
  facet normal -0 0 -1
    outer loop
      vertex -625 -625 1000
      vertex -675 -675 1000
      vertex -625 625 1000
    endloop
  endfacet
  facet normal 0 0 -1
    outer loop
      vertex -675 -675 1000
      vertex -625 -625 1000
      vertex 675 -675 1000
    endloop
  endfacet
  facet normal 0 0 -1
    outer loop
      vertex 625 625 1000
      vertex 675 675 1000
      vertex 625 -625 1000
    endloop
  endfacet
  facet normal 0 0 -1
    outer loop
      vertex -625 625 1000
      vertex 675 675 1000
      vertex 625 625 1000
    endloop
  endfacet
  facet normal 0 0 -1
    outer loop
      vertex -625 625 1000
      vertex -675 675 1000
      vertex 675 675 1000
    endloop
  endfacet
  facet normal 0 0 -1
    outer loop
      vertex -675 675 1000
      vertex -625 625 1000
      vertex -675 -675 1000
    endloop
  endfacet
  facet normal 0 -1 0
    outer loop
      vertex -675 -675 1000
      vertex 675 -675 1040
      vertex -675 -675 1040
    endloop
  endfacet
  facet normal 0 -1 -0
    outer loop
      vertex 675 -675 1040
      vertex -675 -675 1000
      vertex 675 -675 1000
    endloop
  endfacet
  facet normal -0.707107 -0.707107 0
    outer loop
      vertex 516.188 353.553 1000
      vertex 353.553 516.188 1040
      vertex 353.553 516.188 1000
    endloop
  endfacet
  facet normal -0.707107 -0.707107 0
    outer loop
      vertex 353.553 516.188 1040
      vertex 516.188 353.553 1000
      vertex 516.188 353.553 1040
    endloop
  endfacet
  facet normal 0.707107 0.707107 0
    outer loop
      vertex 353.553 190.919 1040
      vertex 190.919 353.553 1000.5
      vertex 190.919 353.553 1040
    endloop
  endfacet
  facet normal 0.707107 0.707107 0
    outer loop
      vertex 190.919 353.553 1000.5
      vertex 353.553 190.919 1040
      vertex 353.553 190.919 1000.5
    endloop
  endfacet
  facet normal -0.707107 0.707107 0
    outer loop
      vertex 353.553 190.919 1000.5
      vertex 516.188 353.553 1000
      vertex 353.553 190.919 1000
    endloop
  endfacet
  facet normal -0.707107 0.707107 0
    outer loop
      vertex 516.188 353.553 1000
      vertex 353.553 190.919 1000.5
      vertex 516.188 353.553 1040
    endloop
  endfacet
  facet normal -0.707107 0.707107 2.73154e-07
    outer loop
      vertex 353.553 190.919 1000.5
      vertex 353.553 190.919 1040
      vertex 516.188 353.553 1040
    endloop
  endfacet
  facet normal 0.707107 -0.707107 2.73154e-07
    outer loop
      vertex 190.919 353.553 1040
      vertex 190.919 353.553 1000.5
      vertex 353.553 516.188 1040
    endloop
  endfacet
  facet normal 0.707107 -0.707107 0
    outer loop
      vertex 353.553 516.188 1000
      vertex 190.919 353.553 1000.5
      vertex 190.919 353.553 1000
    endloop
  endfacet
  facet normal 0.707107 -0.707107 0
    outer loop
      vertex 190.919 353.553 1000.5
      vertex 353.553 516.188 1000
      vertex 353.553 516.188 1040
    endloop
  endfacet
  facet normal 0.707107 -0.707107 0
    outer loop
      vertex -516.188 353.553 1040
      vertex -353.553 516.188 1000
      vertex -353.553 516.188 1040
    endloop
  endfacet
  facet normal 0.707107 -0.707107 0
    outer loop
      vertex -353.553 516.188 1000
      vertex -516.188 353.553 1040
      vertex -516.188 353.553 1000
    endloop
  endfacet
  facet normal -0.707107 -0.707107 2.73154e-07
    outer loop
      vertex -353.553 516.188 1040
      vertex -190.919 353.553 1000.5
      vertex -190.919 353.553 1040
    endloop
  endfacet
  facet normal -0.707107 -0.707107 0
    outer loop
      vertex -353.553 516.188 1000
      vertex -190.919 353.553 1000.5
      vertex -353.553 516.188 1040
    endloop
  endfacet
  facet normal -0.707107 -0.707107 -0
    outer loop
      vertex -190.919 353.553 1000.5
      vertex -353.553 516.188 1000
      vertex -190.919 353.553 1000
    endloop
  endfacet
  facet normal -0.707107 0.707107 0
    outer loop
      vertex -353.553 190.919 1000.5
      vertex -190.919 353.553 1040
      vertex -190.919 353.553 1000.5
    endloop
  endfacet
  facet normal -0.707107 0.707107 0
    outer loop
      vertex -190.919 353.553 1040
      vertex -353.553 190.919 1000.5
      vertex -353.553 190.919 1040
    endloop
  endfacet
  facet normal 0.707107 0.707107 0
    outer loop
      vertex -516.188 353.553 1040
      vertex -353.553 190.919 1000.5
      vertex -516.188 353.553 1000
    endloop
  endfacet
  facet normal 0.707107 0.707107 2.73154e-07
    outer loop
      vertex -353.553 190.919 1040
      vertex -353.553 190.919 1000.5
      vertex -516.188 353.553 1040
    endloop
  endfacet
  facet normal 0.707107 0.707107 0
    outer loop
      vertex -516.188 353.553 1000
      vertex -353.553 190.919 1000.5
      vertex -353.553 190.919 1000
    endloop
  endfacet
  facet normal -0.707107 -0.707107 0
    outer loop
      vertex -190.919 -353.553 1000.5
      vertex -353.553 -190.919 1040
      vertex -353.553 -190.919 1000.5
    endloop
  endfacet
  facet normal -0.707107 -0.707107 0
    outer loop
      vertex -353.553 -190.919 1040
      vertex -190.919 -353.553 1000.5
      vertex -190.919 -353.553 1040
    endloop
  endfacet
  facet normal 0.707107 0.707107 0
    outer loop
      vertex -353.553 -516.188 1040
      vertex -516.188 -353.553 1000
      vertex -516.188 -353.553 1040
    endloop
  endfacet
  facet normal 0.707107 0.707107 0
    outer loop
      vertex -516.188 -353.553 1000
      vertex -353.553 -516.188 1040
      vertex -353.553 -516.188 1000
    endloop
  endfacet
  facet normal 0.707107 -0.707107 2.73154e-07
    outer loop
      vertex -516.188 -353.553 1040
      vertex -353.553 -190.919 1000.5
      vertex -353.553 -190.919 1040
    endloop
  endfacet
  facet normal 0.707107 -0.707107 0
    outer loop
      vertex -516.188 -353.553 1000
      vertex -353.553 -190.919 1000.5
      vertex -516.188 -353.553 1040
    endloop
  endfacet
  facet normal 0.707107 -0.707107 0
    outer loop
      vertex -353.553 -190.919 1000.5
      vertex -516.188 -353.553 1000
      vertex -353.553 -190.919 1000
    endloop
  endfacet
  facet normal -0.707107 0.707107 2.73154e-07
    outer loop
      vertex -190.919 -353.553 1040
      vertex -190.919 -353.553 1000.5
      vertex -353.553 -516.188 1040
    endloop
  endfacet
  facet normal -0.707107 0.707107 0
    outer loop
      vertex -353.553 -516.188 1000
      vertex -190.919 -353.553 1000.5
      vertex -190.919 -353.553 1000
    endloop
  endfacet
  facet normal -0.707107 0.707107 0
    outer loop
      vertex -190.919 -353.553 1000.5
      vertex -353.553 -516.188 1000
      vertex -353.553 -516.188 1040
    endloop
  endfacet
  facet normal 0.707107 -0.707107 0
    outer loop
      vertex 190.919 -353.553 1040
      vertex 353.553 -190.919 1000.5
      vertex 353.553 -190.919 1040
    endloop
  endfacet
  facet normal 0.707107 -0.707107 0
    outer loop
      vertex 353.553 -190.919 1000.5
      vertex 190.919 -353.553 1040
      vertex 190.919 -353.553 1000.5
    endloop
  endfacet
  facet normal -0.707107 0.707107 0
    outer loop
      vertex 353.553 -516.188 1000
      vertex 516.188 -353.553 1040
      vertex 516.188 -353.553 1000
    endloop
  endfacet
  facet normal -0.707107 0.707107 0
    outer loop
      vertex 516.188 -353.553 1040
      vertex 353.553 -516.188 1000
      vertex 353.553 -516.188 1040
    endloop
  endfacet
  facet normal 0.707107 0.707107 2.73154e-07
    outer loop
      vertex 353.553 -516.188 1040
      vertex 190.919 -353.553 1000.5
      vertex 190.919 -353.553 1040
    endloop
  endfacet
  facet normal 0.707107 0.707107 -0
    outer loop
      vertex 353.553 -516.188 1000
      vertex 190.919 -353.553 1000.5
      vertex 353.553 -516.188 1040
    endloop
  endfacet
  facet normal 0.707107 0.707107 0
    outer loop
      vertex 190.919 -353.553 1000.5
      vertex 353.553 -516.188 1000
      vertex 190.919 -353.553 1000
    endloop
  endfacet
  facet normal -0.707107 -0.707107 2.73154e-07
    outer loop
      vertex 516.188 -353.553 1000
      vertex 353.553 -190.919 1040
      vertex 353.553 -190.919 1000.5
    endloop
  endfacet
  facet normal -0.707107 -0.707107 0
    outer loop
      vertex 353.553 -190.919 1040
      vertex 516.188 -353.553 1000
      vertex 516.188 -353.553 1040
    endloop
  endfacet
  facet normal -0.707107 -0.707107 0
    outer loop
      vertex 353.553 -190.919 1000
      vertex 516.188 -353.553 1000
      vertex 353.553 -190.919 1000.5
    endloop
  endfacet
  facet normal -0.707107 0.707107 0
    outer loop
      vertex 353.553 530.33 400.5
      vertex 176.777 353.553 1000
      vertex 353.553 530.33 1000
    endloop
  endfacet
  facet normal -0.707107 0.707107 0
    outer loop
      vertex 353.553 530.33 400.5
      vertex 176.777 353.553 400.5
      vertex 176.777 353.553 1000
    endloop
  endfacet
  facet normal -0.707107 0.707107 0
    outer loop
      vertex 176.777 353.553 150.5
      vertex 176.777 353.553 400.5
      vertex 353.553 530.33 400.5
    endloop
  endfacet
  facet normal -0.707107 0.707107 0
    outer loop
      vertex 176.777 353.553 400.5
      vertex 176.777 353.553 150.5
      vertex 141.068 317.845 400.5
    endloop
  endfacet
  facet normal -0.707107 0.707107 0
    outer loop
      vertex 141.068 317.845 400.5
      vertex 176.777 353.553 150.5
      vertex 141.068 317.845 150.5
    endloop
  endfacet
  facet normal 0.707107 -0.707107 0
    outer loop
      vertex 353.553 176.777 1000
      vertex 530.33 353.553 400.5
      vertex 530.33 353.553 1000
    endloop
  endfacet
  facet normal 0.707107 -0.707107 0
    outer loop
      vertex 353.553 176.777 400.5
      vertex 530.33 353.553 400.5
      vertex 353.553 176.777 1000
    endloop
  endfacet
  facet normal 0.707107 -0.707107 0
    outer loop
      vertex 353.553 176.777 400.5
      vertex 353.553 176.777 150.5
      vertex 530.33 353.553 400.5
    endloop
  endfacet
  facet normal 0.707107 -0.707107 0
    outer loop
      vertex 317.845 141.068 400.5
      vertex 353.553 176.777 150.5
      vertex 353.553 176.777 400.5
    endloop
  endfacet
  facet normal 0.707107 -0.707107 0
    outer loop
      vertex 353.553 176.777 150.5
      vertex 317.845 141.068 400.5
      vertex 317.845 141.068 150.5
    endloop
  endfacet
  facet normal 0.707107 0.707107 0
    outer loop
      vertex 530.33 353.553 1000
      vertex 353.553 530.33 400.5
      vertex 353.553 530.33 1000
    endloop
  endfacet
  facet normal 0.707107 0.707107 0
    outer loop
      vertex 353.553 530.33 400.5
      vertex 530.33 353.553 1000
      vertex 530.33 353.553 400.5
    endloop
  endfacet
  facet normal -0.707107 -0.707107 0
    outer loop
      vertex 353.553 176.777 400.5
      vertex 176.777 353.553 1000
      vertex 176.777 353.553 400.5
    endloop
  endfacet
  facet normal -0.707107 -0.707107 0
    outer loop
      vertex 176.777 353.553 1000
      vertex 353.553 176.777 400.5
      vertex 353.553 176.777 1000
    endloop
  endfacet
  facet normal 0 0 1
    outer loop
      vertex 176.777 353.553 400.5
      vertex 317.845 141.068 400.5
      vertex 353.553 176.777 400.5
    endloop
  endfacet
  facet normal 0 0 1
    outer loop
      vertex 317.845 141.068 400.5
      vertex 176.777 353.553 400.5
      vertex 141.068 317.845 400.5
    endloop
  endfacet
  facet normal -0.707108 -0.707106 0
    outer loop
      vertex 141.068 317.845 150.5
      vertex 148.139 310.773 160.5
      vertex 141.068 317.845 400.5
    endloop
  endfacet
  facet normal -0.707107 -0.707107 -1.07896e-06
    outer loop
      vertex 141.068 317.845 150.5
      vertex 310.773 148.139 160.5
      vertex 148.139 310.773 160.5
    endloop
  endfacet
  facet normal -0.707106 -0.707108 0
    outer loop
      vertex 310.773 148.139 160.5
      vertex 317.845 141.068 150.5
      vertex 310.773 148.139 390.5
    endloop
  endfacet
  facet normal -0.707107 -0.707107 -1.07896e-06
    outer loop
      vertex 317.845 141.068 150.5
      vertex 310.773 148.139 160.5
      vertex 141.068 317.845 150.5
    endloop
  endfacet
  facet normal -0.707108 -0.707106 -0
    outer loop
      vertex 148.139 310.773 390.5
      vertex 141.068 317.845 400.5
      vertex 148.139 310.773 160.5
    endloop
  endfacet
  facet normal -0.707107 -0.707107 1.07896e-06
    outer loop
      vertex 310.773 148.139 390.5
      vertex 141.068 317.845 400.5
      vertex 148.139 310.773 390.5
    endloop
  endfacet
  facet normal -0.707107 -0.707107 1.07896e-06
    outer loop
      vertex 310.773 148.139 390.5
      vertex 317.845 141.068 400.5
      vertex 141.068 317.845 400.5
    endloop
  endfacet
  facet normal -0.707106 -0.707108 -0
    outer loop
      vertex 317.845 141.068 400.5
      vertex 310.773 148.139 390.5
      vertex 317.845 141.068 150.5
    endloop
  endfacet
  facet normal 0 0 -1
    outer loop
      vertex 317.845 141.068 150.5
      vertex 176.777 353.553 150.5
      vertex 353.553 176.777 150.5
    endloop
  endfacet
  facet normal 0 -0 -1
    outer loop
      vertex 176.777 353.553 150.5
      vertex 317.845 141.068 150.5
      vertex 141.068 317.845 150.5
    endloop
  endfacet
  facet normal 0.5 0.5 -0.707107
    outer loop
      vertex 353.553 176.777 150.5
      vertex 353.553 530.33 400.5
      vertex 530.33 353.553 400.5
    endloop
  endfacet
  facet normal 0.5 0.5 -0.707107
    outer loop
      vertex 353.553 530.33 400.5
      vertex 353.553 176.777 150.5
      vertex 176.777 353.553 150.5
    endloop
  endfacet
  facet normal 0.707107 -0.707107 0
    outer loop
      vertex 190.919 353.553 1000
      vertex 353.553 516.188 400.5
      vertex 353.553 516.188 1000
    endloop
  endfacet
  facet normal 0.707107 -0.707107 0
    outer loop
      vertex 190.919 353.553 390.5
      vertex 353.553 516.188 400.5
      vertex 190.919 353.553 1000
    endloop
  endfacet
  facet normal 0.707107 -0.707107 0
    outer loop
      vertex 148.139 310.773 390.5
      vertex 183.848 346.482 160.5
      vertex 190.919 353.553 390.5
    endloop
  endfacet
  facet normal 0.707107 -0.707107 6.13046e-09
    outer loop
      vertex 190.919 353.553 390.5
      vertex 183.848 346.482 160.5
      vertex 353.553 516.188 400.5
    endloop
  endfacet
  facet normal 0.707107 -0.707107 0
    outer loop
      vertex 183.848 346.482 160.5
      vertex 148.139 310.773 390.5
      vertex 148.139 310.773 160.5
    endloop
  endfacet
  facet normal -0.707107 0.707107 0
    outer loop
      vertex 353.553 190.919 1000
      vertex 516.188 353.553 400.5
      vertex 353.553 190.919 390.5
    endloop
  endfacet
  facet normal -0.707107 0.707107 6.13046e-09
    outer loop
      vertex 346.482 183.848 160.5
      vertex 353.553 190.919 390.5
      vertex 516.188 353.553 400.5
    endloop
  endfacet
  facet normal -0.707107 0.707107 0
    outer loop
      vertex 310.773 148.139 390.5
      vertex 346.482 183.848 160.5
      vertex 310.773 148.139 160.5
    endloop
  endfacet
  facet normal -0.707107 0.707107 0
    outer loop
      vertex 346.482 183.848 160.5
      vertex 310.773 148.139 390.5
      vertex 353.553 190.919 390.5
    endloop
  endfacet
  facet normal -0.707107 0.707107 0
    outer loop
      vertex 516.188 353.553 400.5
      vertex 353.553 190.919 1000
      vertex 516.188 353.553 1000
    endloop
  endfacet
  facet normal -0.707107 -0.707107 0
    outer loop
      vertex 516.188 353.553 400.5
      vertex 353.553 516.188 1000
      vertex 353.553 516.188 400.5
    endloop
  endfacet
  facet normal -0.707107 -0.707107 0
    outer loop
      vertex 353.553 516.188 1000
      vertex 516.188 353.553 400.5
      vertex 516.188 353.553 1000
    endloop
  endfacet
  facet normal 0.707107 0.707107 0
    outer loop
      vertex 353.553 190.919 1000
      vertex 190.919 353.553 1000
      vertex 190.919 353.553 1000.5
    endloop
  endfacet
  facet normal 0.707107 0.707107 -0
    outer loop
      vertex 353.553 190.919 1000
      vertex 190.919 353.553 1000.5
      vertex 353.553 190.919 1000.5
    endloop
  endfacet
  facet normal 0.707107 0.707107 0
    outer loop
      vertex 190.919 353.553 1000
      vertex 353.553 190.919 1000
      vertex 190.919 353.553 390.5
    endloop
  endfacet
  facet normal 0.707107 0.707107 0
    outer loop
      vertex 190.919 353.553 390.5
      vertex 353.553 190.919 1000
      vertex 353.553 190.919 390.5
    endloop
  endfacet
  facet normal 0 0 -1
    outer loop
      vertex 310.773 148.139 390.5
      vertex 190.919 353.553 390.5
      vertex 353.553 190.919 390.5
    endloop
  endfacet
  facet normal 0 -0 -1
    outer loop
      vertex 190.919 353.553 390.5
      vertex 310.773 148.139 390.5
      vertex 148.139 310.773 390.5
    endloop
  endfacet
  facet normal 0 0 1
    outer loop
      vertex 183.848 346.482 160.5
      vertex 310.773 148.139 160.5
      vertex 346.482 183.848 160.5
    endloop
  endfacet
  facet normal 0 0 1
    outer loop
      vertex 310.773 148.139 160.5
      vertex 183.848 346.482 160.5
      vertex 148.139 310.773 160.5
    endloop
  endfacet
  facet normal -0.5 -0.5 0.707107
    outer loop
      vertex 353.553 516.188 400.5
      vertex 346.482 183.848 160.5
      vertex 516.188 353.553 400.5
    endloop
  endfacet
  facet normal -0.5 -0.5 0.707107
    outer loop
      vertex 346.482 183.848 160.5
      vertex 353.553 516.188 400.5
      vertex 183.848 346.482 160.5
    endloop
  endfacet
  facet normal -0.707107 -0.707107 0
    outer loop
      vertex -317.845 141.068 150.5
      vertex -353.553 176.777 400.5
      vertex -353.553 176.777 150.5
    endloop
  endfacet
  facet normal -0.707107 -0.707107 0
    outer loop
      vertex -353.553 176.777 400.5
      vertex -317.845 141.068 150.5
      vertex -317.845 141.068 400.5
    endloop
  endfacet
  facet normal -0.707107 -0.707107 -0
    outer loop
      vertex -353.553 176.777 400.5
      vertex -530.33 353.553 400.5
      vertex -353.553 176.777 150.5
    endloop
  endfacet
  facet normal -0.707107 -0.707107 0
    outer loop
      vertex -530.33 353.553 400.5
      vertex -353.553 176.777 400.5
      vertex -530.33 353.553 1000
    endloop
  endfacet
  facet normal -0.707107 -0.707107 0
    outer loop
      vertex -530.33 353.553 1000
      vertex -353.553 176.777 400.5
      vertex -353.553 176.777 1000
    endloop
  endfacet
  facet normal 0.707107 0.707107 -0
    outer loop
      vertex -176.777 353.553 150.5
      vertex -176.777 353.553 400.5
      vertex -141.068 317.845 400.5
    endloop
  endfacet
  facet normal 0.707107 0.707107 0
    outer loop
      vertex -176.777 353.553 150.5
      vertex -141.068 317.845 400.5
      vertex -141.068 317.845 150.5
    endloop
  endfacet
  facet normal 0.707107 0.707107 0
    outer loop
      vertex -176.777 353.553 400.5
      vertex -176.777 353.553 150.5
      vertex -353.553 530.33 400.5
    endloop
  endfacet
  facet normal 0.707107 0.707107 -0
    outer loop
      vertex -176.777 353.553 400.5
      vertex -353.553 530.33 1000
      vertex -176.777 353.553 1000
    endloop
  endfacet
  facet normal 0.707107 0.707107 0
    outer loop
      vertex -353.553 530.33 1000
      vertex -176.777 353.553 400.5
      vertex -353.553 530.33 400.5
    endloop
  endfacet
  facet normal -0.707107 0.707107 0
    outer loop
      vertex -530.33 353.553 400.5
      vertex -353.553 530.33 1000
      vertex -353.553 530.33 400.5
    endloop
  endfacet
  facet normal -0.707107 0.707107 0
    outer loop
      vertex -353.553 530.33 1000
      vertex -530.33 353.553 400.5
      vertex -530.33 353.553 1000
    endloop
  endfacet
  facet normal 0.707107 -0.707107 0
    outer loop
      vertex -353.553 176.777 1000
      vertex -176.777 353.553 400.5
      vertex -176.777 353.553 1000
    endloop
  endfacet
  facet normal 0.707107 -0.707107 0
    outer loop
      vertex -176.777 353.553 400.5
      vertex -353.553 176.777 1000
      vertex -353.553 176.777 400.5
    endloop
  endfacet
  facet normal 0 0 1
    outer loop
      vertex -176.777 353.553 400.5
      vertex -317.845 141.068 400.5
      vertex -141.068 317.845 400.5
    endloop
  endfacet
  facet normal 0 -0 1
    outer loop
      vertex -317.845 141.068 400.5
      vertex -176.777 353.553 400.5
      vertex -353.553 176.777 400.5
    endloop
  endfacet
  facet normal 0.707108 -0.707106 0
    outer loop
      vertex -141.068 317.845 400.5
      vertex -148.139 310.773 390.5
      vertex -141.068 317.845 150.5
    endloop
  endfacet
  facet normal 0.707107 -0.707107 1.07896e-06
    outer loop
      vertex -141.068 317.845 400.5
      vertex -310.773 148.139 390.5
      vertex -148.139 310.773 390.5
    endloop
  endfacet
  facet normal 0.707106 -0.707108 0
    outer loop
      vertex -310.773 148.139 390.5
      vertex -317.845 141.068 400.5
      vertex -310.773 148.139 160.5
    endloop
  endfacet
  facet normal 0.707107 -0.707107 1.07896e-06
    outer loop
      vertex -317.845 141.068 400.5
      vertex -310.773 148.139 390.5
      vertex -141.068 317.845 400.5
    endloop
  endfacet
  facet normal 0.707108 -0.707106 0
    outer loop
      vertex -148.139 310.773 160.5
      vertex -141.068 317.845 150.5
      vertex -148.139 310.773 390.5
    endloop
  endfacet
  facet normal 0.707107 -0.707107 -1.07896e-06
    outer loop
      vertex -310.773 148.139 160.5
      vertex -141.068 317.845 150.5
      vertex -148.139 310.773 160.5
    endloop
  endfacet
  facet normal 0.707107 -0.707107 -1.07896e-06
    outer loop
      vertex -310.773 148.139 160.5
      vertex -317.845 141.068 150.5
      vertex -141.068 317.845 150.5
    endloop
  endfacet
  facet normal 0.707106 -0.707108 0
    outer loop
      vertex -317.845 141.068 150.5
      vertex -310.773 148.139 160.5
      vertex -317.845 141.068 400.5
    endloop
  endfacet
  facet normal 0 0 -1
    outer loop
      vertex -317.845 141.068 150.5
      vertex -176.777 353.553 150.5
      vertex -141.068 317.845 150.5
    endloop
  endfacet
  facet normal 0 0 -1
    outer loop
      vertex -176.777 353.553 150.5
      vertex -317.845 141.068 150.5
      vertex -353.553 176.777 150.5
    endloop
  endfacet
  facet normal -0.5 0.5 -0.707107
    outer loop
      vertex -353.553 176.777 150.5
      vertex -353.553 530.33 400.5
      vertex -176.777 353.553 150.5
    endloop
  endfacet
  facet normal -0.5 0.5 -0.707107
    outer loop
      vertex -353.553 530.33 400.5
      vertex -353.553 176.777 150.5
      vertex -530.33 353.553 400.5
    endloop
  endfacet
  facet normal 0.707107 0.707107 0
    outer loop
      vertex -353.553 190.919 1000
      vertex -516.188 353.553 400.5
      vertex -516.188 353.553 1000
    endloop
  endfacet
  facet normal 0.707107 0.707107 -0
    outer loop
      vertex -353.553 190.919 390.5
      vertex -516.188 353.553 400.5
      vertex -353.553 190.919 1000
    endloop
  endfacet
  facet normal 0.707107 0.707107 6.13046e-09
    outer loop
      vertex -353.553 190.919 390.5
      vertex -346.482 183.848 160.5
      vertex -516.188 353.553 400.5
    endloop
  endfacet
  facet normal 0.707107 0.707107 0
    outer loop
      vertex -310.773 148.139 390.5
      vertex -346.482 183.848 160.5
      vertex -353.553 190.919 390.5
    endloop
  endfacet
  facet normal 0.707107 0.707107 0
    outer loop
      vertex -346.482 183.848 160.5
      vertex -310.773 148.139 390.5
      vertex -310.773 148.139 160.5
    endloop
  endfacet
  facet normal -0.707107 -0.707107 0
    outer loop
      vertex -353.553 516.188 400.5
      vertex -190.919 353.553 1000
      vertex -353.553 516.188 1000
    endloop
  endfacet
  facet normal -0.707107 -0.707107 0
    outer loop
      vertex -353.553 516.188 400.5
      vertex -190.919 353.553 390.5
      vertex -190.919 353.553 1000
    endloop
  endfacet
  facet normal -0.707107 -0.707107 6.13046e-09
    outer loop
      vertex -183.848 346.482 160.5
      vertex -190.919 353.553 390.5
      vertex -353.553 516.188 400.5
    endloop
  endfacet
  facet normal -0.707107 -0.707107 0
    outer loop
      vertex -183.848 346.482 160.5
      vertex -148.139 310.773 390.5
      vertex -190.919 353.553 390.5
    endloop
  endfacet
  facet normal -0.707107 -0.707107 -0
    outer loop
      vertex -148.139 310.773 390.5
      vertex -183.848 346.482 160.5
      vertex -148.139 310.773 160.5
    endloop
  endfacet
  facet normal 0.707107 -0.707107 0
    outer loop
      vertex -516.188 353.553 1000
      vertex -353.553 516.188 400.5
      vertex -353.553 516.188 1000
    endloop
  endfacet
  facet normal 0.707107 -0.707107 0
    outer loop
      vertex -353.553 516.188 400.5
      vertex -516.188 353.553 1000
      vertex -516.188 353.553 400.5
    endloop
  endfacet
  facet normal -0.707107 0.707107 0
    outer loop
      vertex -353.553 190.919 390.5
      vertex -190.919 353.553 1000
      vertex -190.919 353.553 390.5
    endloop
  endfacet
  facet normal -0.707107 0.707107 0
    outer loop
      vertex -353.553 190.919 1000
      vertex -190.919 353.553 1000
      vertex -353.553 190.919 390.5
    endloop
  endfacet
  facet normal -0.707107 0.707107 0
    outer loop
      vertex -190.919 353.553 1000
      vertex -353.553 190.919 1000
      vertex -190.919 353.553 1000.5
    endloop
  endfacet
  facet normal -0.707107 0.707107 0
    outer loop
      vertex -190.919 353.553 1000.5
      vertex -353.553 190.919 1000
      vertex -353.553 190.919 1000.5
    endloop
  endfacet
  facet normal 0 0 -1
    outer loop
      vertex -310.773 148.139 390.5
      vertex -190.919 353.553 390.5
      vertex -148.139 310.773 390.5
    endloop
  endfacet
  facet normal 0 0 -1
    outer loop
      vertex -190.919 353.553 390.5
      vertex -310.773 148.139 390.5
      vertex -353.553 190.919 390.5
    endloop
  endfacet
  facet normal 0 0 1
    outer loop
      vertex -183.848 346.482 160.5
      vertex -310.773 148.139 160.5
      vertex -148.139 310.773 160.5
    endloop
  endfacet
  facet normal 0 -0 1
    outer loop
      vertex -310.773 148.139 160.5
      vertex -183.848 346.482 160.5
      vertex -346.482 183.848 160.5
    endloop
  endfacet
  facet normal 0.5 -0.5 0.707107
    outer loop
      vertex -353.553 516.188 400.5
      vertex -346.482 183.848 160.5
      vertex -183.848 346.482 160.5
    endloop
  endfacet
  facet normal 0.5 -0.5 0.707107
    outer loop
      vertex -346.482 183.848 160.5
      vertex -353.553 516.188 400.5
      vertex -516.188 353.553 400.5
    endloop
  endfacet
  facet normal 0.707107 -0.707107 0
    outer loop
      vertex -353.553 -530.33 400.5
      vertex -176.777 -353.553 1000
      vertex -353.553 -530.33 1000
    endloop
  endfacet
  facet normal 0.707107 -0.707107 0
    outer loop
      vertex -353.553 -530.33 400.5
      vertex -176.777 -353.553 400.5
      vertex -176.777 -353.553 1000
    endloop
  endfacet
  facet normal 0.707107 -0.707107 0
    outer loop
      vertex -176.777 -353.553 150.5
      vertex -176.777 -353.553 400.5
      vertex -353.553 -530.33 400.5
    endloop
  endfacet
  facet normal 0.707107 -0.707107 0
    outer loop
      vertex -176.777 -353.553 400.5
      vertex -176.777 -353.553 150.5
      vertex -141.068 -317.845 400.5
    endloop
  endfacet
  facet normal 0.707107 -0.707107 0
    outer loop
      vertex -141.068 -317.845 400.5
      vertex -176.777 -353.553 150.5
      vertex -141.068 -317.845 150.5
    endloop
  endfacet
  facet normal -0.707107 0.707107 0
    outer loop
      vertex -353.553 -176.777 150.5
      vertex -317.845 -141.068 400.5
      vertex -317.845 -141.068 150.5
    endloop
  endfacet
  facet normal -0.707107 0.707107 0
    outer loop
      vertex -353.553 -176.777 150.5
      vertex -353.553 -176.777 400.5
      vertex -317.845 -141.068 400.5
    endloop
  endfacet
  facet normal -0.707107 0.707107 0
    outer loop
      vertex -530.33 -353.553 400.5
      vertex -353.553 -176.777 400.5
      vertex -353.553 -176.777 150.5
    endloop
  endfacet
  facet normal -0.707107 0.707107 0
    outer loop
      vertex -353.553 -176.777 400.5
      vertex -530.33 -353.553 400.5
      vertex -353.553 -176.777 1000
    endloop
  endfacet
  facet normal -0.707107 0.707107 0
    outer loop
      vertex -353.553 -176.777 1000
      vertex -530.33 -353.553 400.5
      vertex -530.33 -353.553 1000
    endloop
  endfacet
  facet normal -0.707107 -0.707107 0
    outer loop
      vertex -353.553 -530.33 400.5
      vertex -530.33 -353.553 1000
      vertex -530.33 -353.553 400.5
    endloop
  endfacet
  facet normal -0.707107 -0.707107 0
    outer loop
      vertex -530.33 -353.553 1000
      vertex -353.553 -530.33 400.5
      vertex -353.553 -530.33 1000
    endloop
  endfacet
  facet normal 0.707107 0.707107 0
    outer loop
      vertex -176.777 -353.553 1000
      vertex -353.553 -176.777 400.5
      vertex -353.553 -176.777 1000
    endloop
  endfacet
  facet normal 0.707107 0.707107 0
    outer loop
      vertex -353.553 -176.777 400.5
      vertex -176.777 -353.553 1000
      vertex -176.777 -353.553 400.5
    endloop
  endfacet
  facet normal 0 0 1
    outer loop
      vertex -317.845 -141.068 400.5
      vertex -176.777 -353.553 400.5
      vertex -141.068 -317.845 400.5
    endloop
  endfacet
  facet normal 0 0 1
    outer loop
      vertex -176.777 -353.553 400.5
      vertex -317.845 -141.068 400.5
      vertex -353.553 -176.777 400.5
    endloop
  endfacet
  facet normal 0.707106 0.707108 0
    outer loop
      vertex -317.845 -141.068 400.5
      vertex -310.773 -148.139 390.5
      vertex -317.845 -141.068 150.5
    endloop
  endfacet
  facet normal 0.707107 0.707107 1.07896e-06
    outer loop
      vertex -317.845 -141.068 400.5
      vertex -148.139 -310.773 390.5
      vertex -310.773 -148.139 390.5
    endloop
  endfacet
  facet normal 0.707108 0.707106 0
    outer loop
      vertex -148.139 -310.773 390.5
      vertex -141.068 -317.845 400.5
      vertex -148.139 -310.773 160.5
    endloop
  endfacet
  facet normal 0.707107 0.707107 1.07896e-06
    outer loop
      vertex -141.068 -317.845 400.5
      vertex -148.139 -310.773 390.5
      vertex -317.845 -141.068 400.5
    endloop
  endfacet
  facet normal 0.707106 0.707108 -0
    outer loop
      vertex -310.773 -148.139 160.5
      vertex -317.845 -141.068 150.5
      vertex -310.773 -148.139 390.5
    endloop
  endfacet
  facet normal 0.707107 0.707107 -1.07896e-06
    outer loop
      vertex -148.139 -310.773 160.5
      vertex -317.845 -141.068 150.5
      vertex -310.773 -148.139 160.5
    endloop
  endfacet
  facet normal 0.707107 0.707107 -1.07896e-06
    outer loop
      vertex -148.139 -310.773 160.5
      vertex -141.068 -317.845 150.5
      vertex -317.845 -141.068 150.5
    endloop
  endfacet
  facet normal 0.707108 0.707106 -0
    outer loop
      vertex -141.068 -317.845 150.5
      vertex -148.139 -310.773 160.5
      vertex -141.068 -317.845 400.5
    endloop
  endfacet
  facet normal 0 0 -1
    outer loop
      vertex -176.777 -353.553 150.5
      vertex -317.845 -141.068 150.5
      vertex -141.068 -317.845 150.5
    endloop
  endfacet
  facet normal 0 -0 -1
    outer loop
      vertex -317.845 -141.068 150.5
      vertex -176.777 -353.553 150.5
      vertex -353.553 -176.777 150.5
    endloop
  endfacet
  facet normal -0.5 -0.5 -0.707107
    outer loop
      vertex -353.553 -530.33 400.5
      vertex -353.553 -176.777 150.5
      vertex -176.777 -353.553 150.5
    endloop
  endfacet
  facet normal -0.5 -0.5 -0.707107
    outer loop
      vertex -353.553 -176.777 150.5
      vertex -353.553 -530.33 400.5
      vertex -530.33 -353.553 400.5
    endloop
  endfacet
  facet normal -0.707107 0.707107 0
    outer loop
      vertex -183.848 -346.482 160.5
      vertex -148.139 -310.773 390.5
      vertex -148.139 -310.773 160.5
    endloop
  endfacet
  facet normal -0.707107 0.707107 0
    outer loop
      vertex -190.919 -353.553 1000
      vertex -353.553 -516.188 400.5
      vertex -353.553 -516.188 1000
    endloop
  endfacet
  facet normal -0.707107 0.707107 0
    outer loop
      vertex -190.919 -353.553 390.5
      vertex -353.553 -516.188 400.5
      vertex -190.919 -353.553 1000
    endloop
  endfacet
  facet normal -0.707107 0.707107 0
    outer loop
      vertex -148.139 -310.773 390.5
      vertex -183.848 -346.482 160.5
      vertex -190.919 -353.553 390.5
    endloop
  endfacet
  facet normal -0.707107 0.707107 6.13046e-09
    outer loop
      vertex -190.919 -353.553 390.5
      vertex -183.848 -346.482 160.5
      vertex -353.553 -516.188 400.5
    endloop
  endfacet
  facet normal 0.707107 -0.707107 0
    outer loop
      vertex -516.188 -353.553 400.5
      vertex -353.553 -190.919 1000
      vertex -516.188 -353.553 1000
    endloop
  endfacet
  facet normal 0.707107 -0.707107 0
    outer loop
      vertex -310.773 -148.139 390.5
      vertex -346.482 -183.848 160.5
      vertex -310.773 -148.139 160.5
    endloop
  endfacet
  facet normal 0.707107 -0.707107 0
    outer loop
      vertex -353.553 -190.919 390.5
      vertex -346.482 -183.848 160.5
      vertex -310.773 -148.139 390.5
    endloop
  endfacet
  facet normal 0.707107 -0.707107 0
    outer loop
      vertex -353.553 -190.919 1000
      vertex -516.188 -353.553 400.5
      vertex -353.553 -190.919 390.5
    endloop
  endfacet
  facet normal 0.707107 -0.707107 6.13046e-09
    outer loop
      vertex -353.553 -190.919 390.5
      vertex -516.188 -353.553 400.5
      vertex -346.482 -183.848 160.5
    endloop
  endfacet
  facet normal 0.707107 0.707107 0
    outer loop
      vertex -353.553 -516.188 1000
      vertex -516.188 -353.553 400.5
      vertex -516.188 -353.553 1000
    endloop
  endfacet
  facet normal 0.707107 0.707107 0
    outer loop
      vertex -516.188 -353.553 400.5
      vertex -353.553 -516.188 1000
      vertex -353.553 -516.188 400.5
    endloop
  endfacet
  facet normal -0.707107 -0.707107 0
    outer loop
      vertex -190.919 -353.553 390.5
      vertex -353.553 -190.919 1000
      vertex -353.553 -190.919 390.5
    endloop
  endfacet
  facet normal -0.707107 -0.707107 -0
    outer loop
      vertex -190.919 -353.553 1000
      vertex -353.553 -190.919 1000
      vertex -190.919 -353.553 390.5
    endloop
  endfacet
  facet normal -0.707107 -0.707107 0
    outer loop
      vertex -353.553 -190.919 1000
      vertex -190.919 -353.553 1000
      vertex -353.553 -190.919 1000.5
    endloop
  endfacet
  facet normal -0.707107 -0.707107 0
    outer loop
      vertex -353.553 -190.919 1000.5
      vertex -190.919 -353.553 1000
      vertex -190.919 -353.553 1000.5
    endloop
  endfacet
  facet normal 0 0 -1
    outer loop
      vertex -190.919 -353.553 390.5
      vertex -310.773 -148.139 390.5
      vertex -148.139 -310.773 390.5
    endloop
  endfacet
  facet normal 0 -0 -1
    outer loop
      vertex -310.773 -148.139 390.5
      vertex -190.919 -353.553 390.5
      vertex -353.553 -190.919 390.5
    endloop
  endfacet
  facet normal 0 0 1
    outer loop
      vertex -310.773 -148.139 160.5
      vertex -183.848 -346.482 160.5
      vertex -148.139 -310.773 160.5
    endloop
  endfacet
  facet normal 0 0 1
    outer loop
      vertex -183.848 -346.482 160.5
      vertex -310.773 -148.139 160.5
      vertex -346.482 -183.848 160.5
    endloop
  endfacet
  facet normal 0.5 0.5 0.707107
    outer loop
      vertex -346.482 -183.848 160.5
      vertex -353.553 -516.188 400.5
      vertex -183.848 -346.482 160.5
    endloop
  endfacet
  facet normal 0.5 0.5 0.707107
    outer loop
      vertex -353.553 -516.188 400.5
      vertex -346.482 -183.848 160.5
      vertex -516.188 -353.553 400.5
    endloop
  endfacet
  facet normal 0.707107 0.707107 0
    outer loop
      vertex 530.33 -353.553 400.5
      vertex 353.553 -176.777 400.5
      vertex 353.553 -176.777 1000
    endloop
  endfacet
  facet normal 0.707107 0.707107 -0
    outer loop
      vertex 530.33 -353.553 400.5
      vertex 353.553 -176.777 1000
      vertex 530.33 -353.553 1000
    endloop
  endfacet
  facet normal 0.707107 0.707107 0
    outer loop
      vertex 353.553 -176.777 400.5
      vertex 530.33 -353.553 400.5
      vertex 353.553 -176.777 150.5
    endloop
  endfacet
  facet normal 0.707107 0.707107 0
    outer loop
      vertex 353.553 -176.777 400.5
      vertex 317.845 -141.068 150.5
      vertex 317.845 -141.068 400.5
    endloop
  endfacet
  facet normal 0.707107 0.707107 0
    outer loop
      vertex 317.845 -141.068 150.5
      vertex 353.553 -176.777 400.5
      vertex 353.553 -176.777 150.5
    endloop
  endfacet
  facet normal -0.707107 -0.707107 0
    outer loop
      vertex 176.777 -353.553 150.5
      vertex 176.777 -353.553 400.5
      vertex 141.068 -317.845 400.5
    endloop
  endfacet
  facet normal -0.707107 -0.707107 0
    outer loop
      vertex 176.777 -353.553 150.5
      vertex 141.068 -317.845 400.5
      vertex 141.068 -317.845 150.5
    endloop
  endfacet
  facet normal -0.707107 -0.707107 -0
    outer loop
      vertex 176.777 -353.553 400.5
      vertex 176.777 -353.553 150.5
      vertex 353.553 -530.33 400.5
    endloop
  endfacet
  facet normal -0.707107 -0.707107 0
    outer loop
      vertex 176.777 -353.553 400.5
      vertex 353.553 -530.33 1000
      vertex 176.777 -353.553 1000
    endloop
  endfacet
  facet normal -0.707107 -0.707107 -0
    outer loop
      vertex 353.553 -530.33 1000
      vertex 176.777 -353.553 400.5
      vertex 353.553 -530.33 400.5
    endloop
  endfacet
  facet normal 0.707107 -0.707107 0
    outer loop
      vertex 353.553 -530.33 1000
      vertex 530.33 -353.553 400.5
      vertex 530.33 -353.553 1000
    endloop
  endfacet
  facet normal 0.707107 -0.707107 0
    outer loop
      vertex 530.33 -353.553 400.5
      vertex 353.553 -530.33 1000
      vertex 353.553 -530.33 400.5
    endloop
  endfacet
  facet normal -0.707107 0.707107 0
    outer loop
      vertex 176.777 -353.553 400.5
      vertex 353.553 -176.777 1000
      vertex 353.553 -176.777 400.5
    endloop
  endfacet
  facet normal -0.707107 0.707107 0
    outer loop
      vertex 353.553 -176.777 1000
      vertex 176.777 -353.553 400.5
      vertex 176.777 -353.553 1000
    endloop
  endfacet
  facet normal 0 0 1
    outer loop
      vertex 317.845 -141.068 400.5
      vertex 176.777 -353.553 400.5
      vertex 353.553 -176.777 400.5
    endloop
  endfacet
  facet normal 0 -0 1
    outer loop
      vertex 176.777 -353.553 400.5
      vertex 317.845 -141.068 400.5
      vertex 141.068 -317.845 400.5
    endloop
  endfacet
  facet normal -0.707106 0.707108 0
    outer loop
      vertex 317.845 -141.068 150.5
      vertex 310.773 -148.139 160.5
      vertex 317.845 -141.068 400.5
    endloop
  endfacet
  facet normal -0.707107 0.707107 -1.07896e-06
    outer loop
      vertex 317.845 -141.068 150.5
      vertex 148.139 -310.773 160.5
      vertex 310.773 -148.139 160.5
    endloop
  endfacet
  facet normal -0.707108 0.707106 0
    outer loop
      vertex 148.139 -310.773 160.5
      vertex 141.068 -317.845 150.5
      vertex 148.139 -310.773 390.5
    endloop
  endfacet
  facet normal -0.707107 0.707107 -1.07896e-06
    outer loop
      vertex 141.068 -317.845 150.5
      vertex 148.139 -310.773 160.5
      vertex 317.845 -141.068 150.5
    endloop
  endfacet
  facet normal -0.707106 0.707108 0
    outer loop
      vertex 310.773 -148.139 390.5
      vertex 317.845 -141.068 400.5
      vertex 310.773 -148.139 160.5
    endloop
  endfacet
  facet normal -0.707107 0.707107 1.07896e-06
    outer loop
      vertex 148.139 -310.773 390.5
      vertex 317.845 -141.068 400.5
      vertex 310.773 -148.139 390.5
    endloop
  endfacet
  facet normal -0.707107 0.707107 1.07896e-06
    outer loop
      vertex 148.139 -310.773 390.5
      vertex 141.068 -317.845 400.5
      vertex 317.845 -141.068 400.5
    endloop
  endfacet
  facet normal -0.707108 0.707106 0
    outer loop
      vertex 141.068 -317.845 400.5
      vertex 148.139 -310.773 390.5
      vertex 141.068 -317.845 150.5
    endloop
  endfacet
  facet normal 0 0 -1
    outer loop
      vertex 176.777 -353.553 150.5
      vertex 317.845 -141.068 150.5
      vertex 353.553 -176.777 150.5
    endloop
  endfacet
  facet normal 0 0 -1
    outer loop
      vertex 317.845 -141.068 150.5
      vertex 176.777 -353.553 150.5
      vertex 141.068 -317.845 150.5
    endloop
  endfacet
  facet normal 0.5 -0.5 -0.707107
    outer loop
      vertex 353.553 -530.33 400.5
      vertex 353.553 -176.777 150.5
      vertex 530.33 -353.553 400.5
    endloop
  endfacet
  facet normal 0.5 -0.5 -0.707107
    outer loop
      vertex 353.553 -176.777 150.5
      vertex 353.553 -530.33 400.5
      vertex 176.777 -353.553 150.5
    endloop
  endfacet
  facet normal -0.707107 -0.707107 0
    outer loop
      vertex 346.482 -183.848 160.5
      vertex 310.773 -148.139 390.5
      vertex 310.773 -148.139 160.5
    endloop
  endfacet
  facet normal -0.707107 -0.707107 0
    outer loop
      vertex 346.482 -183.848 160.5
      vertex 353.553 -190.919 390.5
      vertex 310.773 -148.139 390.5
    endloop
  endfacet
  facet normal -0.707107 -0.707107 6.13046e-09
    outer loop
      vertex 516.188 -353.553 400.5
      vertex 353.553 -190.919 390.5
      vertex 346.482 -183.848 160.5
    endloop
  endfacet
  facet normal -0.707107 -0.707107 0
    outer loop
      vertex 516.188 -353.553 400.5
      vertex 353.553 -190.919 1000
      vertex 353.553 -190.919 390.5
    endloop
  endfacet
  facet normal -0.707107 -0.707107 0
    outer loop
      vertex 353.553 -190.919 1000
      vertex 516.188 -353.553 400.5
      vertex 516.188 -353.553 1000
    endloop
  endfacet
  facet normal 0.707107 0.707107 -0
    outer loop
      vertex 353.553 -516.188 400.5
      vertex 190.919 -353.553 1000
      vertex 353.553 -516.188 1000
    endloop
  endfacet
  facet normal 0.707107 0.707107 0
    outer loop
      vertex 353.553 -516.188 400.5
      vertex 190.919 -353.553 390.5
      vertex 190.919 -353.553 1000
    endloop
  endfacet
  facet normal 0.707107 0.707107 6.13046e-09
    outer loop
      vertex 183.848 -346.482 160.5
      vertex 190.919 -353.553 390.5
      vertex 353.553 -516.188 400.5
    endloop
  endfacet
  facet normal 0.707107 0.707107 0
    outer loop
      vertex 183.848 -346.482 160.5
      vertex 148.139 -310.773 390.5
      vertex 190.919 -353.553 390.5
    endloop
  endfacet
  facet normal 0.707107 0.707107 0
    outer loop
      vertex 148.139 -310.773 390.5
      vertex 183.848 -346.482 160.5
      vertex 148.139 -310.773 160.5
    endloop
  endfacet
  facet normal -0.707107 0.707107 0
    outer loop
      vertex 353.553 -516.188 400.5
      vertex 516.188 -353.553 1000
      vertex 516.188 -353.553 400.5
    endloop
  endfacet
  facet normal -0.707107 0.707107 0
    outer loop
      vertex 516.188 -353.553 1000
      vertex 353.553 -516.188 400.5
      vertex 353.553 -516.188 1000
    endloop
  endfacet
  facet normal 0.707107 -0.707107 0
    outer loop
      vertex 190.919 -353.553 1000
      vertex 353.553 -190.919 1000
      vertex 353.553 -190.919 1000.5
    endloop
  endfacet
  facet normal 0.707107 -0.707107 0
    outer loop
      vertex 190.919 -353.553 1000
      vertex 353.553 -190.919 1000.5
      vertex 190.919 -353.553 1000.5
    endloop
  endfacet
  facet normal 0.707107 -0.707107 0
    outer loop
      vertex 353.553 -190.919 1000
      vertex 190.919 -353.553 1000
      vertex 353.553 -190.919 390.5
    endloop
  endfacet
  facet normal 0.707107 -0.707107 0
    outer loop
      vertex 353.553 -190.919 390.5
      vertex 190.919 -353.553 1000
      vertex 190.919 -353.553 390.5
    endloop
  endfacet
  facet normal 0 0 -1
    outer loop
      vertex 190.919 -353.553 390.5
      vertex 310.773 -148.139 390.5
      vertex 353.553 -190.919 390.5
    endloop
  endfacet
  facet normal 0 0 -1
    outer loop
      vertex 310.773 -148.139 390.5
      vertex 190.919 -353.553 390.5
      vertex 148.139 -310.773 390.5
    endloop
  endfacet
  facet normal 0 0 1
    outer loop
      vertex 310.773 -148.139 160.5
      vertex 183.848 -346.482 160.5
      vertex 346.482 -183.848 160.5
    endloop
  endfacet
  facet normal 0 -0 1
    outer loop
      vertex 183.848 -346.482 160.5
      vertex 310.773 -148.139 160.5
      vertex 148.139 -310.773 160.5
    endloop
  endfacet
  facet normal -0.5 0.5 0.707107
    outer loop
      vertex 346.482 -183.848 160.5
      vertex 353.553 -516.188 400.5
      vertex 516.188 -353.553 400.5
    endloop
  endfacet
  facet normal -0.5 0.5 0.707107
    outer loop
      vertex 353.553 -516.188 400.5
      vertex 346.482 -183.848 160.5
      vertex 183.848 -346.482 160.5
    endloop
  endfacet
  facet normal -1 0 0
    outer loop
      vertex -625 325 820
      vertex -625 625 -1000
      vertex -625 325 -980
    endloop
  endfacet
  facet normal -1 0 0
    outer loop
      vertex -625 625 -1000
      vertex -625 -325 -980
      vertex -625 325 -980
    endloop
  endfacet
  facet normal -1 -0 0
    outer loop
      vertex -625 -325 -980
      vertex -625 -625 -1000
      vertex -625 -325 820
    endloop
  endfacet
  facet normal -1 0 0
    outer loop
      vertex -625 -625 -1000
      vertex -625 -325 -980
      vertex -625 625 -1000
    endloop
  endfacet
  facet normal -1 0 0
    outer loop
      vertex -625 625 -1000
      vertex -625 325 820
      vertex -625 625 1000
    endloop
  endfacet
  facet normal -1 0 0
    outer loop
      vertex -625 -325 820
      vertex -625 625 1000
      vertex -625 325 820
    endloop
  endfacet
  facet normal -1 0 0
    outer loop
      vertex -625 -325 820
      vertex -625 -625 1000
      vertex -625 625 1000
    endloop
  endfacet
  facet normal -1 0 0
    outer loop
      vertex -625 -625 1000
      vertex -625 -325 820
      vertex -625 -625 -1000
    endloop
  endfacet
  facet normal 1 -0 0
    outer loop
      vertex 625 -625 1000
      vertex 625 625 -1000
      vertex 625 625 1000
    endloop
  endfacet
  facet normal 1 0 0
    outer loop
      vertex 625 625 -1000
      vertex 625 -625 1000
      vertex 625 -625 -1000
    endloop
  endfacet
  facet normal 0 1 -0
    outer loop
      vertex 625 625 -1000
      vertex -625 625 1000
      vertex 625 625 1000
    endloop
  endfacet
  facet normal 0 1 0
    outer loop
      vertex -625 625 1000
      vertex 625 625 -1000
      vertex -625 625 -1000
    endloop
  endfacet
  facet normal -0 0 -1
    outer loop
      vertex 505 -575 -1000
      vertex -505 -585 -1000
      vertex -505 -575 -1000
    endloop
  endfacet
  facet normal 0 0 -1
    outer loop
      vertex 505 575 -1000
      vertex -505 575 -1000
      vertex 505 585 -1000
    endloop
  endfacet
  facet normal 0 0 -1
    outer loop
      vertex 575 -505 -1000
      vertex 585 505 -1000
      vertex 585 -505 -1000
    endloop
  endfacet
  facet normal -0 0 -1
    outer loop
      vertex 585 505 -1000
      vertex 575 -505 -1000
      vertex 575 505 -1000
    endloop
  endfacet
  facet normal 0 0 -1
    outer loop
      vertex 585 -505 -1000
      vertex 625 -625 -1000
      vertex 585 -585 -1000
    endloop
  endfacet
  facet normal 0 0 -1
    outer loop
      vertex 625 -625 -1000
      vertex 505 -585 -1000
      vertex 585 -585 -1000
    endloop
  endfacet
  facet normal 0 0 -1
    outer loop
      vertex 505 -585 -1000
      vertex -505 -585 -1000
      vertex 505 -575 -1000
    endloop
  endfacet
  facet normal 0 0 -1
    outer loop
      vertex 625 -625 -1000
      vertex -505 -585 -1000
      vertex 505 -585 -1000
    endloop
  endfacet
  facet normal 0 0 -1
    outer loop
      vertex -625 -625 -1000
      vertex -505 -585 -1000
      vertex 625 -625 -1000
    endloop
  endfacet
  facet normal 0 0 -1
    outer loop
      vertex -625 -625 -1000
      vertex -585 -505 -1000
      vertex -585 -585 -1000
    endloop
  endfacet
  facet normal -0 0 -1
    outer loop
      vertex -585 -505 -1000
      vertex -625 -625 -1000
      vertex -585 505 -1000
    endloop
  endfacet
  facet normal 0 0 -1
    outer loop
      vertex -625 625 -1000
      vertex -585 505 -1000
      vertex -625 -625 -1000
    endloop
  endfacet
  facet normal -0 0 -1
    outer loop
      vertex -505 -585 -1000
      vertex -625 -625 -1000
      vertex -585 -585 -1000
    endloop
  endfacet
  facet normal 0 0 -1
    outer loop
      vertex 625 -625 -1000
      vertex 585 -505 -1000
      vertex 625 625 -1000
    endloop
  endfacet
  facet normal 0 0 -1
    outer loop
      vertex 585 505 -1000
      vertex 625 625 -1000
      vertex 585 -505 -1000
    endloop
  endfacet
  facet normal 0 0 -1
    outer loop
      vertex 585 585 -1000
      vertex 625 625 -1000
      vertex 585 505 -1000
    endloop
  endfacet
  facet normal 0 0 -1
    outer loop
      vertex 505 585 -1000
      vertex 625 625 -1000
      vertex 585 585 -1000
    endloop
  endfacet
  facet normal 0 0 -1
    outer loop
      vertex -505 585 -1000
      vertex 505 585 -1000
      vertex -505 575 -1000
    endloop
  endfacet
  facet normal 0 0 -1
    outer loop
      vertex 505 585 -1000
      vertex -505 585 -1000
      vertex 625 625 -1000
    endloop
  endfacet
  facet normal 0 0 -1
    outer loop
      vertex -625 625 -1000
      vertex -505 585 -1000
      vertex -585 585 -1000
    endloop
  endfacet
  facet normal 0 0 -1
    outer loop
      vertex -505 585 -1000
      vertex -625 625 -1000
      vertex 625 625 -1000
    endloop
  endfacet
  facet normal 0 0 -1
    outer loop
      vertex -585 505 -1000
      vertex -625 625 -1000
      vertex -585 585 -1000
    endloop
  endfacet
  facet normal 0 0 -1
    outer loop
      vertex -585 -505 -1000
      vertex -575 505 -1000
      vertex -575 -505 -1000
    endloop
  endfacet
  facet normal -0 0 -1
    outer loop
      vertex -575 505 -1000
      vertex -585 -505 -1000
      vertex -585 505 -1000
    endloop
  endfacet
  facet normal 0 0 -1
    outer loop
      vertex -565 -505 -1000
      vertex -505 505 -1000
      vertex -505 -505 -1000
    endloop
  endfacet
  facet normal -0 0 -1
    outer loop
      vertex -505 505 -1000
      vertex -565 -505 -1000
      vertex -565 505 -1000
    endloop
  endfacet
  facet normal 0 0 -1
    outer loop
      vertex -505 -505 -1000
      vertex 505 -505 -1000
      vertex 505 -565 -1000
    endloop
  endfacet
  facet normal 0 0 -1
    outer loop
      vertex 505 -505 -1000
      vertex -505 -505 -1000
      vertex 505 505 -1000
    endloop
  endfacet
  facet normal 0 0 -1
    outer loop
      vertex -505 -505 -1000
      vertex 505 -565 -1000
      vertex -505 -565 -1000
    endloop
  endfacet
  facet normal 0 0 -1
    outer loop
      vertex -505 505 -1000
      vertex 505 505 -1000
      vertex -505 -505 -1000
    endloop
  endfacet
  facet normal 0 0 -1
    outer loop
      vertex 505 505 -1000
      vertex -505 505 -1000
      vertex 505 565 -1000
    endloop
  endfacet
  facet normal -0 0 -1
    outer loop
      vertex 505 565 -1000
      vertex -505 505 -1000
      vertex -505 565 -1000
    endloop
  endfacet
  facet normal 0 0 -1
    outer loop
      vertex 505 -505 -1000
      vertex 565 505 -1000
      vertex 565 -505 -1000
    endloop
  endfacet
  facet normal -0 0 -1
    outer loop
      vertex 565 505 -1000
      vertex 505 -505 -1000
      vertex 505 505 -1000
    endloop
  endfacet
  facet normal 0 -1 0
    outer loop
      vertex -625 -625 -1000
      vertex 625 -625 1000
      vertex -625 -625 1000
    endloop
  endfacet
  facet normal 0 -1 -0
    outer loop
      vertex 625 -625 1000
      vertex -625 -625 -1000
      vertex 625 -625 -1000
    endloop
  endfacet
  facet normal 1 0 0
    outer loop
      vertex -605 605 1000
      vertex -605 325 820
      vertex -605 605 -980
    endloop
  endfacet
  facet normal 1 0 0
    outer loop
      vertex -605 605 1000
      vertex -605 -325 820
      vertex -605 325 820
    endloop
  endfacet
  facet normal 1 -0 0
    outer loop
      vertex -605 -605 1000
      vertex -605 -325 820
      vertex -605 605 1000
    endloop
  endfacet
  facet normal 1 0 0
    outer loop
      vertex -605 -605 -980
      vertex -605 -325 820
      vertex -605 -605 1000
    endloop
  endfacet
  facet normal 1 0 0
    outer loop
      vertex -605 -325 820
      vertex -605 -605 -980
      vertex -605 -325 -980
    endloop
  endfacet
  facet normal 1 0 0
    outer loop
      vertex -605 605 -980
      vertex -605 325 820
      vertex -605 325 -980
    endloop
  endfacet
  facet normal -1 0 0
    outer loop
      vertex 605 -605 -980
      vertex 605 605 1000
      vertex 605 605 -980
    endloop
  endfacet
  facet normal -1 -0 0
    outer loop
      vertex 605 605 1000
      vertex 605 -605 -980
      vertex 605 -605 1000
    endloop
  endfacet
  facet normal -0 0 1
    outer loop
      vertex -625 325 -980
      vertex -605 -325 -980
      vertex -605 325 -980
    endloop
  endfacet
  facet normal 0 0 1
    outer loop
      vertex -605 -325 -980
      vertex -625 325 -980
      vertex -625 -325 -980
    endloop
  endfacet
  facet normal 0 0 1
    outer loop
      vertex -605 325 -980
      vertex 605 605 -980
      vertex -605 605 -980
    endloop
  endfacet
  facet normal 0 0 1
    outer loop
      vertex 605 605 -980
      vertex -605 325 -980
      vertex 605 -605 -980
    endloop
  endfacet
  facet normal -0 0 1
    outer loop
      vertex -605 -325 -980
      vertex 605 -605 -980
      vertex -605 325 -980
    endloop
  endfacet
  facet normal 0 0 1
    outer loop
      vertex 605 -605 -980
      vertex -605 -325 -980
      vertex -605 -605 -980
    endloop
  endfacet
  facet normal 0 1 -0
    outer loop
      vertex 605 -605 -980
      vertex -605 -605 1000
      vertex 605 -605 1000
    endloop
  endfacet
  facet normal 0 1 0
    outer loop
      vertex -605 -605 1000
      vertex 605 -605 -980
      vertex -605 -605 -980
    endloop
  endfacet
  facet normal 0 -1 0
    outer loop
      vertex -605 605 -980
      vertex 605 605 1000
      vertex -605 605 1000
    endloop
  endfacet
  facet normal 0 -1 -0
    outer loop
      vertex 605 605 1000
      vertex -605 605 -980
      vertex 605 605 -980
    endloop
  endfacet
  facet normal 0 0 -1
    outer loop
      vertex -625 -325 820
      vertex -605 325 820
      vertex -605 -325 820
    endloop
  endfacet
  facet normal -0 0 -1
    outer loop
      vertex -605 325 820
      vertex -625 -325 820
      vertex -625 325 820
    endloop
  endfacet
  facet normal 0 -1 0
    outer loop
      vertex -625 325 -980
      vertex -605 325 820
      vertex -625 325 820
    endloop
  endfacet
  facet normal 0 -1 -0
    outer loop
      vertex -605 325 820
      vertex -625 325 -980
      vertex -605 325 -980
    endloop
  endfacet
  facet normal 0 1 -0
    outer loop
      vertex -605 -325 -980
      vertex -625 -325 820
      vertex -605 -325 820
    endloop
  endfacet
  facet normal 0 1 0
    outer loop
      vertex -625 -325 820
      vertex -605 -325 -980
      vertex -625 -325 -980
    endloop
  endfacet
  facet normal -1 0 0
    outer loop
      vertex -575 -505 -1079.75
      vertex -575 505 -1000
      vertex -575 505 -1079.75
    endloop
  endfacet
  facet normal -1 -0 0
    outer loop
      vertex -575 505 -1000
      vertex -575 -505 -1079.75
      vertex -575 -505 -1000
    endloop
  endfacet
  facet normal 1 -0 0
    outer loop
      vertex 575 -505 -1000
      vertex 575 505 -1079.75
      vertex 575 505 -1000
    endloop
  endfacet
  facet normal 1 0 0
    outer loop
      vertex 575 505 -1079.75
      vertex 575 -505 -1000
      vertex 575 -505 -1079.75
    endloop
  endfacet
  facet normal 0 1 -0
    outer loop
      vertex 505 575 -1079.75
      vertex -505 575 -1000
      vertex 505 575 -1000
    endloop
  endfacet
  facet normal 0 1 0
    outer loop
      vertex -505 575 -1000
      vertex 505 575 -1079.75
      vertex -505 575 -1079.75
    endloop
  endfacet
  facet normal 0 0 -1
    outer loop
      vertex -505 565 -1079.75
      vertex 505 575 -1079.75
      vertex 505 565 -1079.75
    endloop
  endfacet
  facet normal -0 0 -1
    outer loop
      vertex 505 575 -1079.75
      vertex -505 565 -1079.75
      vertex -505 575 -1079.75
    endloop
  endfacet
  facet normal 0 0 -1
    outer loop
      vertex 565 -505 -1079.75
      vertex 575 505 -1079.75
      vertex 575 -505 -1079.75
    endloop
  endfacet
  facet normal -0 0 -1
    outer loop
      vertex 575 505 -1079.75
      vertex 565 -505 -1079.75
      vertex 565 505 -1079.75
    endloop
  endfacet
  facet normal 0 0 -1
    outer loop
      vertex -575 -505 -1079.75
      vertex -565 505 -1079.75
      vertex -565 -505 -1079.75
    endloop
  endfacet
  facet normal -0 0 -1
    outer loop
      vertex -565 505 -1079.75
      vertex -575 -505 -1079.75
      vertex -575 505 -1079.75
    endloop
  endfacet
  facet normal 0 0 -1
    outer loop
      vertex -505 -575 -1079.75
      vertex 505 -565 -1079.75
      vertex 505 -575 -1079.75
    endloop
  endfacet
  facet normal -0 0 -1
    outer loop
      vertex 505 -565 -1079.75
      vertex -505 -575 -1079.75
      vertex -505 -565 -1079.75
    endloop
  endfacet
  facet normal 0 -1 0
    outer loop
      vertex -505 -575 -1079.75
      vertex 505 -575 -1000
      vertex -505 -575 -1000
    endloop
  endfacet
  facet normal 0 -1 -0
    outer loop
      vertex 505 -575 -1000
      vertex -505 -575 -1079.75
      vertex 505 -575 -1079.75
    endloop
  endfacet
  facet normal 1 -0 0
    outer loop
      vertex -565 -505 -1000
      vertex -565 505 -1079.75
      vertex -565 505 -1000
    endloop
  endfacet
  facet normal 1 0 0
    outer loop
      vertex -565 505 -1079.75
      vertex -565 -505 -1000
      vertex -565 -505 -1079.75
    endloop
  endfacet
  facet normal -1 0 0
    outer loop
      vertex 565 -505 -1079.75
      vertex 565 505 -1000
      vertex 565 505 -1079.75
    endloop
  endfacet
  facet normal -1 -0 0
    outer loop
      vertex 565 505 -1000
      vertex 565 -505 -1079.75
      vertex 565 -505 -1000
    endloop
  endfacet
  facet normal 0 -1 0
    outer loop
      vertex -505 565 -1079.75
      vertex 505 565 -1000
      vertex -505 565 -1000
    endloop
  endfacet
  facet normal 0 -1 -0
    outer loop
      vertex 505 565 -1000
      vertex -505 565 -1079.75
      vertex 505 565 -1079.75
    endloop
  endfacet
  facet normal 0 1 -0
    outer loop
      vertex 505 -565 -1079.75
      vertex -505 -565 -1000
      vertex 505 -565 -1000
    endloop
  endfacet
  facet normal 0 1 0
    outer loop
      vertex -505 -565 -1000
      vertex 505 -565 -1079.75
      vertex -505 -565 -1079.75
    endloop
  endfacet
  facet normal -1 0 0
    outer loop
      vertex 505 585 -1149.75
      vertex 505 575 -1079.75
      vertex 505 585 -1000
    endloop
  endfacet
  facet normal -1 0 0
    outer loop
      vertex 505 585 -1149.75
      vertex 505 565 -1079.75
      vertex 505 575 -1079.75
    endloop
  endfacet
  facet normal -1 0 0
    outer loop
      vertex 505 505 -1149.75
      vertex 505 565 -1079.75
      vertex 505 585 -1149.75
    endloop
  endfacet
  facet normal -1 0 0
    outer loop
      vertex 505 505 -1000
      vertex 505 565 -1079.75
      vertex 505 505 -1149.75
    endloop
  endfacet
  facet normal -1 0 0
    outer loop
      vertex 505 565 -1079.75
      vertex 505 505 -1000
      vertex 505 565 -1000
    endloop
  endfacet
  facet normal -1 -0 0
    outer loop
      vertex 505 585 -1000
      vertex 505 575 -1079.75
      vertex 505 575 -1000
    endloop
  endfacet
  facet normal 1 -0 0
    outer loop
      vertex 585 505 -1000
      vertex 585 585 -1149.75
      vertex 585 585 -1000
    endloop
  endfacet
  facet normal 1 0 0
    outer loop
      vertex 585 585 -1149.75
      vertex 585 505 -1000
      vertex 585 505 -1149.75
    endloop
  endfacet
  facet normal 0 0 -1
    outer loop
      vertex 505 505 -1149.75
      vertex 585 585 -1149.75
      vertex 585 505 -1149.75
    endloop
  endfacet
  facet normal -0 0 -1
    outer loop
      vertex 585 585 -1149.75
      vertex 505 505 -1149.75
      vertex 505 585 -1149.75
    endloop
  endfacet
  facet normal 0 -1 0
    outer loop
      vertex 505 505 -1000
      vertex 565 505 -1079.75
      vertex 565 505 -1000
    endloop
  endfacet
  facet normal 0 -1 0
    outer loop
      vertex 585 505 -1149.75
      vertex 565 505 -1079.75
      vertex 505 505 -1149.75
    endloop
  endfacet
  facet normal 0 -1 0
    outer loop
      vertex 505 505 -1149.75
      vertex 565 505 -1079.75
      vertex 505 505 -1000
    endloop
  endfacet
  facet normal 0 -1 0
    outer loop
      vertex 575 505 -1079.75
      vertex 585 505 -1000
      vertex 575 505 -1000
    endloop
  endfacet
  facet normal 0 -1 0
    outer loop
      vertex 575 505 -1079.75
      vertex 585 505 -1149.75
      vertex 585 505 -1000
    endloop
  endfacet
  facet normal 0 -1 0
    outer loop
      vertex 565 505 -1079.75
      vertex 585 505 -1149.75
      vertex 575 505 -1079.75
    endloop
  endfacet
  facet normal 0 1 -0
    outer loop
      vertex 585 585 -1149.75
      vertex 505 585 -1000
      vertex 585 585 -1000
    endloop
  endfacet
  facet normal 0 1 0
    outer loop
      vertex 505 585 -1000
      vertex 585 585 -1149.75
      vertex 505 585 -1149.75
    endloop
  endfacet
  facet normal -1 0 0
    outer loop
      vertex -585 505 -1149.75
      vertex -585 585 -1000
      vertex -585 585 -1149.75
    endloop
  endfacet
  facet normal -1 -0 0
    outer loop
      vertex -585 585 -1000
      vertex -585 505 -1149.75
      vertex -585 505 -1000
    endloop
  endfacet
  facet normal 1 0 0
    outer loop
      vertex -505 565 -1000
      vertex -505 505 -1000
      vertex -505 565 -1079.75
    endloop
  endfacet
  facet normal 1 0 0
    outer loop
      vertex -505 575 -1079.75
      vertex -505 585 -1000
      vertex -505 575 -1000
    endloop
  endfacet
  facet normal 1 0 0
    outer loop
      vertex -505 585 -1000
      vertex -505 575 -1079.75
      vertex -505 585 -1149.75
    endloop
  endfacet
  facet normal 1 -0 0
    outer loop
      vertex -505 565 -1079.75
      vertex -505 585 -1149.75
      vertex -505 575 -1079.75
    endloop
  endfacet
  facet normal 1 0 0
    outer loop
      vertex -505 505 -1149.75
      vertex -505 565 -1079.75
      vertex -505 505 -1000
    endloop
  endfacet
  facet normal 1 0 0
    outer loop
      vertex -505 565 -1079.75
      vertex -505 505 -1149.75
      vertex -505 585 -1149.75
    endloop
  endfacet
  facet normal 0 0 -1
    outer loop
      vertex -585 505 -1149.75
      vertex -505 585 -1149.75
      vertex -505 505 -1149.75
    endloop
  endfacet
  facet normal -0 0 -1
    outer loop
      vertex -505 585 -1149.75
      vertex -585 505 -1149.75
      vertex -585 585 -1149.75
    endloop
  endfacet
  facet normal 0 -1 0
    outer loop
      vertex -585 505 -1000
      vertex -575 505 -1079.75
      vertex -575 505 -1000
    endloop
  endfacet
  facet normal 0 -1 -0
    outer loop
      vertex -575 505 -1079.75
      vertex -585 505 -1149.75
      vertex -565 505 -1079.75
    endloop
  endfacet
  facet normal 0 -1 0
    outer loop
      vertex -585 505 -1149.75
      vertex -575 505 -1079.75
      vertex -585 505 -1000
    endloop
  endfacet
  facet normal 0 -1 0
    outer loop
      vertex -565 505 -1079.75
      vertex -505 505 -1000
      vertex -565 505 -1000
    endloop
  endfacet
  facet normal 0 -1 0
    outer loop
      vertex -505 505 -1149.75
      vertex -565 505 -1079.75
      vertex -585 505 -1149.75
    endloop
  endfacet
  facet normal 0 -1 0
    outer loop
      vertex -565 505 -1079.75
      vertex -505 505 -1149.75
      vertex -505 505 -1000
    endloop
  endfacet
  facet normal 0 1 -0
    outer loop
      vertex -505 585 -1149.75
      vertex -585 585 -1000
      vertex -505 585 -1000
    endloop
  endfacet
  facet normal 0 1 0
    outer loop
      vertex -585 585 -1000
      vertex -505 585 -1149.75
      vertex -585 585 -1149.75
    endloop
  endfacet
  facet normal -1 0 0
    outer loop
      vertex -585 -585 -1149.75
      vertex -585 -505 -1000
      vertex -585 -505 -1149.75
    endloop
  endfacet
  facet normal -1 -0 0
    outer loop
      vertex -585 -505 -1000
      vertex -585 -585 -1149.75
      vertex -585 -585 -1000
    endloop
  endfacet
  facet normal 1 0 0
    outer loop
      vertex -505 -575 -1000
      vertex -505 -585 -1000
      vertex -505 -575 -1079.75
    endloop
  endfacet
  facet normal 1 0 0
    outer loop
      vertex -505 -565 -1079.75
      vertex -505 -505 -1000
      vertex -505 -565 -1000
    endloop
  endfacet
  facet normal 1 0 0
    outer loop
      vertex -505 -505 -1000
      vertex -505 -565 -1079.75
      vertex -505 -505 -1149.75
    endloop
  endfacet
  facet normal 1 0 0
    outer loop
      vertex -505 -585 -1149.75
      vertex -505 -565 -1079.75
      vertex -505 -575 -1079.75
    endloop
  endfacet
  facet normal 1 0 0
    outer loop
      vertex -505 -565 -1079.75
      vertex -505 -585 -1149.75
      vertex -505 -505 -1149.75
    endloop
  endfacet
  facet normal 1 0 0
    outer loop
      vertex -505 -585 -1149.75
      vertex -505 -575 -1079.75
      vertex -505 -585 -1000
    endloop
  endfacet
  facet normal 0 0 -1
    outer loop
      vertex -585 -585 -1149.75
      vertex -505 -505 -1149.75
      vertex -505 -585 -1149.75
    endloop
  endfacet
  facet normal -0 0 -1
    outer loop
      vertex -505 -505 -1149.75
      vertex -585 -585 -1149.75
      vertex -585 -505 -1149.75
    endloop
  endfacet
  facet normal 0 -1 0
    outer loop
      vertex -585 -585 -1149.75
      vertex -505 -585 -1000
      vertex -585 -585 -1000
    endloop
  endfacet
  facet normal 0 -1 -0
    outer loop
      vertex -505 -585 -1000
      vertex -585 -585 -1149.75
      vertex -505 -585 -1149.75
    endloop
  endfacet
  facet normal 0 1 0
    outer loop
      vertex -505 -505 -1000
      vertex -565 -505 -1079.75
      vertex -565 -505 -1000
    endloop
  endfacet
  facet normal 0 1 0
    outer loop
      vertex -585 -505 -1149.75
      vertex -565 -505 -1079.75
      vertex -505 -505 -1149.75
    endloop
  endfacet
  facet normal 0 1 -0
    outer loop
      vertex -505 -505 -1149.75
      vertex -565 -505 -1079.75
      vertex -505 -505 -1000
    endloop
  endfacet
  facet normal 0 1 -0
    outer loop
      vertex -575 -505 -1079.75
      vertex -585 -505 -1000
      vertex -575 -505 -1000
    endloop
  endfacet
  facet normal 0 1 0
    outer loop
      vertex -575 -505 -1079.75
      vertex -585 -505 -1149.75
      vertex -585 -505 -1000
    endloop
  endfacet
  facet normal 0 1 0
    outer loop
      vertex -565 -505 -1079.75
      vertex -585 -505 -1149.75
      vertex -575 -505 -1079.75
    endloop
  endfacet
  facet normal -1 0 0
    outer loop
      vertex 505 -505 -1149.75
      vertex 505 -565 -1079.75
      vertex 505 -505 -1000
    endloop
  endfacet
  facet normal -1 0 0
    outer loop
      vertex 505 -585 -1149.75
      vertex 505 -565 -1079.75
      vertex 505 -505 -1149.75
    endloop
  endfacet
  facet normal -1 -0 0
    outer loop
      vertex 505 -565 -1079.75
      vertex 505 -585 -1149.75
      vertex 505 -575 -1079.75
    endloop
  endfacet
  facet normal -1 0 0
    outer loop
      vertex 505 -585 -1000
      vertex 505 -575 -1079.75
      vertex 505 -585 -1149.75
    endloop
  endfacet
  facet normal -1 0 0
    outer loop
      vertex 505 -575 -1079.75
      vertex 505 -585 -1000
      vertex 505 -575 -1000
    endloop
  endfacet
  facet normal -1 -0 0
    outer loop
      vertex 505 -505 -1000
      vertex 505 -565 -1079.75
      vertex 505 -565 -1000
    endloop
  endfacet
  facet normal 1 -0 0
    outer loop
      vertex 585 -585 -1000
      vertex 585 -505 -1149.75
      vertex 585 -505 -1000
    endloop
  endfacet
  facet normal 1 0 0
    outer loop
      vertex 585 -505 -1149.75
      vertex 585 -585 -1000
      vertex 585 -585 -1149.75
    endloop
  endfacet
  facet normal 0 0 -1
    outer loop
      vertex 505 -585 -1149.75
      vertex 585 -505 -1149.75
      vertex 585 -585 -1149.75
    endloop
  endfacet
  facet normal -0 0 -1
    outer loop
      vertex 585 -505 -1149.75
      vertex 505 -585 -1149.75
      vertex 505 -505 -1149.75
    endloop
  endfacet
  facet normal 0 -1 0
    outer loop
      vertex 505 -585 -1149.75
      vertex 585 -585 -1000
      vertex 505 -585 -1000
    endloop
  endfacet
  facet normal 0 -1 -0
    outer loop
      vertex 585 -585 -1000
      vertex 505 -585 -1149.75
      vertex 585 -585 -1149.75
    endloop
  endfacet
  facet normal 0 1 0
    outer loop
      vertex 585 -505 -1000
      vertex 575 -505 -1079.75
      vertex 575 -505 -1000
    endloop
  endfacet
  facet normal 0 1 0
    outer loop
      vertex 575 -505 -1079.75
      vertex 585 -505 -1149.75
      vertex 565 -505 -1079.75
    endloop
  endfacet
  facet normal 0 1 -0
    outer loop
      vertex 585 -505 -1149.75
      vertex 575 -505 -1079.75
      vertex 585 -505 -1000
    endloop
  endfacet
  facet normal 0 1 -0
    outer loop
      vertex 565 -505 -1079.75
      vertex 505 -505 -1000
      vertex 565 -505 -1000
    endloop
  endfacet
  facet normal 0 1 0
    outer loop
      vertex 505 -505 -1149.75
      vertex 565 -505 -1079.75
      vertex 585 -505 -1149.75
    endloop
  endfacet
  facet normal 0 1 0
    outer loop
      vertex 565 -505 -1079.75
      vertex 505 -505 -1149.75
      vertex 505 -505 -1000
    endloop
  endfacet
endsolid OpenSCAD_Model
