solid OpenSCAD_Model
  facet normal -1 0 0
    outer loop
      vertex -50 -25 0
      vertex -50 25 200
      vertex -50 25 0
    endloop
  endfacet
  facet normal -1 -0 0
    outer loop
      vertex -50 25 200
      vertex -50 -25 0
      vertex -50 -25 200
    endloop
  endfacet
  facet normal -0 0 1
    outer loop
      vertex -50 25 200
      vertex 50 -25 200
      vertex 50 25 200
    endloop
  endfacet
  facet normal 0 0 1
    outer loop
      vertex 50 -25 200
      vertex -50 25 200
      vertex -50 -25 200
    endloop
  endfacet
  facet normal 1 -0 0
    outer loop
      vertex 50 -25 200
      vertex 50 25 0
      vertex 50 25 200
    endloop
  endfacet
  facet normal 1 0 0
    outer loop
      vertex 50 25 0
      vertex 50 -25 200
      vertex 50 -25 0
    endloop
  endfacet
  facet normal 0 0 -1
    outer loop
      vertex -50 -25 0
      vertex 50 25 0
      vertex 50 -25 0
    endloop
  endfacet
  facet normal -0 0 -1
    outer loop
      vertex 50 25 0
      vertex -50 -25 0
      vertex -50 25 0
    endloop
  endfacet
  facet normal 0 -1 0
    outer loop
      vertex -50 -25 0
      vertex 50 -25 200
      vertex -50 -25 200
    endloop
  endfacet
  facet normal 0 -1 -0
    outer loop
      vertex 50 -25 200
      vertex -50 -25 0
      vertex 50 -25 0
    endloop
  endfacet
  facet normal 0 1 -0
    outer loop
      vertex 50 25 0
      vertex -50 25 200
      vertex 50 25 200
    endloop
  endfacet
  facet normal 0 1 0
    outer loop
      vertex -50 25 200
      vertex 50 25 0
      vertex -50 25 0
    endloop
  endfacet
  facet normal 1 -0 0
    outer loop
      vertex -49 -24 199
      vertex -49 24 1
      vertex -49 24 199
    endloop
  endfacet
  facet normal 1 0 0
    outer loop
      vertex -49 24 1
      vertex -49 -24 199
      vertex -49 -24 1
    endloop
  endfacet
  facet normal 0 0 -1
    outer loop
      vertex -49 -24 199
      vertex 49 24 199
      vertex 49 -24 199
    endloop
  endfacet
  facet normal -0 0 -1
    outer loop
      vertex 49 24 199
      vertex -49 -24 199
      vertex -49 24 199
    endloop
  endfacet
  facet normal -1 0 0
    outer loop
      vertex 49 -24 1
      vertex 49 24 199
      vertex 49 24 1
    endloop
  endfacet
  facet normal -1 -0 0
    outer loop
      vertex 49 24 199
      vertex 49 -24 1
      vertex 49 -24 199
    endloop
  endfacet
  facet normal 0 -1 0
    outer loop
      vertex -49 24 1
      vertex 49 24 199
      vertex -49 24 199
    endloop
  endfacet
  facet normal 0 -1 -0
    outer loop
      vertex 49 24 199
      vertex -49 24 1
      vertex 49 24 1
    endloop
  endfacet
  facet normal -0 0 1
    outer loop
      vertex -49 24 1
      vertex 49 -24 1
      vertex 49 24 1
    endloop
  endfacet
  facet normal 0 0 1
    outer loop
      vertex 49 -24 1
      vertex -49 24 1
      vertex -49 -24 1
    endloop
  endfacet
  facet normal 0 1 -0
    outer loop
      vertex 49 -24 1
      vertex -49 -24 199
      vertex 49 -24 199
    endloop
  endfacet
  facet normal 0 1 0
    outer loop
      vertex -49 -24 199
      vertex 49 -24 1
      vertex -49 -24 1
    endloop
  endfacet
endsolid OpenSCAD_Model
