solid OpenSCAD_Model
  facet normal -1 0 0
    outer loop
      vertex -5 -7.5 -17
      vertex -5 -5 -7
      vertex -5 -5 -17
    endloop
  endfacet
  facet normal -1 -0 0
    outer loop
      vertex -5 -5 -7
      vertex -5 -7.5 -17
      vertex -5 -7.5 -7
    endloop
  endfacet
  facet normal -1 0 0
    outer loop
      vertex -5 -5 -7
      vertex -5 5 -7
      vertex -5 -5 -17
    endloop
  endfacet
  facet normal -1 0 0
    outer loop
      vertex -5 5 -7
      vertex -5 -5 -7
      vertex -5 5 0
    endloop
  endfacet
  facet normal -1 -0 0
    outer loop
      vertex -5 5 0
      vertex -5 -5 -7
      vertex -5 -5 0
    endloop
  endfacet
  facet normal 1 -0 0
    outer loop
      vertex 5 -5 2.22045e-15
      vertex 5 5 -7
      vertex 5 5 2.22045e-15
    endloop
  endfacet
  facet normal 1 0 0
    outer loop
      vertex 5 -5 -7
      vertex 5 5 -7
      vertex 5 -5 2.22045e-15
    endloop
  endfacet
  facet normal 1 -0 0
    outer loop
      vertex 5 -5 -7
      vertex 5 -5 -17
      vertex 5 5 -7
    endloop
  endfacet
  facet normal 1 -0 0
    outer loop
      vertex 5 -7.5 -7
      vertex 5 -5 -17
      vertex 5 -5 -7
    endloop
  endfacet
  facet normal 1 0 0
    outer loop
      vertex 5 -5 -17
      vertex 5 -7.5 -7
      vertex 5 -7.5 -17
    endloop
  endfacet
  facet normal 0 1 -0
    outer loop
      vertex 5 5 -7
      vertex -5 5 0
      vertex 5 5 2.22045e-15
    endloop
  endfacet
  facet normal 0 1 0
    outer loop
      vertex -5 5 0
      vertex 5 5 -7
      vertex -5 5 -7
    endloop
  endfacet
  facet normal -2.22045e-16 0 1
    outer loop
      vertex 5 5 2.22045e-15
      vertex 4.5 4.5 2.10942e-15
      vertex 5 -5 2.22045e-15
    endloop
  endfacet
  facet normal -2.22045e-16 0 1
    outer loop
      vertex 5 5 2.22045e-15
      vertex -4.5 4.5 1.11022e-16
      vertex 4.5 4.5 2.10942e-15
    endloop
  endfacet
  facet normal -2.22045e-16 0 1
    outer loop
      vertex -4.5 4.5 1.11022e-16
      vertex -5 5 0
      vertex -4.5 -4.5 1.11022e-16
    endloop
  endfacet
  facet normal -2.22045e-16 0 1
    outer loop
      vertex -5 5 0
      vertex -4.5 4.5 1.11022e-16
      vertex 5 5 2.22045e-15
    endloop
  endfacet
  facet normal -2.22045e-16 0 1
    outer loop
      vertex 4.5 -4.5 2.10942e-15
      vertex 5 -5 2.22045e-15
      vertex 4.5 4.5 2.10942e-15
    endloop
  endfacet
  facet normal -2.22045e-16 0 1
    outer loop
      vertex -4.5 -4.5 1.11022e-16
      vertex 5 -5 2.22045e-15
      vertex 4.5 -4.5 2.10942e-15
    endloop
  endfacet
  facet normal -2.22045e-16 0 1
    outer loop
      vertex -4.5 -4.5 1.11022e-16
      vertex -5 -5 0
      vertex 5 -5 2.22045e-15
    endloop
  endfacet
  facet normal -2.22045e-16 0 1
    outer loop
      vertex -5 -5 0
      vertex -4.5 -4.5 1.11022e-16
      vertex -5 5 0
    endloop
  endfacet
  facet normal 0 -1 0
    outer loop
      vertex -5 -5 -7
      vertex 5 -5 2.22045e-15
      vertex -5 -5 0
    endloop
  endfacet
  facet normal 0 -1 -0
    outer loop
      vertex 5 -5 2.22045e-15
      vertex -5 -5 -7
      vertex 5 -5 -7
    endloop
  endfacet
  facet normal -0 0 1
    outer loop
      vertex -5 -5 -7
      vertex 5 -7.5 -7
      vertex 5 -5 -7
    endloop
  endfacet
  facet normal 0 0 1
    outer loop
      vertex 5 -7.5 -7
      vertex -5 -5 -7
      vertex -5 -7.5 -7
    endloop
  endfacet
  facet normal 0 -1 0
    outer loop
      vertex -6.5 -8 -5.5
      vertex -4.5 -8 -7.5
      vertex 6.5 -8 -5.5
    endloop
  endfacet
  facet normal 0 -1 0
    outer loop
      vertex -6.5 -8 -5.5
      vertex -4.5 -8 -16.5
      vertex -4.5 -8 -7.5
    endloop
  endfacet
  facet normal 0 -1 -0
    outer loop
      vertex -4.5 -8 -16.5
      vertex -6.5 -8 -18.5
      vertex 4.5 -8 -16.5
    endloop
  endfacet
  facet normal 0 -1 0
    outer loop
      vertex -6.5 -8 -18.5
      vertex -4.5 -8 -16.5
      vertex -6.5 -8 -5.5
    endloop
  endfacet
  facet normal 0 -1 0
    outer loop
      vertex 4.5 -8 -7.5
      vertex 6.5 -8 -5.5
      vertex -4.5 -8 -7.5
    endloop
  endfacet
  facet normal 0 -1 0
    outer loop
      vertex 4.5 -8 -16.5
      vertex 6.5 -8 -5.5
      vertex 4.5 -8 -7.5
    endloop
  endfacet
  facet normal 0 -1 0
    outer loop
      vertex 4.5 -8 -16.5
      vertex 6.5 -8 -18.5
      vertex 6.5 -8 -5.5
    endloop
  endfacet
  facet normal 0 -1 0
    outer loop
      vertex 6.5 -8 -18.5
      vertex 4.5 -8 -16.5
      vertex -6.5 -8 -18.5
    endloop
  endfacet
  facet normal 0 0 -1
    outer loop
      vertex -5 -7.5 -17
      vertex 5 -5 -17
      vertex 5 -7.5 -17
    endloop
  endfacet
  facet normal -0 0 -1
    outer loop
      vertex 5 -5 -17
      vertex -5 -7.5 -17
      vertex -5 -5 -17
    endloop
  endfacet
  facet normal 0 0.707107 -0.707107
    outer loop
      vertex 5 -5 -17
      vertex -5 5 -7
      vertex 5 5 -7
    endloop
  endfacet
  facet normal 0 0.707107 -0.707107
    outer loop
      vertex -5 5 -7
      vertex 5 -5 -17
      vertex -5 -5 -17
    endloop
  endfacet
  facet normal 1 -0 0
    outer loop
      vertex 6.5 -8 -5.5
      vertex 6.5 -7.5 -18.5
      vertex 6.5 -7.5 -5.5
    endloop
  endfacet
  facet normal 1 0 0
    outer loop
      vertex 6.5 -7.5 -18.5
      vertex 6.5 -8 -5.5
      vertex 6.5 -8 -18.5
    endloop
  endfacet
  facet normal 0 1 0
    outer loop
      vertex 6.5 -7.5 -5.5
      vertex 5 -7.5 -7
      vertex -6.5 -7.5 -5.5
    endloop
  endfacet
  facet normal 0 1 0
    outer loop
      vertex 6.5 -7.5 -5.5
      vertex 5 -7.5 -17
      vertex 5 -7.5 -7
    endloop
  endfacet
  facet normal 0 1 0
    outer loop
      vertex 5 -7.5 -17
      vertex 6.5 -7.5 -18.5
      vertex -5 -7.5 -17
    endloop
  endfacet
  facet normal 0 1 -0
    outer loop
      vertex 6.5 -7.5 -18.5
      vertex 5 -7.5 -17
      vertex 6.5 -7.5 -5.5
    endloop
  endfacet
  facet normal 0 1 -0
    outer loop
      vertex -5 -7.5 -7
      vertex -6.5 -7.5 -5.5
      vertex 5 -7.5 -7
    endloop
  endfacet
  facet normal 0 1 -0
    outer loop
      vertex -5 -7.5 -17
      vertex -6.5 -7.5 -5.5
      vertex -5 -7.5 -7
    endloop
  endfacet
  facet normal 0 1 0
    outer loop
      vertex -5 -7.5 -17
      vertex -6.5 -7.5 -18.5
      vertex -6.5 -7.5 -5.5
    endloop
  endfacet
  facet normal 0 1 0
    outer loop
      vertex -6.5 -7.5 -18.5
      vertex -5 -7.5 -17
      vertex 6.5 -7.5 -18.5
    endloop
  endfacet
  facet normal -1 0 0
    outer loop
      vertex -6.5 -8 -18.5
      vertex -6.5 -7.5 -5.5
      vertex -6.5 -7.5 -18.5
    endloop
  endfacet
  facet normal -1 -0 0
    outer loop
      vertex -6.5 -7.5 -5.5
      vertex -6.5 -8 -18.5
      vertex -6.5 -8 -5.5
    endloop
  endfacet
  facet normal 0 0 -1
    outer loop
      vertex -6.5 -8 -18.5
      vertex 6.5 -7.5 -18.5
      vertex 6.5 -8 -18.5
    endloop
  endfacet
  facet normal -0 0 -1
    outer loop
      vertex 6.5 -7.5 -18.5
      vertex -6.5 -8 -18.5
      vertex -6.5 -7.5 -18.5
    endloop
  endfacet
  facet normal -0 0 1
    outer loop
      vertex -6.5 -7.5 -5.5
      vertex 6.5 -8 -5.5
      vertex 6.5 -7.5 -5.5
    endloop
  endfacet
  facet normal 0 0 1
    outer loop
      vertex 6.5 -8 -5.5
      vertex -6.5 -7.5 -5.5
      vertex -6.5 -8 -5.5
    endloop
  endfacet
  facet normal 1 -0 0
    outer loop
      vertex -4.5 -4.5 1.11022e-16
      vertex -4.5 4.5 -7
      vertex -4.5 4.5 1.11022e-16
    endloop
  endfacet
  facet normal 1 0 0
    outer loop
      vertex -4.5 -4.5 -7.5
      vertex -4.5 4.5 -7
      vertex -4.5 -4.5 1.11022e-16
    endloop
  endfacet
  facet normal 1 -0 0
    outer loop
      vertex -4.5 -4.5 -7.5
      vertex -4.5 -5 -16.5
      vertex -4.5 4.5 -7
    endloop
  endfacet
  facet normal 1 -0 0
    outer loop
      vertex -4.5 -8 -7.5
      vertex -4.5 -5 -16.5
      vertex -4.5 -4.5 -7.5
    endloop
  endfacet
  facet normal 1 0 0
    outer loop
      vertex -4.5 -5 -16.5
      vertex -4.5 -8 -7.5
      vertex -4.5 -8 -16.5
    endloop
  endfacet
  facet normal -1 0 0
    outer loop
      vertex 4.5 -4.5 2.10942e-15
      vertex 4.5 4.5 -7
      vertex 4.5 -4.5 -7.5
    endloop
  endfacet
  facet normal -1 0 0
    outer loop
      vertex 4.5 -5 -16.5
      vertex 4.5 -4.5 -7.5
      vertex 4.5 4.5 -7
    endloop
  endfacet
  facet normal -1 0 0
    outer loop
      vertex 4.5 -8 -7.5
      vertex 4.5 -5 -16.5
      vertex 4.5 -8 -16.5
    endloop
  endfacet
  facet normal -1 0 0
    outer loop
      vertex 4.5 -5 -16.5
      vertex 4.5 -8 -7.5
      vertex 4.5 -4.5 -7.5
    endloop
  endfacet
  facet normal -1 0 0
    outer loop
      vertex 4.5 4.5 -7
      vertex 4.5 -4.5 2.10942e-15
      vertex 4.5 4.5 2.10942e-15
    endloop
  endfacet
  facet normal 0 -1 0
    outer loop
      vertex -4.5 4.5 -7
      vertex 4.5 4.5 2.10942e-15
      vertex -4.5 4.5 1.11022e-16
    endloop
  endfacet
  facet normal 0 -1 -0
    outer loop
      vertex 4.5 4.5 2.10942e-15
      vertex -4.5 4.5 -7
      vertex 4.5 4.5 -7
    endloop
  endfacet
  facet normal 0 1 -0
    outer loop
      vertex 4.5 -4.5 -7.5
      vertex -4.5 -4.5 1.11022e-16
      vertex 4.5 -4.5 2.10942e-15
    endloop
  endfacet
  facet normal 0 1 0
    outer loop
      vertex -4.5 -4.5 1.11022e-16
      vertex 4.5 -4.5 -7.5
      vertex -4.5 -4.5 -7.5
    endloop
  endfacet
  facet normal 0 0 -1
    outer loop
      vertex -4.5 -8 -7.5
      vertex 4.5 -4.5 -7.5
      vertex 4.5 -8 -7.5
    endloop
  endfacet
  facet normal -0 0 -1
    outer loop
      vertex 4.5 -4.5 -7.5
      vertex -4.5 -8 -7.5
      vertex -4.5 -4.5 -7.5
    endloop
  endfacet
  facet normal -0 0 1
    outer loop
      vertex -4.5 -5 -16.5
      vertex 4.5 -8 -16.5
      vertex 4.5 -5 -16.5
    endloop
  endfacet
  facet normal 0 0 1
    outer loop
      vertex 4.5 -8 -16.5
      vertex -4.5 -5 -16.5
      vertex -4.5 -8 -16.5
    endloop
  endfacet
  facet normal 0 -0.707107 0.707107
    outer loop
      vertex -4.5 -5 -16.5
      vertex 4.5 4.5 -7
      vertex -4.5 4.5 -7
    endloop
  endfacet
  facet normal 0 -0.707107 0.707107
    outer loop
      vertex 4.5 4.5 -7
      vertex -4.5 -5 -16.5
      vertex 4.5 -5 -16.5
    endloop
  endfacet
endsolid OpenSCAD_Model
