solid OpenSCAD_Model
  facet normal -1 0 0
    outer loop
      vertex -50 -46 0.4
      vertex -50 -50 0.4
      vertex -50 -46 76
    endloop
  endfacet
  facet normal -1 0 0
    outer loop
      vertex -50 46 76
      vertex -50 50 0.4
      vertex -50 46 0.4
    endloop
  endfacet
  facet normal -1 0 0
    outer loop
      vertex -50 50 0.4
      vertex -50 46 76
      vertex -50 50 80
    endloop
  endfacet
  facet normal -1 0 0
    outer loop
      vertex -50 -46 76
      vertex -50 50 80
      vertex -50 46 76
    endloop
  endfacet
  facet normal -1 0 0
    outer loop
      vertex -50 -46 76
      vertex -50 -50 80
      vertex -50 50 80
    endloop
  endfacet
  facet normal -1 0 0
    outer loop
      vertex -50 -50 80
      vertex -50 -46 76
      vertex -50 -50 0.4
    endloop
  endfacet
  facet normal 0 0 1
    outer loop
      vertex 50 50 80
      vertex 46 46 80
      vertex 50 -50 80
    endloop
  endfacet
  facet normal 0 0 1
    outer loop
      vertex 50 50 80
      vertex -46 46 80
      vertex 46 46 80
    endloop
  endfacet
  facet normal 0 0 1
    outer loop
      vertex -46 46 80
      vertex -50 50 80
      vertex -46 -46 80
    endloop
  endfacet
  facet normal -0 0 1
    outer loop
      vertex -50 50 80
      vertex -46 46 80
      vertex 50 50 80
    endloop
  endfacet
  facet normal -0 0 1
    outer loop
      vertex 46 -46 80
      vertex 50 -50 80
      vertex 46 46 80
    endloop
  endfacet
  facet normal -0 0 1
    outer loop
      vertex -46 -46 80
      vertex 50 -50 80
      vertex 46 -46 80
    endloop
  endfacet
  facet normal 0 0 1
    outer loop
      vertex -46 -46 80
      vertex -50 -50 80
      vertex 50 -50 80
    endloop
  endfacet
  facet normal 0 0 1
    outer loop
      vertex -50 -50 80
      vertex -46 -46 80
      vertex -50 50 80
    endloop
  endfacet
  facet normal 1 0 0
    outer loop
      vertex 50 50 80
      vertex 50 46 76
      vertex 50 50 0.4
    endloop
  endfacet
  facet normal 1 0 0
    outer loop
      vertex 50 50 80
      vertex 50 -46 76
      vertex 50 46 76
    endloop
  endfacet
  facet normal 1 -0 0
    outer loop
      vertex 50 -50 80
      vertex 50 -46 76
      vertex 50 50 80
    endloop
  endfacet
  facet normal 1 0 0
    outer loop
      vertex 50 -50 0.4
      vertex 50 -46 76
      vertex 50 -50 80
    endloop
  endfacet
  facet normal 1 0 0
    outer loop
      vertex 50 -46 76
      vertex 50 -50 0.4
      vertex 50 -46 0.4
    endloop
  endfacet
  facet normal 1 0 0
    outer loop
      vertex 50 50 0.4
      vertex 50 46 76
      vertex 50 46 0.4
    endloop
  endfacet
  facet normal 0 1 0
    outer loop
      vertex 50 50 80
      vertex 46 50 76
      vertex -50 50 80
    endloop
  endfacet
  facet normal 0 1 -0
    outer loop
      vertex 50 50 0.4
      vertex 46 50 76
      vertex 50 50 80
    endloop
  endfacet
  facet normal 0 1 0
    outer loop
      vertex 46 50 76
      vertex 50 50 0.4
      vertex 46 50 0.4
    endloop
  endfacet
  facet normal 0 1 -0
    outer loop
      vertex -46 50 76
      vertex -50 50 80
      vertex 46 50 76
    endloop
  endfacet
  facet normal 0 1 0
    outer loop
      vertex -50 50 0.4
      vertex -46 50 76
      vertex -46 50 0.4
    endloop
  endfacet
  facet normal 0 1 0
    outer loop
      vertex -46 50 76
      vertex -50 50 0.4
      vertex -50 50 80
    endloop
  endfacet
  facet normal 0 0 -1
    outer loop
      vertex -46 -50 76
      vertex 46 -46 76
      vertex 46 -50 76
    endloop
  endfacet
  facet normal -0 0 -1
    outer loop
      vertex 46 -46 76
      vertex -46 -50 76
      vertex -46 -46 76
    endloop
  endfacet
  facet normal 0 0 -1
    outer loop
      vertex -50 -46 76
      vertex -46 46 76
      vertex -46 -46 76
    endloop
  endfacet
  facet normal -0 0 -1
    outer loop
      vertex -46 46 76
      vertex -50 -46 76
      vertex -50 46 76
    endloop
  endfacet
  facet normal 0 0 -1
    outer loop
      vertex -46 46 76
      vertex 46 50 76
      vertex 46 46 76
    endloop
  endfacet
  facet normal -0 0 -1
    outer loop
      vertex 46 50 76
      vertex -46 46 76
      vertex -46 50 76
    endloop
  endfacet
  facet normal 0 0 -1
    outer loop
      vertex 46 -46 76
      vertex 50 46 76
      vertex 50 -46 76
    endloop
  endfacet
  facet normal -0 0 -1
    outer loop
      vertex 50 46 76
      vertex 46 -46 76
      vertex 46 46 76
    endloop
  endfacet
  facet normal 0 -1 0
    outer loop
      vertex -50 -50 80
      vertex -46 -50 76
      vertex 50 -50 80
    endloop
  endfacet
  facet normal 0 -1 0
    outer loop
      vertex -50 -50 0.4
      vertex -46 -50 76
      vertex -50 -50 80
    endloop
  endfacet
  facet normal 0 -1 -0
    outer loop
      vertex -46 -50 76
      vertex -50 -50 0.4
      vertex -46 -50 0.4
    endloop
  endfacet
  facet normal 0 -1 0
    outer loop
      vertex 46 -50 76
      vertex 50 -50 80
      vertex -46 -50 76
    endloop
  endfacet
  facet normal 0 -1 0
    outer loop
      vertex 50 -50 0.4
      vertex 46 -50 76
      vertex 46 -50 0.4
    endloop
  endfacet
  facet normal 0 -1 0
    outer loop
      vertex 46 -50 76
      vertex 50 -50 0.4
      vertex 50 -50 80
    endloop
  endfacet
  facet normal 1 -0 0
    outer loop
      vertex -46 -46 80
      vertex -46 46 76
      vertex -46 46 80
    endloop
  endfacet
  facet normal 1 0 0
    outer loop
      vertex -46 46 76
      vertex -46 -46 80
      vertex -46 -46 76
    endloop
  endfacet
  facet normal -1 0 0
    outer loop
      vertex 46 -46 76
      vertex 46 46 80
      vertex 46 46 76
    endloop
  endfacet
  facet normal -1 -0 0
    outer loop
      vertex 46 46 80
      vertex 46 -46 76
      vertex 46 -46 80
    endloop
  endfacet
  facet normal 0 1 -0
    outer loop
      vertex 46 -46 76
      vertex -46 -46 80
      vertex 46 -46 80
    endloop
  endfacet
  facet normal 0 1 0
    outer loop
      vertex -46 -46 80
      vertex 46 -46 76
      vertex -46 -46 76
    endloop
  endfacet
  facet normal 0 -1 0
    outer loop
      vertex -46 46 76
      vertex 46 46 80
      vertex -46 46 80
    endloop
  endfacet
  facet normal 0 -1 -0
    outer loop
      vertex 46 46 80
      vertex -46 46 76
      vertex 46 46 76
    endloop
  endfacet
  facet normal -1 0 0
    outer loop
      vertex -49 -46 63.5
      vertex -49 46 64.5
      vertex -49 46 63.5
    endloop
  endfacet
  facet normal -1 -0 0
    outer loop
      vertex -49 46 64.5
      vertex -49 -46 63.5
      vertex -49 -46 64.5
    endloop
  endfacet
  facet normal -0 0 1
    outer loop
      vertex -46 -48 64.5
      vertex 46 -49 64.5
      vertex 46 -48 64.5
    endloop
  endfacet
  facet normal 0 0 1
    outer loop
      vertex 46 -49 64.5
      vertex -46 -48 64.5
      vertex -46 -49 64.5
    endloop
  endfacet
  facet normal -0 0 1
    outer loop
      vertex -46 49 64.5
      vertex 46 48 64.5
      vertex 46 49 64.5
    endloop
  endfacet
  facet normal 0 0 1
    outer loop
      vertex 46 48 64.5
      vertex -46 49 64.5
      vertex -46 48 64.5
    endloop
  endfacet
  facet normal -0 0 1
    outer loop
      vertex 48 46 64.5
      vertex 49 -46 64.5
      vertex 49 46 64.5
    endloop
  endfacet
  facet normal 0 0 1
    outer loop
      vertex 49 -46 64.5
      vertex 48 46 64.5
      vertex 48 -46 64.5
    endloop
  endfacet
  facet normal -0 0 1
    outer loop
      vertex -49 46 64.5
      vertex -48 -46 64.5
      vertex -48 46 64.5
    endloop
  endfacet
  facet normal 0 0 1
    outer loop
      vertex -48 -46 64.5
      vertex -49 46 64.5
      vertex -49 -46 64.5
    endloop
  endfacet
  facet normal 1 -0 0
    outer loop
      vertex 49 -46 64.5
      vertex 49 46 63.5
      vertex 49 46 64.5
    endloop
  endfacet
  facet normal 1 0 0
    outer loop
      vertex 49 46 63.5
      vertex 49 -46 64.5
      vertex 49 -46 63.5
    endloop
  endfacet
  facet normal 0 0 -1
    outer loop
      vertex -46 48 63.5
      vertex 46 49 63.5
      vertex 46 48 63.5
    endloop
  endfacet
  facet normal -0 0 -1
    outer loop
      vertex 46 49 63.5
      vertex -46 48 63.5
      vertex -46 49 63.5
    endloop
  endfacet
  facet normal 0 0 -1
    outer loop
      vertex -46 -49 63.5
      vertex 46 -48 63.5
      vertex 46 -49 63.5
    endloop
  endfacet
  facet normal -0 0 -1
    outer loop
      vertex 46 -48 63.5
      vertex -46 -49 63.5
      vertex -46 -48 63.5
    endloop
  endfacet
  facet normal 0 0 -1
    outer loop
      vertex 48 -46 63.5
      vertex 49 46 63.5
      vertex 49 -46 63.5
    endloop
  endfacet
  facet normal -0 0 -1
    outer loop
      vertex 49 46 63.5
      vertex 48 -46 63.5
      vertex 48 46 63.5
    endloop
  endfacet
  facet normal 0 0 -1
    outer loop
      vertex -49 -46 63.5
      vertex -48 46 63.5
      vertex -48 -46 63.5
    endloop
  endfacet
  facet normal -0 0 -1
    outer loop
      vertex -48 46 63.5
      vertex -49 -46 63.5
      vertex -49 46 63.5
    endloop
  endfacet
  facet normal 0 -1 0
    outer loop
      vertex -46 -49 63.5
      vertex 46 -49 64.5
      vertex -46 -49 64.5
    endloop
  endfacet
  facet normal 0 -1 -0
    outer loop
      vertex 46 -49 64.5
      vertex -46 -49 63.5
      vertex 46 -49 63.5
    endloop
  endfacet
  facet normal 0 1 -0
    outer loop
      vertex 46 49 63.5
      vertex -46 49 64.5
      vertex 46 49 64.5
    endloop
  endfacet
  facet normal 0 1 0
    outer loop
      vertex -46 49 64.5
      vertex 46 49 63.5
      vertex -46 49 63.5
    endloop
  endfacet
  facet normal 1 -0 0
    outer loop
      vertex -48 -46 64.5
      vertex -48 46 63.5
      vertex -48 46 64.5
    endloop
  endfacet
  facet normal 1 0 0
    outer loop
      vertex -48 46 63.5
      vertex -48 -46 64.5
      vertex -48 -46 63.5
    endloop
  endfacet
  facet normal -1 0 0
    outer loop
      vertex 48 -46 63.5
      vertex 48 46 64.5
      vertex 48 46 63.5
    endloop
  endfacet
  facet normal -1 -0 0
    outer loop
      vertex 48 46 64.5
      vertex 48 -46 63.5
      vertex 48 -46 64.5
    endloop
  endfacet
  facet normal 0 1 -0
    outer loop
      vertex 46 -48 63.5
      vertex -46 -48 64.5
      vertex 46 -48 64.5
    endloop
  endfacet
  facet normal 0 1 0
    outer loop
      vertex -46 -48 64.5
      vertex 46 -48 63.5
      vertex -46 -48 63.5
    endloop
  endfacet
  facet normal 0 -1 0
    outer loop
      vertex -46 48 63.5
      vertex 46 48 64.5
      vertex -46 48 64.5
    endloop
  endfacet
  facet normal 0 -1 -0
    outer loop
      vertex 46 48 64.5
      vertex -46 48 63.5
      vertex 46 48 63.5
    endloop
  endfacet
  facet normal -1 0 0
    outer loop
      vertex 44 44 0
      vertex 44 52 0.4
      vertex 44 52 0
    endloop
  endfacet
  facet normal -1 -0 0
    outer loop
      vertex 44 52 0.4
      vertex 44 44 0
      vertex 44 44 0.4
    endloop
  endfacet
  facet normal 0 0 1
    outer loop
      vertex 52 52 0.4
      vertex 50 50 0.4
      vertex 52 44 0.4
    endloop
  endfacet
  facet normal 0 0 1
    outer loop
      vertex 52 52 0.4
      vertex 46 50 0.4
      vertex 50 50 0.4
    endloop
  endfacet
  facet normal 0 0 1
    outer loop
      vertex 46 50 0.4
      vertex 44 52 0.4
      vertex 46 46 0.4
    endloop
  endfacet
  facet normal -0 0 1
    outer loop
      vertex 44 52 0.4
      vertex 46 50 0.4
      vertex 52 52 0.4
    endloop
  endfacet
  facet normal -0 0 1
    outer loop
      vertex 50 46 0.4
      vertex 52 44 0.4
      vertex 50 50 0.4
    endloop
  endfacet
  facet normal -0 0 1
    outer loop
      vertex 46 46 0.4
      vertex 52 44 0.4
      vertex 50 46 0.4
    endloop
  endfacet
  facet normal 0 0 1
    outer loop
      vertex 46 46 0.4
      vertex 44 44 0.4
      vertex 52 44 0.4
    endloop
  endfacet
  facet normal 0 0 1
    outer loop
      vertex 44 44 0.4
      vertex 46 46 0.4
      vertex 44 52 0.4
    endloop
  endfacet
  facet normal 1 -0 0
    outer loop
      vertex 52 44 0.4
      vertex 52 52 0
      vertex 52 52 0.4
    endloop
  endfacet
  facet normal 1 0 0
    outer loop
      vertex 52 52 0
      vertex 52 44 0.4
      vertex 52 44 0
    endloop
  endfacet
  facet normal 0 0 -1
    outer loop
      vertex 44 44 0
      vertex 52 52 0
      vertex 52 44 0
    endloop
  endfacet
  facet normal -0 0 -1
    outer loop
      vertex 52 52 0
      vertex 44 44 0
      vertex 44 52 0
    endloop
  endfacet
  facet normal 0 -1 0
    outer loop
      vertex 44 44 0
      vertex 52 44 0.4
      vertex 44 44 0.4
    endloop
  endfacet
  facet normal 0 -1 -0
    outer loop
      vertex 52 44 0.4
      vertex 44 44 0
      vertex 52 44 0
    endloop
  endfacet
  facet normal 0 1 -0
    outer loop
      vertex 52 52 0
      vertex 44 52 0.4
      vertex 52 52 0.4
    endloop
  endfacet
  facet normal 0 1 0
    outer loop
      vertex 44 52 0.4
      vertex 52 52 0
      vertex 44 52 0
    endloop
  endfacet
  facet normal -1 0 0
    outer loop
      vertex 46 50 0.4
      vertex 46 49 63.5
      vertex 46 50 76
    endloop
  endfacet
  facet normal -1 0 0
    outer loop
      vertex 46 50 0.4
      vertex 46 48 63.5
      vertex 46 49 63.5
    endloop
  endfacet
  facet normal -1 0 0
    outer loop
      vertex 46 46 76
      vertex 46 48 63.5
      vertex 46 46 0.4
    endloop
  endfacet
  facet normal -1 0 0
    outer loop
      vertex 46 46 0.4
      vertex 46 48 63.5
      vertex 46 50 0.4
    endloop
  endfacet
  facet normal -1 0 0
    outer loop
      vertex 46 49 64.5
      vertex 46 50 76
      vertex 46 49 63.5
    endloop
  endfacet
  facet normal -1 0 0
    outer loop
      vertex 46 48 64.5
      vertex 46 50 76
      vertex 46 49 64.5
    endloop
  endfacet
  facet normal -1 0 0
    outer loop
      vertex 46 48 64.5
      vertex 46 46 76
      vertex 46 50 76
    endloop
  endfacet
  facet normal -1 0 0
    outer loop
      vertex 46 48 63.5
      vertex 46 46 76
      vertex 46 48 64.5
    endloop
  endfacet
  facet normal 0 -1 0
    outer loop
      vertex 46 46 76
      vertex 48 46 64.5
      vertex 50 46 76
    endloop
  endfacet
  facet normal 0 -1 0
    outer loop
      vertex 46 46 76
      vertex 48 46 63.5
      vertex 48 46 64.5
    endloop
  endfacet
  facet normal 0 -1 0
    outer loop
      vertex 50 46 0.4
      vertex 48 46 63.5
      vertex 46 46 0.4
    endloop
  endfacet
  facet normal 0 -1 0
    outer loop
      vertex 46 46 0.4
      vertex 48 46 63.5
      vertex 46 46 76
    endloop
  endfacet
  facet normal 0 -1 0
    outer loop
      vertex 49 46 64.5
      vertex 50 46 76
      vertex 48 46 64.5
    endloop
  endfacet
  facet normal 0 -1 0
    outer loop
      vertex 49 46 63.5
      vertex 50 46 76
      vertex 49 46 64.5
    endloop
  endfacet
  facet normal 0 -1 0
    outer loop
      vertex 48 46 63.5
      vertex 50 46 0.4
      vertex 49 46 63.5
    endloop
  endfacet
  facet normal 0 -1 0
    outer loop
      vertex 49 46 63.5
      vertex 50 46 0.4
      vertex 50 46 76
    endloop
  endfacet
  facet normal -1 0 0
    outer loop
      vertex 44 -52 0
      vertex 44 -44 0.4
      vertex 44 -44 0
    endloop
  endfacet
  facet normal -1 -0 0
    outer loop
      vertex 44 -44 0.4
      vertex 44 -52 0
      vertex 44 -52 0.4
    endloop
  endfacet
  facet normal 0 0 1
    outer loop
      vertex 52 -44 0.4
      vertex 50 -46 0.4
      vertex 52 -52 0.4
    endloop
  endfacet
  facet normal 0 0 1
    outer loop
      vertex 52 -44 0.4
      vertex 46 -46 0.4
      vertex 50 -46 0.4
    endloop
  endfacet
  facet normal 0 0 1
    outer loop
      vertex 46 -46 0.4
      vertex 44 -44 0.4
      vertex 46 -50 0.4
    endloop
  endfacet
  facet normal -0 0 1
    outer loop
      vertex 44 -44 0.4
      vertex 46 -46 0.4
      vertex 52 -44 0.4
    endloop
  endfacet
  facet normal -0 0 1
    outer loop
      vertex 50 -50 0.4
      vertex 52 -52 0.4
      vertex 50 -46 0.4
    endloop
  endfacet
  facet normal -0 0 1
    outer loop
      vertex 46 -50 0.4
      vertex 52 -52 0.4
      vertex 50 -50 0.4
    endloop
  endfacet
  facet normal 0 0 1
    outer loop
      vertex 46 -50 0.4
      vertex 44 -52 0.4
      vertex 52 -52 0.4
    endloop
  endfacet
  facet normal 0 0 1
    outer loop
      vertex 44 -52 0.4
      vertex 46 -50 0.4
      vertex 44 -44 0.4
    endloop
  endfacet
  facet normal 1 -0 0
    outer loop
      vertex 52 -52 0.4
      vertex 52 -44 0
      vertex 52 -44 0.4
    endloop
  endfacet
  facet normal 1 0 0
    outer loop
      vertex 52 -44 0
      vertex 52 -52 0.4
      vertex 52 -52 0
    endloop
  endfacet
  facet normal 0 1 -0
    outer loop
      vertex 52 -44 0
      vertex 44 -44 0.4
      vertex 52 -44 0.4
    endloop
  endfacet
  facet normal 0 1 0
    outer loop
      vertex 44 -44 0.4
      vertex 52 -44 0
      vertex 44 -44 0
    endloop
  endfacet
  facet normal 0 0 -1
    outer loop
      vertex 44 -52 0
      vertex 52 -44 0
      vertex 52 -52 0
    endloop
  endfacet
  facet normal -0 0 -1
    outer loop
      vertex 52 -44 0
      vertex 44 -52 0
      vertex 44 -44 0
    endloop
  endfacet
  facet normal 0 -1 0
    outer loop
      vertex 44 -52 0
      vertex 52 -52 0.4
      vertex 44 -52 0.4
    endloop
  endfacet
  facet normal 0 -1 -0
    outer loop
      vertex 52 -52 0.4
      vertex 44 -52 0
      vertex 52 -52 0
    endloop
  endfacet
  facet normal -1 0 0
    outer loop
      vertex 46 -46 0.4
      vertex 46 -48 63.5
      vertex 46 -46 76
    endloop
  endfacet
  facet normal -1 0 0
    outer loop
      vertex 46 -50 0.4
      vertex 46 -48 63.5
      vertex 46 -46 0.4
    endloop
  endfacet
  facet normal -1 0 0
    outer loop
      vertex 46 -50 76
      vertex 46 -49 63.5
      vertex 46 -50 0.4
    endloop
  endfacet
  facet normal -1 -0 0
    outer loop
      vertex 46 -48 63.5
      vertex 46 -50 0.4
      vertex 46 -49 63.5
    endloop
  endfacet
  facet normal -1 0 0
    outer loop
      vertex 46 -48 64.5
      vertex 46 -46 76
      vertex 46 -48 63.5
    endloop
  endfacet
  facet normal -1 0 0
    outer loop
      vertex 46 -50 76
      vertex 46 -48 64.5
      vertex 46 -49 64.5
    endloop
  endfacet
  facet normal -1 0 0
    outer loop
      vertex 46 -48 64.5
      vertex 46 -50 76
      vertex 46 -46 76
    endloop
  endfacet
  facet normal -1 0 0
    outer loop
      vertex 46 -49 63.5
      vertex 46 -50 76
      vertex 46 -49 64.5
    endloop
  endfacet
  facet normal 0 1 0
    outer loop
      vertex 48 -46 64.5
      vertex 50 -46 76
      vertex 49 -46 64.5
    endloop
  endfacet
  facet normal 0 1 0
    outer loop
      vertex 50 -46 76
      vertex 49 -46 63.5
      vertex 49 -46 64.5
    endloop
  endfacet
  facet normal 0 1 0
    outer loop
      vertex 49 -46 63.5
      vertex 50 -46 0.4
      vertex 48 -46 63.5
    endloop
  endfacet
  facet normal 0 1 -0
    outer loop
      vertex 50 -46 0.4
      vertex 49 -46 63.5
      vertex 50 -46 76
    endloop
  endfacet
  facet normal 0 1 0
    outer loop
      vertex 50 -46 76
      vertex 48 -46 64.5
      vertex 46 -46 76
    endloop
  endfacet
  facet normal 0 1 -0
    outer loop
      vertex 48 -46 63.5
      vertex 46 -46 76
      vertex 48 -46 64.5
    endloop
  endfacet
  facet normal 0 1 0
    outer loop
      vertex 46 -46 0.4
      vertex 48 -46 63.5
      vertex 50 -46 0.4
    endloop
  endfacet
  facet normal 0 1 0
    outer loop
      vertex 48 -46 63.5
      vertex 46 -46 0.4
      vertex 46 -46 76
    endloop
  endfacet
  facet normal -1 0 0
    outer loop
      vertex -52 44 0
      vertex -52 52 0.4
      vertex -52 52 0
    endloop
  endfacet
  facet normal -1 -0 0
    outer loop
      vertex -52 52 0.4
      vertex -52 44 0
      vertex -52 44 0.4
    endloop
  endfacet
  facet normal 0 0 1
    outer loop
      vertex -44 52 0.4
      vertex -46 50 0.4
      vertex -44 44 0.4
    endloop
  endfacet
  facet normal 0 0 1
    outer loop
      vertex -44 52 0.4
      vertex -50 50 0.4
      vertex -46 50 0.4
    endloop
  endfacet
  facet normal 0 0 1
    outer loop
      vertex -50 50 0.4
      vertex -52 52 0.4
      vertex -50 46 0.4
    endloop
  endfacet
  facet normal -0 0 1
    outer loop
      vertex -52 52 0.4
      vertex -50 50 0.4
      vertex -44 52 0.4
    endloop
  endfacet
  facet normal -0 0 1
    outer loop
      vertex -46 46 0.4
      vertex -44 44 0.4
      vertex -46 50 0.4
    endloop
  endfacet
  facet normal -0 0 1
    outer loop
      vertex -50 46 0.4
      vertex -44 44 0.4
      vertex -46 46 0.4
    endloop
  endfacet
  facet normal 0 0 1
    outer loop
      vertex -50 46 0.4
      vertex -52 44 0.4
      vertex -44 44 0.4
    endloop
  endfacet
  facet normal 0 0 1
    outer loop
      vertex -52 44 0.4
      vertex -50 46 0.4
      vertex -52 52 0.4
    endloop
  endfacet
  facet normal 1 -0 0
    outer loop
      vertex -44 44 0.4
      vertex -44 52 0
      vertex -44 52 0.4
    endloop
  endfacet
  facet normal 1 0 0
    outer loop
      vertex -44 52 0
      vertex -44 44 0.4
      vertex -44 44 0
    endloop
  endfacet
  facet normal 0 1 -0
    outer loop
      vertex -44 52 0
      vertex -52 52 0.4
      vertex -44 52 0.4
    endloop
  endfacet
  facet normal 0 1 0
    outer loop
      vertex -52 52 0.4
      vertex -44 52 0
      vertex -52 52 0
    endloop
  endfacet
  facet normal 0 0 -1
    outer loop
      vertex -52 44 0
      vertex -44 52 0
      vertex -44 44 0
    endloop
  endfacet
  facet normal -0 0 -1
    outer loop
      vertex -44 52 0
      vertex -52 44 0
      vertex -52 52 0
    endloop
  endfacet
  facet normal 0 -1 0
    outer loop
      vertex -52 44 0
      vertex -44 44 0.4
      vertex -52 44 0.4
    endloop
  endfacet
  facet normal 0 -1 -0
    outer loop
      vertex -44 44 0.4
      vertex -52 44 0
      vertex -44 44 0
    endloop
  endfacet
  facet normal 1 0 0
    outer loop
      vertex -46 49 63.5
      vertex -46 50 76
      vertex -46 49 64.5
    endloop
  endfacet
  facet normal 1 0 0
    outer loop
      vertex -46 50 76
      vertex -46 48 64.5
      vertex -46 49 64.5
    endloop
  endfacet
  facet normal 1 0 0
    outer loop
      vertex -46 48 64.5
      vertex -46 46 76
      vertex -46 48 63.5
    endloop
  endfacet
  facet normal 1 -0 0
    outer loop
      vertex -46 46 76
      vertex -46 48 64.5
      vertex -46 50 76
    endloop
  endfacet
  facet normal 1 0 0
    outer loop
      vertex -46 50 76
      vertex -46 49 63.5
      vertex -46 50 0.4
    endloop
  endfacet
  facet normal 1 -0 0
    outer loop
      vertex -46 48 63.5
      vertex -46 50 0.4
      vertex -46 49 63.5
    endloop
  endfacet
  facet normal 1 0 0
    outer loop
      vertex -46 46 0.4
      vertex -46 48 63.5
      vertex -46 46 76
    endloop
  endfacet
  facet normal 1 0 0
    outer loop
      vertex -46 48 63.5
      vertex -46 46 0.4
      vertex -46 50 0.4
    endloop
  endfacet
  facet normal 0 -1 0
    outer loop
      vertex -48 46 64.5
      vertex -50 46 76
      vertex -49 46 64.5
    endloop
  endfacet
  facet normal 0 -1 0
    outer loop
      vertex -50 46 76
      vertex -49 46 63.5
      vertex -49 46 64.5
    endloop
  endfacet
  facet normal 0 -1 -0
    outer loop
      vertex -49 46 63.5
      vertex -50 46 0.4
      vertex -48 46 63.5
    endloop
  endfacet
  facet normal 0 -1 0
    outer loop
      vertex -50 46 0.4
      vertex -49 46 63.5
      vertex -50 46 76
    endloop
  endfacet
  facet normal 0 -1 0
    outer loop
      vertex -50 46 76
      vertex -48 46 64.5
      vertex -46 46 76
    endloop
  endfacet
  facet normal 0 -1 0
    outer loop
      vertex -48 46 63.5
      vertex -46 46 76
      vertex -48 46 64.5
    endloop
  endfacet
  facet normal 0 -1 0
    outer loop
      vertex -46 46 0.4
      vertex -48 46 63.5
      vertex -50 46 0.4
    endloop
  endfacet
  facet normal 0 -1 0
    outer loop
      vertex -48 46 63.5
      vertex -46 46 0.4
      vertex -46 46 76
    endloop
  endfacet
  facet normal -1 0 0
    outer loop
      vertex -52 -52 0
      vertex -52 -44 0.4
      vertex -52 -44 0
    endloop
  endfacet
  facet normal -1 -0 0
    outer loop
      vertex -52 -44 0.4
      vertex -52 -52 0
      vertex -52 -52 0.4
    endloop
  endfacet
  facet normal 0 0 1
    outer loop
      vertex -44 -44 0.4
      vertex -46 -46 0.4
      vertex -44 -52 0.4
    endloop
  endfacet
  facet normal 0 0 1
    outer loop
      vertex -44 -44 0.4
      vertex -50 -46 0.4
      vertex -46 -46 0.4
    endloop
  endfacet
  facet normal 0 0 1
    outer loop
      vertex -50 -46 0.4
      vertex -52 -44 0.4
      vertex -50 -50 0.4
    endloop
  endfacet
  facet normal -0 0 1
    outer loop
      vertex -52 -44 0.4
      vertex -50 -46 0.4
      vertex -44 -44 0.4
    endloop
  endfacet
  facet normal -0 0 1
    outer loop
      vertex -46 -50 0.4
      vertex -44 -52 0.4
      vertex -46 -46 0.4
    endloop
  endfacet
  facet normal -0 0 1
    outer loop
      vertex -50 -50 0.4
      vertex -44 -52 0.4
      vertex -46 -50 0.4
    endloop
  endfacet
  facet normal 0 0 1
    outer loop
      vertex -50 -50 0.4
      vertex -52 -52 0.4
      vertex -44 -52 0.4
    endloop
  endfacet
  facet normal 0 0 1
    outer loop
      vertex -52 -52 0.4
      vertex -50 -50 0.4
      vertex -52 -44 0.4
    endloop
  endfacet
  facet normal 1 -0 0
    outer loop
      vertex -44 -52 0.4
      vertex -44 -44 0
      vertex -44 -44 0.4
    endloop
  endfacet
  facet normal 1 0 0
    outer loop
      vertex -44 -44 0
      vertex -44 -52 0.4
      vertex -44 -52 0
    endloop
  endfacet
  facet normal 0 0 -1
    outer loop
      vertex -52 -52 0
      vertex -44 -44 0
      vertex -44 -52 0
    endloop
  endfacet
  facet normal -0 0 -1
    outer loop
      vertex -44 -44 0
      vertex -52 -52 0
      vertex -52 -44 0
    endloop
  endfacet
  facet normal 0 -1 0
    outer loop
      vertex -52 -52 0
      vertex -44 -52 0.4
      vertex -52 -52 0.4
    endloop
  endfacet
  facet normal 0 -1 -0
    outer loop
      vertex -44 -52 0.4
      vertex -52 -52 0
      vertex -44 -52 0
    endloop
  endfacet
  facet normal 0 1 -0
    outer loop
      vertex -44 -44 0
      vertex -52 -44 0.4
      vertex -44 -44 0.4
    endloop
  endfacet
  facet normal 0 1 0
    outer loop
      vertex -52 -44 0.4
      vertex -44 -44 0
      vertex -52 -44 0
    endloop
  endfacet
  facet normal 1 0 0
    outer loop
      vertex -46 -48 63.5
      vertex -46 -46 76
      vertex -46 -48 64.5
    endloop
  endfacet
  facet normal 1 -0 0
    outer loop
      vertex -46 -50 76
      vertex -46 -48 64.5
      vertex -46 -46 76
    endloop
  endfacet
  facet normal 1 0 0
    outer loop
      vertex -46 -49 64.5
      vertex -46 -50 76
      vertex -46 -49 63.5
    endloop
  endfacet
  facet normal 1 0 0
    outer loop
      vertex -46 -48 64.5
      vertex -46 -50 76
      vertex -46 -49 64.5
    endloop
  endfacet
  facet normal 1 0 0
    outer loop
      vertex -46 -46 76
      vertex -46 -48 63.5
      vertex -46 -46 0.4
    endloop
  endfacet
  facet normal 1 0 0
    outer loop
      vertex -46 -50 0.4
      vertex -46 -48 63.5
      vertex -46 -49 63.5
    endloop
  endfacet
  facet normal 1 0 0
    outer loop
      vertex -46 -50 0.4
      vertex -46 -49 63.5
      vertex -46 -50 76
    endloop
  endfacet
  facet normal 1 0 0
    outer loop
      vertex -46 -48 63.5
      vertex -46 -50 0.4
      vertex -46 -46 0.4
    endloop
  endfacet
  facet normal 0 1 0
    outer loop
      vertex -46 -46 76
      vertex -48 -46 64.5
      vertex -50 -46 76
    endloop
  endfacet
  facet normal 0 1 0
    outer loop
      vertex -46 -46 76
      vertex -48 -46 63.5
      vertex -48 -46 64.5
    endloop
  endfacet
  facet normal 0 1 0
    outer loop
      vertex -50 -46 0.4
      vertex -48 -46 63.5
      vertex -46 -46 0.4
    endloop
  endfacet
  facet normal 0 1 -0
    outer loop
      vertex -46 -46 0.4
      vertex -48 -46 63.5
      vertex -46 -46 76
    endloop
  endfacet
  facet normal 0 1 -0
    outer loop
      vertex -49 -46 64.5
      vertex -50 -46 76
      vertex -48 -46 64.5
    endloop
  endfacet
  facet normal 0 1 -0
    outer loop
      vertex -49 -46 63.5
      vertex -50 -46 76
      vertex -49 -46 64.5
    endloop
  endfacet
  facet normal 0 1 0
    outer loop
      vertex -48 -46 63.5
      vertex -50 -46 0.4
      vertex -49 -46 63.5
    endloop
  endfacet
  facet normal 0 1 0
    outer loop
      vertex -49 -46 63.5
      vertex -50 -46 0.4
      vertex -50 -46 76
    endloop
  endfacet
endsolid OpenSCAD_Model
